Exo-DemiboldItalic.ufo
<glyph name="numbersign" format="1">
  <advance width="710"/>
  <unicode hex="0023"/>
  <note>
    GF Latin Plus glyph
  </note>
  <outline>
    <contour>
      <point x="320" y="297" type="line"/>
      <point x="364" y="433" type="line"/>
      <point x="496" y="433" type="line"/>
      <point x="451" y="297" type="line"/>
    </contour>
    <contour>
      <point x="52" y="215" type="line"/>
      <point x="208" y="215" type="line"/>
      <point x="137" y="0" type="line"/>
      <point x="219" y="0" type="line"/>
      <point x="291" y="215" type="line"/>
      <point x="420" y="215" type="line"/>
      <point x="348" y="0" type="line"/>
      <point x="431" y="0" type="line"/>
      <point x="502" y="215" type="line"/>
      <point x="681" y="215" type="line"/>
      <point x="706" y="297" type="line"/>
      <point x="534" y="297" type="line"/>
      <point x="578" y="433" type="line"/>
      <point x="751" y="433" type="line"/>
      <point x="776" y="515" type="line"/>
      <point x="604" y="515" type="line"/>
      <point x="676" y="732" type="line"/>
      <point x="594" y="732" type="line"/>
      <point x="522" y="515" type="line"/>
      <point x="393" y="515" type="line"/>
      <point x="466" y="732" type="line"/>
      <point x="384" y="732" type="line"/>
      <point x="311" y="515" type="line"/>
      <point x="147" y="515" type="line"/>
      <point x="120" y="433" type="line"/>
      <point x="282" y="433" type="line"/>
      <point x="237" y="297" type="line"/>
      <point x="77" y="297" type="line"/>
    </contour>
  </outline>
</glyph>
<glyph name="ampersand" format="1">
  <advance width="689"/>
  <unicode hex="0026"/>
  <note>
    GF Latin Plus glyph
  </note>
  <outline>
    <contour>
      <point x="266" y="108" type="curve" smooth="yes"/>
      <point x="215" y="108"/>
      <point x="185" y="140"/>
      <point x="185" y="191" type="curve" smooth="yes"/>
      <point x="185" y="247"/>
      <point x="201" y="286"/>
      <point x="269" y="324" type="curve" smooth="yes"/>
      <point x="310" y="347" type="line"/>
      <point x="410" y="179" type="line"/>
      <point x="378" y="152" type="line" smooth="yes"/>
      <point x="335" y="116"/>
      <point x="301" y="108"/>
    </contour>
    <contour>
      <point x="229" y="-6" type="curve" smooth="yes"/>
      <point x="298" y="-6"/>
      <point x="354" y="12"/>
      <point x="421" y="64" type="curve" smooth="yes"/>
      <point x="462" y="96" type="line"/>
      <point x="522" y="0" type="line"/>
      <point x="650" y="0" type="line"/>
      <point x="556" y="158" type="line"/>
      <point x="627" y="217" type="line"/>
      <point x="706" y="324" type="line"/>
      <point x="670" y="379" type="line"/>
      <point x="503" y="246" type="line"/>
      <point x="378" y="465" type="line" smooth="yes"/>
      <point x="355" y="504"/>
      <point x="345" y="533"/>
      <point x="345" y="558" type="curve" smooth="yes"/>
      <point x="345" y="604"/>
      <point x="378" y="627"/>
      <point x="437" y="627" type="curve" smooth="yes"/>
      <point x="580" y="627" type="line"/>
      <point x="594" y="717" type="line"/>
      <point x="558" y="725"/>
      <point x="500" y="736"/>
      <point x="431" y="736" type="curve" smooth="yes"/>
      <point x="291" y="736"/>
      <point x="222" y="666"/>
      <point x="222" y="570" type="curve" smooth="yes"/>
      <point x="222" y="538"/>
      <point x="228" y="500"/>
      <point x="252" y="455" type="curve" smooth="yes"/>
      <point x="264" y="432" type="line"/>
      <point x="193" y="391" type="line" smooth="yes"/>
      <point x="99" y="336"/>
      <point x="59" y="269"/>
      <point x="59" y="161" type="curve" smooth="yes"/>
      <point x="59" y="60"/>
      <point x="127" y="-6"/>
    </contour>
  </outline>
</glyph>
<glyph name="asterisk" format="1">
  <advance width="444"/>
  <unicode hex="002A"/>
  <note>
    GF Latin Plus glyph
  </note>
  <outline>
    <contour>
      <point x="332" y="563" type="line"/>
      <point x="365" y="512" type="line"/>
      <point x="482" y="607" type="line"/>
      <point x="461" y="645" type="line"/>
    </contour>
    <contour>
      <point x="282" y="722" type="line"/>
      <point x="308" y="588" type="line"/>
      <point x="373" y="612" type="line"/>
      <point x="329" y="737" type="line"/>
    </contour>
    <contour>
      <point x="267" y="474" type="line"/>
      <point x="380" y="406" type="line"/>
      <point x="413" y="443" type="line"/>
      <point x="312" y="530" type="line"/>
    </contour>
    <contour>
      <point x="162" y="414" type="line"/>
      <point x="204" y="400" type="line"/>
      <point x="274" y="535" type="line"/>
      <point x="212" y="551" type="line"/>
    </contour>
    <contour>
      <point x="126" y="577" type="line"/>
      <point x="269" y="571" type="line"/>
      <point x="276" y="636" type="line"/>
      <point x="133" y="624" type="line"/>
    </contour>
  </outline>
</glyph>
<glyph name="one" format="1">
  <advance width="369"/>
  <unicode hex="0031"/>
  <note>
    GF Latin Plus glyph
  </note>
  <outline>
    <contour>
      <point x="130" y="594" type="line"/>
      <point x="273" y="625" type="line"/>
      <point x="174" y="0" type="line"/>
      <point x="298" y="0" type="line"/>
      <point x="415" y="738" type="line"/>
      <point x="304" y="738" type="line"/>
      <point x="142" y="674" type="line"/>
    </contour>
  </outline>
</glyph>
<glyph name="five" format="1">
  <advance width="616"/>
  <unicode hex="0035"/>
  <note>
    GF Latin Plus glyph
  </note>
  <outline>
    <contour>
      <point x="81" y="9" type="line"/>
      <point x="153" y="2"/>
      <point x="242" y="-5"/>
      <point x="321" y="-5" type="curve" smooth="yes"/>
      <point x="474" y="-5"/>
      <point x="573" y="51"/>
      <point x="592" y="178" type="curve" smooth="yes"/>
      <point x="610" y="287" type="line" smooth="yes"/>
      <point x="611" y="300"/>
      <point x="612" y="313"/>
      <point x="612" y="325" type="curve" smooth="yes"/>
      <point x="612" y="405"/>
      <point x="564" y="462"/>
      <point x="463" y="462" type="curve" smooth="yes"/>
      <point x="380" y="462" type="line" smooth="yes"/>
      <point x="334" y="462"/>
      <point x="299" y="444"/>
      <point x="278" y="423" type="curve"/>
      <point x="320" y="627" type="line"/>
      <point x="636" y="627" type="line"/>
      <point x="654" y="738" type="line"/>
      <point x="219" y="738" type="line"/>
      <point x="128" y="291" type="line"/>
      <point x="246" y="291" type="line"/>
      <point x="261" y="336"/>
      <point x="288" y="356"/>
      <point x="339" y="356" type="curve" smooth="yes"/>
      <point x="404" y="356" type="line" smooth="yes"/>
      <point x="460" y="356"/>
      <point x="484" y="331"/>
      <point x="484" y="289" type="curve" smooth="yes"/>
      <point x="484" y="282"/>
      <point x="483" y="273"/>
      <point x="482" y="265" type="curve" smooth="yes"/>
      <point x="473" y="203" type="line" smooth="yes"/>
      <point x="464" y="150"/>
      <point x="422" y="106"/>
      <point x="344" y="106" type="curve" smooth="yes"/>
      <point x="97" y="106" type="line"/>
    </contour>
  </outline>
</glyph>
<glyph name="greater" format="1">
  <advance width="609"/>
  <unicode hex="003E"/>
  <note>
    GF Latin Plus glyph
  </note>
  <outline>
    <contour>
      <point x="127" y="159" type="line"/>
      <point x="563" y="295" type="line"/>
      <point x="581" y="405" type="line"/>
      <point x="187" y="537" type="line"/>
      <point x="170" y="429" type="line"/>
      <point x="452" y="351" type="line"/>
      <point x="144" y="267" type="line"/>
    </contour>
  </outline>
</glyph>
<glyph name="question" format="1">
  <advance width="530"/>
  <unicode hex="003F"/>
  <note>
    GF Latin Plus glyph
  </note>
  <outline>
    <contour>
      <point x="138" y="593" type="line"/>
      <point x="202" y="615"/>
      <point x="258" y="628"/>
      <point x="319" y="628" type="curve" smooth="yes"/>
      <point x="389" y="628"/>
      <point x="425" y="606"/>
      <point x="425" y="550" type="curve" smooth="yes"/>
      <point x="425" y="541"/>
      <point x="425" y="531"/>
      <point x="423" y="519" type="curve" smooth="yes"/>
      <point x="416" y="477" type="line" smooth="yes"/>
      <point x="405" y="406"/>
      <point x="362" y="385"/>
      <point x="279" y="385" type="curve" smooth="yes"/>
      <point x="217" y="385" type="line"/>
      <point x="188" y="201" type="line"/>
      <point x="282" y="201" type="line"/>
      <point x="295" y="291" type="line"/>
      <point x="444" y="291"/>
      <point x="520" y="353"/>
      <point x="539" y="475" type="curve" smooth="yes"/>
      <point x="550" y="538" type="line" smooth="yes"/>
      <point x="553" y="555"/>
      <point x="554" y="571"/>
      <point x="554" y="586" type="curve" smooth="yes"/>
      <point x="554" y="678"/>
      <point x="497" y="739"/>
      <point x="375" y="739" type="curve" smooth="yes"/>
      <point x="292" y="739"/>
      <point x="217" y="718"/>
      <point x="152" y="683" type="curve"/>
    </contour>
    <component base="period" xOffset="94"/>
  </outline>
</glyph>
<glyph name="at" format="1">
  <advance width="925"/>
  <unicode hex="0040"/>
  <note>
    GF Latin Plus glyph
  </note>
  <outline>
    <contour>
      <point x="528" y="447" type="curve" smooth="yes"/>
      <point x="559" y="447"/>
      <point x="590" y="442"/>
      <point x="630" y="426" type="curve"/>
      <point x="587" y="138" type="line"/>
      <point x="545" y="102"/>
      <point x="490" y="90"/>
      <point x="442" y="90" type="curve" smooth="yes"/>
      <point x="390" y="90"/>
      <point x="356" y="121"/>
      <point x="356" y="198" type="curve" smooth="yes"/>
      <point x="356" y="350"/>
      <point x="429" y="447"/>
    </contour>
    <contour>
      <point x="55" y="38" type="line" smooth="yes"/>
      <point x="53" y="21"/>
      <point x="51" y="4"/>
      <point x="51" y="-13" type="curve" smooth="yes"/>
      <point x="51" y="-110"/>
      <point x="104" y="-191"/>
      <point x="246" y="-191" type="curve" smooth="yes"/>
      <point x="338" y="-191" type="line" smooth="yes"/>
      <point x="464" y="-191"/>
      <point x="579" y="-180"/>
      <point x="629" y="-171" type="curve"/>
      <point x="640" y="-102" type="line"/>
      <point x="255" y="-102" type="line" smooth="yes"/>
      <point x="182" y="-102"/>
      <point x="148" y="-63"/>
      <point x="148" y="-5" type="curve" smooth="yes"/>
      <point x="148" y="5"/>
      <point x="149" y="16"/>
      <point x="151" y="27" type="curve" smooth="yes"/>
      <point x="226" y="498" type="line" smooth="yes"/>
      <point x="236" y="565"/>
      <point x="266" y="633"/>
      <point x="372" y="633" type="curve" smooth="yes"/>
      <point x="735" y="633" type="line" smooth="yes"/>
      <point x="799" y="633"/>
      <point x="845" y="608"/>
      <point x="845" y="540" type="curve" smooth="yes"/>
      <point x="845" y="528"/>
      <point x="843" y="514"/>
      <point x="841" y="498" type="curve" smooth="yes"/>
      <point x="796" y="196" type="line" smooth="yes"/>
      <point x="781" y="94"/>
      <point x="722" y="84"/>
      <point x="675" y="84" type="curve"/>
      <point x="734" y="473" type="line"/>
      <point x="686" y="514"/>
      <point x="620" y="540"/>
      <point x="535" y="540" type="curve" smooth="yes"/>
      <point x="388" y="540"/>
      <point x="260" y="411"/>
      <point x="260" y="184" type="curve" smooth="yes"/>
      <point x="260" y="44"/>
      <point x="329" y="-6"/>
      <point x="411" y="-6" type="curve" smooth="yes"/>
      <point x="479" y="-6"/>
      <point x="553" y="27"/>
      <point x="577" y="57" type="curve"/>
      <point x="596" y="0" type="line"/>
      <point x="675" y="0" type="line" smooth="yes"/>
      <point x="812" y="0"/>
      <point x="877" y="88"/>
      <point x="891" y="185" type="curve" smooth="yes"/>
      <point x="936" y="486" type="line" smooth="yes"/>
      <point x="939" y="508"/>
      <point x="941" y="530"/>
      <point x="941" y="550" type="curve" smooth="yes"/>
      <point x="941" y="652"/>
      <point x="883" y="722"/>
      <point x="761" y="722" type="curve" smooth="yes"/>
      <point x="390" y="722" type="line" smooth="yes"/>
      <point x="242" y="722"/>
      <point x="156" y="669"/>
      <point x="132" y="521" type="curve" smooth="yes"/>
    </contour>
  </outline>
</glyph>
<glyph name="H" format="1">
  <advance width="682"/>
  <unicode hex="0048"/>
  <note>
    GF Latin Plus glyph
  </note>
  <outline>
    <contour>
      <point x="65" y="0" type="line"/>
      <point x="189" y="0" type="line"/>
      <point x="238" y="308" type="line"/>
      <point x="548" y="308" type="line"/>
      <point x="499" y="0" type="line"/>
      <point x="623" y="0" type="line"/>
      <point x="740" y="738" type="line"/>
      <point x="616" y="738" type="line"/>
      <point x="565" y="419" type="line"/>
      <point x="255" y="419" type="line"/>
      <point x="306" y="738" type="line"/>
      <point x="182" y="738" type="line"/>
    </contour>
    <contour>
      <point x="469" y="810" type="move" name="top"/>
    </contour>
    <contour>
      <point x="317" y="-150" type="move" name="bottom"/>
    </contour>
  </outline>
</glyph>
<glyph name="K" format="1">
  <advance width="626"/>
  <unicode hex="004B"/>
  <note>
    GF Latin Plus glyph
  </note>
  <outline>
    <contour>
      <point x="65" y="0" type="line"/>
      <point x="189" y="0" type="line"/>
      <point x="239" y="315" type="line"/>
      <point x="355" y="315" type="line"/>
      <point x="487" y="0" type="line"/>
      <point x="611" y="0" type="line"/>
      <point x="457" y="368" type="line"/>
      <point x="712" y="738" type="line"/>
      <point x="585" y="738" type="line"/>
      <point x="365" y="426" type="line"/>
      <point x="257" y="426" type="line"/>
      <point x="306" y="738" type="line"/>
      <point x="182" y="738" type="line"/>
    </contour>
    <contour>
      <point x="435" y="810" type="move" name="top"/>
    </contour>
    <contour>
      <point x="283" y="-150" type="move" name="bottom"/>
    </contour>
  </outline>
</glyph>
<glyph name="L" format="1">
  <advance width="529"/>
  <unicode hex="004C"/>
  <note>
    GF Latin Plus glyph
  </note>
  <outline>
    <contour>
      <point x="92" y="169" type="line" smooth="yes"/>
      <point x="90" y="154"/>
      <point x="89" y="140"/>
      <point x="89" y="126" type="curve" smooth="yes"/>
      <point x="89" y="36"/>
      <point x="144" y="0"/>
      <point x="230" y="0" type="curve" smooth="yes"/>
      <point x="507" y="0" type="line"/>
      <point x="524" y="111" type="line"/>
      <point x="281" y="111" type="line" smooth="yes"/>
      <point x="242" y="111"/>
      <point x="217" y="124"/>
      <point x="217" y="163" type="curve" smooth="yes"/>
      <point x="217" y="170"/>
      <point x="217" y="177"/>
      <point x="219" y="185" type="curve" smooth="yes"/>
      <point x="306" y="738" type="line"/>
      <point x="182" y="738" type="line"/>
    </contour>
    <contour>
      <point x="259" y="810" type="move" name="top"/>
    </contour>
    <contour>
      <point x="349" y="609" type="move" name="altcaron"/>
    </contour>
    <contour>
      <point x="410" y="400" type="move" name="dot"/>
    </contour>
    <contour>
      <point x="252" y="-150" type="move" name="bottom"/>
    </contour>
  </outline>
</glyph>
<glyph name="N" format="1">
  <advance width="684"/>
  <unicode hex="004E"/>
  <note>
    GF Latin Plus glyph
  </note>
  <outline>
    <contour>
      <point x="65" y="0" type="line"/>
      <point x="189" y="0" type="line"/>
      <point x="273" y="529" type="line"/>
      <point x="525" y="0" type="line"/>
      <point x="625" y="0" type="line"/>
      <point x="742" y="738" type="line"/>
      <point x="618" y="738" type="line"/>
      <point x="534" y="210" type="line"/>
      <point x="282" y="738" type="line"/>
      <point x="182" y="738" type="line"/>
    </contour>
    <contour>
      <point x="457" y="810" type="move" name="top"/>
    </contour>
    <contour>
      <point x="305" y="-150" type="move" name="bottom"/>
    </contour>
  </outline>
</glyph>
<glyph name="O" format="1">
  <advance width="693"/>
  <unicode hex="004F"/>
  <note>
    GF Latin Plus glyph
  </note>
  <outline>
    <contour>
      <point x="219" y="228" type="curve" smooth="yes"/>
      <point x="219" y="262"/>
      <point x="225" y="313"/>
      <point x="234" y="368" type="curve" smooth="yes"/>
      <point x="268" y="585"/>
      <point x="322" y="633"/>
      <point x="447" y="633" type="curve" smooth="yes"/>
      <point x="541" y="633"/>
      <point x="589" y="611"/>
      <point x="589" y="504" type="curve" smooth="yes"/>
      <point x="589" y="470"/>
      <point x="584" y="418"/>
      <point x="575" y="361" type="curve" smooth="yes"/>
      <point x="543" y="164"/>
      <point x="493" y="106"/>
      <point x="364" y="106" type="curve" smooth="yes"/>
      <point x="263" y="106"/>
      <point x="219" y="129"/>
    </contour>
    <contour>
      <point x="95" y="222" type="curve" smooth="yes"/>
      <point x="95" y="33"/>
      <point x="194" y="-6"/>
      <point x="344" y="-6" type="curve" smooth="yes"/>
      <point x="552" y="-6"/>
      <point x="652" y="54"/>
      <point x="698" y="343" type="curve" smooth="yes"/>
      <point x="708" y="404"/>
      <point x="713" y="462"/>
      <point x="713" y="505" type="curve" smooth="yes"/>
      <point x="713" y="702"/>
      <point x="611" y="744"/>
      <point x="465" y="744" type="curve" smooth="yes"/>
      <point x="255" y="744"/>
      <point x="155" y="669"/>
      <point x="110" y="386" type="curve" smooth="yes"/>
      <point x="101" y="326"/>
      <point x="95" y="268"/>
    </contour>
    <contour>
      <point x="477" y="810" type="move" name="top"/>
    </contour>
    <contour>
      <point x="430" y="0" type="move" name="ogonek"/>
    </contour>
    <contour>
      <point x="325" y="-150" type="move" name="bottom"/>
    </contour>
  </outline>
</glyph>
<glyph name="Q" format="1">
  <advance width="693"/>
  <unicode hex="0051"/>
  <note>
    GF Latin Plus glyph
  </note>
  <outline>
    <contour>
      <point x="321" y="-38" type="line"/>
      <point x="324" y="-144"/>
      <point x="397" y="-187"/>
      <point x="493" y="-187" type="curve" smooth="yes"/>
      <point x="517" y="-187"/>
      <point x="537" y="-185"/>
      <point x="556" y="-180" type="curve"/>
      <point x="570" y="-89" type="line"/>
      <point x="547" y="-94"/>
      <point x="518" y="-99"/>
      <point x="492" y="-99" type="curve" smooth="yes"/>
      <point x="441" y="-99"/>
      <point x="414" y="-83"/>
      <point x="407" y="-38" type="curve"/>
    </contour>
    <component base="O"/>
  </outline>
</glyph>
<glyph name="R" format="1">
  <advance width="628"/>
  <unicode hex="0052"/>
  <note>
    GF Latin Plus glyph
  </note>
  <outline>
    <contour>
      <point x="250" y="384" type="line"/>
      <point x="288" y="627" type="line"/>
      <point x="435" y="627" type="line" smooth="yes"/>
      <point x="485" y="627"/>
      <point x="524" y="608"/>
      <point x="524" y="542" type="curve" smooth="yes"/>
      <point x="524" y="532"/>
      <point x="524" y="519"/>
      <point x="522" y="506" type="curve" smooth="yes"/>
      <point x="507" y="409"/>
      <point x="465" y="384"/>
      <point x="397" y="384" type="curve" smooth="yes"/>
    </contour>
    <contour>
      <point x="65" y="0" type="line"/>
      <point x="189" y="0" type="line"/>
      <point x="235" y="287" type="line"/>
      <point x="260" y="286"/>
      <point x="357" y="285"/>
      <point x="379" y="284" type="curve"/>
      <point x="461" y="0" type="line"/>
      <point x="587" y="0" type="line"/>
      <point x="493" y="304" type="line"/>
      <point x="541" y="318"/>
      <point x="624" y="351"/>
      <point x="647" y="497" type="curve" smooth="yes"/>
      <point x="650" y="520"/>
      <point x="652" y="541"/>
      <point x="652" y="560" type="curve" smooth="yes"/>
      <point x="652" y="694"/>
      <point x="570" y="738"/>
      <point x="460" y="738" type="curve" smooth="yes"/>
      <point x="182" y="738" type="line"/>
    </contour>
    <contour>
      <point x="413" y="810" type="move" name="top"/>
    </contour>
    <contour>
      <point x="299" y="-150" type="move" name="bottom"/>
    </contour>
  </outline>
</glyph>
<glyph name="S" format="1">
  <advance width="571"/>
  <unicode hex="0053"/>
  <note>
    GF Latin Plus glyph
  </note>
  <outline>
    <contour>
      <point x="65" y="16" type="line"/>
      <point x="118" y="4"/>
      <point x="208" y="-6"/>
      <point x="304" y="-6" type="curve" smooth="yes"/>
      <point x="467" y="-6"/>
      <point x="546" y="43"/>
      <point x="565" y="170" type="curve" smooth="yes"/>
      <point x="576" y="239" type="line" smooth="yes"/>
      <point x="578" y="253"/>
      <point x="579" y="266"/>
      <point x="579" y="279" type="curve" smooth="yes"/>
      <point x="579" y="369"/>
      <point x="518" y="427"/>
      <point x="399" y="427" type="curve" smooth="yes"/>
      <point x="326" y="427" type="line" smooth="yes"/>
      <point x="274" y="427"/>
      <point x="250" y="443"/>
      <point x="250" y="486" type="curve" smooth="yes"/>
      <point x="250" y="493"/>
      <point x="251" y="502"/>
      <point x="253" y="511" type="curve" smooth="yes"/>
      <point x="258" y="544" type="line" smooth="yes"/>
      <point x="269" y="615"/>
      <point x="312" y="632"/>
      <point x="382" y="632" type="curve" smooth="yes"/>
      <point x="439" y="632"/>
      <point x="535" y="630"/>
      <point x="603" y="624" type="curve"/>
      <point x="618" y="721" type="line"/>
      <point x="551" y="736"/>
      <point x="456" y="744"/>
      <point x="396" y="744" type="curve" smooth="yes"/>
      <point x="256" y="744"/>
      <point x="164" y="700"/>
      <point x="142" y="558" type="curve" smooth="yes"/>
      <point x="132" y="497" type="line" smooth="yes"/>
      <point x="130" y="483"/>
      <point x="129" y="470"/>
      <point x="129" y="456" type="curve" smooth="yes"/>
      <point x="129" y="365"/>
      <point x="190" y="309"/>
      <point x="297" y="309" type="curve" smooth="yes"/>
      <point x="367" y="309" type="line" smooth="yes"/>
      <point x="431" y="309"/>
      <point x="458" y="292"/>
      <point x="458" y="249" type="curve" smooth="yes"/>
      <point x="458" y="242"/>
      <point x="458" y="234"/>
      <point x="456" y="226" type="curve" smooth="yes"/>
      <point x="451" y="192" type="line" smooth="yes"/>
      <point x="440" y="122"/>
      <point x="392" y="105"/>
      <point x="303" y="105" type="curve" smooth="yes"/>
      <point x="226" y="105"/>
      <point x="139" y="108"/>
      <point x="80" y="113" type="curve"/>
    </contour>
    <contour>
      <point x="411" y="810" type="move" name="top"/>
    </contour>
    <contour>
      <point x="259" y="-150" type="move" name="bottom"/>
    </contour>
  </outline>
</glyph>
<glyph name="U" format="1">
  <advance width="684"/>
  <unicode hex="0055"/>
  <note>
    GF Latin Plus glyph
  </note>
  <outline>
    <contour>
      <point x="119" y="338" type="line" smooth="yes"/>
      <point x="111" y="292"/>
      <point x="106" y="246"/>
      <point x="106" y="211" type="curve" smooth="yes"/>
      <point x="106" y="55"/>
      <point x="187" y="-6"/>
      <point x="343" y="-6" type="curve" smooth="yes"/>
      <point x="519" y="-6"/>
      <point x="625" y="38"/>
      <point x="667" y="302" type="curve" smooth="yes"/>
      <point x="736" y="738" type="line"/>
      <point x="612" y="738" type="line"/>
      <point x="546" y="320" type="line" smooth="yes"/>
      <point x="517" y="139"/>
      <point x="460" y="105"/>
      <point x="359" y="105" type="curve" smooth="yes"/>
      <point x="270" y="105"/>
      <point x="230" y="138"/>
      <point x="230" y="220" type="curve" smooth="yes"/>
      <point x="230" y="247"/>
      <point x="235" y="283"/>
      <point x="240" y="320" type="curve" smooth="yes"/>
      <point x="306" y="738" type="line"/>
      <point x="182" y="738" type="line"/>
    </contour>
    <contour>
      <point x="463" y="810" type="move" name="top"/>
    </contour>
    <contour>
      <point x="424" y="0" type="move" name="ogonek"/>
    </contour>
    <contour>
      <point x="311" y="-150" type="move" name="bottom"/>
    </contour>
  </outline>
</glyph>
<glyph name="X" format="1">
  <advance width="641"/>
  <unicode hex="0058"/>
  <note>
    GF Latin Plus glyph
  </note>
  <outline>
    <contour>
      <point x="24" y="0" type="line"/>
      <point x="163" y="0" type="line"/>
      <point x="380" y="292" type="line"/>
      <point x="331" y="400" type="line"/>
    </contour>
    <contour>
      <point x="379" y="437" type="line"/>
      <point x="427" y="332" type="line"/>
      <point x="743" y="738" type="line"/>
      <point x="604" y="738" type="line"/>
    </contour>
    <contour>
      <point x="335" y="325" type="line"/>
      <point x="486" y="0" type="line"/>
      <point x="621" y="0" type="line"/>
      <point x="428" y="406" type="line"/>
      <point x="274" y="738" type="line"/>
      <point x="138" y="738" type="line"/>
    </contour>
    <contour>
      <point x="448" y="810" type="move" name="top"/>
    </contour>
    <contour>
      <point x="296" y="-150" type="move" name="bottom"/>
    </contour>
  </outline>
</glyph>
<glyph name="Y" format="1">
  <advance width="631"/>
  <unicode hex="0059"/>
  <note>
    GF Latin Plus glyph
  </note>
  <outline>
    <contour>
      <point x="135" y="738" type="line"/>
      <point x="282" y="225" type="line"/>
      <point x="246" y="0" type="line"/>
      <point x="370" y="0" type="line"/>
      <point x="406" y="225" type="line"/>
      <point x="730" y="738" type="line"/>
      <point x="589" y="738" type="line"/>
      <point x="364" y="360" type="line"/>
      <point x="271" y="738" type="line"/>
    </contour>
    <contour>
      <point x="438" y="810" type="move" name="top"/>
    </contour>
    <contour>
      <point x="286" y="-150" type="move" name="bottom"/>
    </contour>
  </outline>
</glyph>
<glyph name="bracketright" format="1">
  <advance width="337"/>
  <unicode hex="005D"/>
  <note>
    GF Latin Plus glyph
  </note>
  <outline>
    <contour>
      <point x="0" y="-110" type="line"/>
      <point x="-15" y="-210" type="line"/>
      <point x="58" y="-210" type="line" smooth="yes"/>
      <point x="207" y="-210"/>
      <point x="248" y="-91"/>
      <point x="261" y="-9" type="curve" smooth="yes"/>
      <point x="365" y="652" type="line" smooth="yes"/>
      <point x="369" y="670"/>
      <point x="370" y="688"/>
      <point x="370" y="705" type="curve" smooth="yes"/>
      <point x="370" y="785"/>
      <point x="332" y="842"/>
      <point x="224" y="842" type="curve" smooth="yes"/>
      <point x="151" y="842" type="line"/>
      <point x="135" y="742" type="line"/>
      <point x="174" y="742" type="line" smooth="yes"/>
      <point x="215" y="742"/>
      <point x="242" y="722"/>
      <point x="242" y="669" type="curve" smooth="yes"/>
      <point x="242" y="659"/>
      <point x="241" y="648"/>
      <point x="239" y="635" type="curve" smooth="yes"/>
      <point x="138" y="-3" type="line" smooth="yes"/>
      <point x="127" y="-71"/>
      <point x="95" y="-110"/>
      <point x="38" y="-110" type="curve" smooth="yes"/>
    </contour>
  </outline>
</glyph>
<glyph name="a" format="1">
  <advance width="568"/>
  <unicode hex="0061"/>
  <note>
    GF Latin Plus glyph
  </note>
  <outline>
    <contour>
      <point x="208" y="276" type="curve" smooth="yes"/>
      <point x="226" y="386"/>
      <point x="264" y="442"/>
      <point x="362" y="442" type="curve" smooth="yes"/>
      <point x="404" y="442"/>
      <point x="439" y="429"/>
      <point x="453" y="421" type="curve"/>
      <point x="408" y="136" type="line"/>
      <point x="374" y="116"/>
      <point x="335" y="94"/>
      <point x="284" y="94" type="curve" smooth="yes"/>
      <point x="229" y="94"/>
      <point x="200" y="134"/>
      <point x="200" y="199" type="curve" smooth="yes"/>
      <point x="200" y="217"/>
      <point x="203" y="244"/>
    </contour>
    <contour>
      <point x="87" y="286" type="curve" smooth="yes"/>
      <point x="83" y="258"/>
      <point x="76" y="214"/>
      <point x="76" y="177" type="curve" smooth="yes"/>
      <point x="76" y="48"/>
      <point x="144" y="-6"/>
      <point x="226" y="-6" type="curve" smooth="yes"/>
      <point x="291" y="-6"/>
      <point x="367" y="31"/>
      <point x="396" y="55" type="curve"/>
      <point x="402" y="0" type="line"/>
      <point x="511" y="0" type="line"/>
      <point x="587" y="480" type="line"/>
      <point x="539" y="519"/>
      <point x="452" y="542"/>
      <point x="368" y="542" type="curve" smooth="yes"/>
      <point x="197" y="542"/>
      <point x="115" y="459"/>
    </contour>
    <contour>
      <point x="381" y="650" type="move" name="top"/>
    </contour>
    <contour>
      <point x="501" y="0" type="move" name="ogonek"/>
    </contour>
    <contour>
      <point x="255" y="-150" type="move" name="bottom"/>
    </contour>
  </outline>
</glyph>
<glyph name="c" format="1">
  <advance width="477"/>
  <unicode hex="0063"/>
  <note>
    GF Latin Plus glyph
  </note>
  <outline>
    <contour>
      <point x="88" y="289" type="curve" smooth="yes"/>
      <point x="82" y="252"/>
      <point x="79" y="218"/>
      <point x="79" y="194" type="curve" smooth="yes"/>
      <point x="79" y="39"/>
      <point x="155" y="-6"/>
      <point x="272" y="-6" type="curve" smooth="yes"/>
      <point x="349" y="-6"/>
      <point x="403" y="4"/>
      <point x="448" y="18" type="curve"/>
      <point x="459" y="88" type="line"/>
      <point x="311" y="88" type="line" smooth="yes"/>
      <point x="240" y="88"/>
      <point x="202" y="117"/>
      <point x="202" y="205" type="curve" smooth="yes"/>
      <point x="202" y="218"/>
      <point x="204" y="238"/>
      <point x="209" y="267" type="curve" smooth="yes"/>
      <point x="230" y="395"/>
      <point x="276" y="446"/>
      <point x="364" y="446" type="curve" smooth="yes"/>
      <point x="506" y="446" type="line"/>
      <point x="518" y="518" type="line"/>
      <point x="460" y="531"/>
      <point x="393" y="542"/>
      <point x="337" y="542" type="curve" smooth="yes"/>
      <point x="210" y="542"/>
      <point x="117" y="473"/>
    </contour>
    <contour>
      <point x="357" y="650" type="move" name="top"/>
    </contour>
    <contour>
      <point x="231" y="-150" type="move" name="bottom"/>
    </contour>
  </outline>
</glyph>
<glyph name="g" format="1">
  <advance width="573"/>
  <unicode hex="0067"/>
  <note>
    GF Latin Plus glyph
  </note>
  <outline>
    <contour>
      <point x="211" y="283" type="curve" smooth="yes"/>
      <point x="230" y="397"/>
      <point x="279" y="444"/>
      <point x="363" y="442" type="curve" smooth="yes"/>
      <point x="372" y="442"/>
      <point x="448" y="438"/>
      <point x="456" y="435" type="curve"/>
      <point x="409" y="136" type="line"/>
      <point x="365" y="110"/>
      <point x="327" y="94"/>
      <point x="281" y="94" type="curve" smooth="yes"/>
      <point x="234" y="94"/>
      <point x="201" y="126"/>
      <point x="201" y="196" type="curve" smooth="yes"/>
      <point x="201" y="221"/>
      <point x="204" y="242"/>
    </contour>
    <contour>
      <point x="41" y="-226" type="line"/>
      <point x="179" y="-234" type="line" smooth="yes"/>
      <point x="356" y="-248"/>
      <point x="479" y="-205"/>
      <point x="502" y="-60" type="curve" smooth="yes"/>
      <point x="593" y="513" type="line"/>
      <point x="548" y="526"/>
      <point x="467" y="542"/>
      <point x="369" y="542" type="curve" smooth="yes"/>
      <point x="219" y="542"/>
      <point x="119" y="478"/>
      <point x="90" y="297" type="curve" smooth="yes"/>
      <point x="84" y="258"/>
      <point x="78" y="209"/>
      <point x="78" y="175" type="curve" smooth="yes"/>
      <point x="78" y="72"/>
      <point x="129" y="-6"/>
      <point x="220" y="-6" type="curve" smooth="yes"/>
      <point x="277" y="-6"/>
      <point x="350" y="19"/>
      <point x="397" y="55" type="curve"/>
      <point x="381" y="-41" type="line" smooth="yes"/>
      <point x="369" y="-117"/>
      <point x="303" y="-140"/>
      <point x="221" y="-140" type="curve" smooth="yes"/>
      <point x="55" y="-140" type="line"/>
    </contour>
    <contour>
      <point x="381" y="650" type="move" name="top"/>
    </contour>
    <contour>
      <point x="211" y="-350" type="move" name="bottom"/>
    </contour>
  </outline>
</glyph>
<glyph name="j" format="1">
  <advance width="240"/>
  <unicode hex="006A"/>
  <note>
    GF Latin Plus glyph
  </note>
  <outline>
    <contour>
      <point x="157" y="639" type="line" smooth="yes"/>
      <point x="155" y="628"/>
      <point x="162" y="621"/>
      <point x="173" y="621" type="curve" smooth="yes"/>
      <point x="267" y="621" type="line" smooth="yes"/>
      <point x="278" y="621"/>
      <point x="285" y="627"/>
      <point x="287" y="639" type="curve" smooth="yes"/>
      <point x="301" y="730" type="line" smooth="yes"/>
      <point x="303" y="741"/>
      <point x="299" y="750"/>
      <point x="287" y="750" type="curve" smooth="yes"/>
      <point x="193" y="750" type="line" smooth="yes"/>
      <point x="180" y="750"/>
      <point x="173" y="742"/>
      <point x="171" y="730" type="curve" smooth="yes"/>
    </contour>
    <component base="jdotless" xOffset="-1"/>
  </outline>
</glyph>
<glyph name="k" format="1">
  <advance width="550"/>
  <unicode hex="006B"/>
  <note>
    GF Latin Plus glyph
  </note>
  <outline>
    <contour>
      <point x="59" y="0" type="line"/>
      <point x="183" y="0" type="line"/>
      <point x="221" y="244" type="line"/>
      <point x="240" y="244"/>
      <point x="271" y="248"/>
      <point x="293" y="254" type="curve"/>
      <point x="416" y="0" type="line"/>
      <point x="544" y="0" type="line"/>
      <point x="398" y="292" type="line"/>
      <point x="462" y="324"/>
      <point x="532" y="389"/>
      <point x="573" y="536" type="curve"/>
      <point x="450" y="536" type="line"/>
      <point x="414" y="407"/>
      <point x="339" y="350"/>
      <point x="236" y="338" type="curve"/>
      <point x="304" y="763" type="line"/>
      <point x="180" y="763" type="line"/>
    </contour>
    <contour>
      <point x="262" y="-150" type="move" name="bottom"/>
    </contour>
  </outline>
</glyph>
<glyph name="l" format="1">
  <advance width="312"/>
  <unicode hex="006C"/>
  <note>
    GF Latin Plus glyph
  </note>
  <outline>
    <contour>
      <point x="88" y="185" type="line" smooth="yes"/>
      <point x="85" y="164"/>
      <point x="83" y="141"/>
      <point x="83" y="115" type="curve" smooth="yes"/>
      <point x="83" y="45"/>
      <point x="133" y="0"/>
      <point x="231" y="0" type="curve" smooth="yes"/>
      <point x="293" y="0" type="line"/>
      <point x="308" y="89" type="line"/>
      <point x="265" y="95" type="line" smooth="yes"/>
      <point x="230" y="99"/>
      <point x="210" y="111"/>
      <point x="210" y="151" type="curve" smooth="yes"/>
      <point x="210" y="173"/>
      <point x="216" y="209"/>
      <point x="218" y="225" type="curve" smooth="yes"/>
      <point x="304" y="763" type="line"/>
      <point x="180" y="763" type="line"/>
    </contour>
    <contour>
      <point x="256" y="850" type="move" name="top"/>
    </contour>
    <contour>
      <point x="306" y="650" type="move" name="altcaron"/>
    </contour>
    <contour>
      <point x="307" y="371" type="move" name="dot"/>
    </contour>
    <contour>
      <point x="156" y="-150" type="move" name="bottom"/>
    </contour>
  </outline>
</glyph>
<glyph name="n" format="1">
  <advance width="585"/>
  <unicode hex="006E"/>
  <note>
    GF Latin Plus glyph
  </note>
  <outline>
    <contour>
      <point x="59" y="0" type="line"/>
      <point x="183" y="0" type="line"/>
      <point x="244" y="383" type="line"/>
      <point x="288" y="413"/>
      <point x="329" y="432"/>
      <point x="383" y="432" type="curve" smooth="yes"/>
      <point x="440" y="432"/>
      <point x="459" y="404"/>
      <point x="459" y="365" type="curve" smooth="yes"/>
      <point x="459" y="355"/>
      <point x="458" y="344"/>
      <point x="453" y="312" type="curve" smooth="yes"/>
      <point x="404" y="0" type="line"/>
      <point x="527" y="0" type="line"/>
      <point x="578" y="316" type="line" smooth="yes"/>
      <point x="588" y="380"/>
      <point x="588" y="400"/>
      <point x="588" y="420" type="curve" smooth="yes"/>
      <point x="588" y="491"/>
      <point x="544" y="543"/>
      <point x="452" y="543" type="curve" smooth="yes"/>
      <point x="376" y="543"/>
      <point x="309" y="515"/>
      <point x="258" y="480" type="curve"/>
      <point x="245" y="536" type="line"/>
      <point x="143" y="536" type="line"/>
    </contour>
    <contour>
      <point x="389" y="650" type="move" name="top"/>
    </contour>
    <contour>
      <point x="263" y="-150" type="move" name="bottom"/>
    </contour>
  </outline>
</glyph>
<glyph name="o" format="1">
  <advance width="571"/>
  <unicode hex="006F"/>
  <note>
    GF Latin Plus glyph
  </note>
  <outline>
    <contour>
      <point x="208" y="260" type="curve" smooth="yes"/>
      <point x="231" y="411"/>
      <point x="264" y="444"/>
      <point x="354" y="444" type="curve" smooth="yes"/>
      <point x="425" y="444"/>
      <point x="453" y="420"/>
      <point x="453" y="354" type="curve" smooth="yes"/>
      <point x="453" y="328"/>
      <point x="449" y="298"/>
      <point x="444" y="260" type="curve" smooth="yes"/>
      <point x="422" y="122"/>
      <point x="386" y="94"/>
      <point x="299" y="94" type="curve" smooth="yes"/>
      <point x="238" y="94"/>
      <point x="201" y="111"/>
      <point x="201" y="184" type="curve" smooth="yes"/>
      <point x="201" y="206"/>
      <point x="204" y="230"/>
    </contour>
    <contour>
      <point x="87" y="279" type="curve" smooth="yes"/>
      <point x="82" y="247"/>
      <point x="79" y="215"/>
      <point x="79" y="179" type="curve" smooth="yes"/>
      <point x="79" y="52"/>
      <point x="152" y="-6"/>
      <point x="285" y="-6" type="curve" smooth="yes"/>
      <point x="455" y="-6"/>
      <point x="536" y="45"/>
      <point x="567" y="242" type="curve" smooth="yes"/>
      <point x="573" y="281"/>
      <point x="576" y="317"/>
      <point x="576" y="349" type="curve" smooth="yes"/>
      <point x="576" y="479"/>
      <point x="533" y="542"/>
      <point x="371" y="542" type="curve" smooth="yes"/>
      <point x="200" y="542"/>
      <point x="121" y="494"/>
    </contour>
    <contour>
      <point x="378" y="650" type="move" name="top"/>
    </contour>
    <contour>
      <point x="361" y="0" type="move" name="ogonek"/>
    </contour>
    <contour>
      <point x="252" y="-150" type="move" name="bottom"/>
    </contour>
  </outline>
</glyph>
<glyph name="t" format="1">
  <advance width="400"/>
  <unicode hex="0074"/>
  <note>
    GF Latin Plus glyph
  </note>
  <outline>
    <contour>
      <point x="89" y="436" type="line"/>
      <point x="174" y="436" type="line"/>
      <point x="133" y="210" type="line" smooth="yes"/>
      <point x="127" y="174"/>
      <point x="124" y="144"/>
      <point x="124" y="119" type="curve" smooth="yes"/>
      <point x="124" y="39"/>
      <point x="175" y="0"/>
      <point x="276" y="0" type="curve" smooth="yes"/>
      <point x="353" y="0" type="line"/>
      <point x="368" y="91" type="line"/>
      <point x="306" y="97" type="line" smooth="yes"/>
      <point x="267" y="101"/>
      <point x="249" y="116"/>
      <point x="249" y="152" type="curve" smooth="yes"/>
      <point x="249" y="169"/>
      <point x="253" y="194"/>
      <point x="256" y="209" type="curve" smooth="yes"/>
      <point x="292" y="436" type="line"/>
      <point x="428" y="436" type="line"/>
      <point x="443" y="536" type="line"/>
      <point x="307" y="536" type="line"/>
      <point x="331" y="686" type="line"/>
      <point x="234" y="686" type="line"/>
      <point x="193" y="536" type="line"/>
      <point x="102" y="516" type="line"/>
    </contour>
    <contour>
      <point x="344" y="658" type="move" name="altcaron"/>
    </contour>
    <contour>
      <point x="294" y="750" type="move" name="top"/>
    </contour>
    <contour>
      <point x="224" y="-150" type="move" name="bottom"/>
    </contour>
  </outline>
</glyph>
<glyph name="x" format="1">
  <advance width="547"/>
  <unicode hex="0078"/>
  <note>
    GF Latin Plus glyph
  </note>
  <outline>
    <contour>
      <point x="15" y="0" type="line"/>
      <point x="143" y="0" type="line"/>
      <point x="305" y="189" type="line"/>
      <point x="271" y="302" type="line"/>
    </contour>
    <contour>
      <point x="313" y="327" type="line"/>
      <point x="357" y="226" type="line"/>
      <point x="610" y="536" type="line"/>
      <point x="476" y="536" type="line"/>
    </contour>
    <contour>
      <point x="273" y="227" type="line"/>
      <point x="404" y="0" type="line"/>
      <point x="532" y="0" type="line"/>
      <point x="364" y="290" type="line"/>
      <point x="220" y="536" type="line"/>
      <point x="93" y="536" type="line"/>
    </contour>
    <contour>
      <point x="369" y="650" type="move" name="top"/>
    </contour>
    <contour>
      <point x="243" y="-150" type="move" name="bottom"/>
    </contour>
  </outline>
</glyph>
<glyph name="z" format="1">
  <advance width="500"/>
  <unicode hex="007A"/>
  <note>
    GF Latin Plus glyph
  </note>
  <outline>
    <contour>
      <point x="45" y="0" type="line"/>
      <point x="461" y="0" type="line"/>
      <point x="461" y="0"/>
      <point x="478" y="99"/>
      <point x="477" y="100" type="curve"/>
      <point x="203" y="100" type="line"/>
      <point x="524" y="446" type="line"/>
      <point x="538" y="536" type="line"/>
      <point x="117" y="536" type="line"/>
      <point x="102" y="436" type="line"/>
      <point x="380" y="436" type="line"/>
      <point x="59" y="90" type="line"/>
    </contour>
    <contour>
      <point x="333" y="650" type="move" name="top"/>
    </contour>
    <contour>
      <point x="207" y="-150" type="move" name="bottom"/>
    </contour>
  </outline>
</glyph>
<glyph name="braceright" format="1">
  <advance width="315"/>
  <unicode hex="007D"/>
  <note>
    GF Latin Plus glyph
  </note>
  <outline>
    <contour>
      <point x="0" y="-116" type="curve"/>
      <point x="-15" y="-210" type="line"/>
      <point x="150" y="-210"/>
      <point x="202" y="-155"/>
      <point x="221" y="-38" type="curve" smooth="yes"/>
      <point x="258" y="195" type="line" smooth="yes"/>
      <point x="265" y="239"/>
      <point x="298" y="256"/>
      <point x="339" y="256" type="curve"/>
      <point x="357" y="371" type="line"/>
      <point x="327" y="374"/>
      <point x="293" y="384"/>
      <point x="293" y="421" type="curve" smooth="yes"/>
      <point x="293" y="444"/>
      <point x="333" y="685"/>
      <point x="333" y="702" type="curve" smooth="yes"/>
      <point x="333" y="788"/>
      <point x="281" y="842"/>
      <point x="152" y="842" type="curve"/>
      <point x="136" y="742" type="line"/>
      <point x="182" y="742"/>
      <point x="205" y="726"/>
      <point x="205" y="675" type="curve" smooth="yes"/>
      <point x="205" y="647"/>
      <point x="166" y="429"/>
      <point x="166" y="391" type="curve" smooth="yes"/>
      <point x="166" y="342"/>
      <point x="197" y="318"/>
      <point x="246" y="314" type="curve"/>
      <point x="184" y="304"/>
      <point x="146" y="270"/>
      <point x="138" y="219" type="curve" smooth="yes"/>
      <point x="99" y="-18" type="line" smooth="yes"/>
      <point x="89" y="-83"/>
      <point x="65" y="-116"/>
    </contour>
  </outline>
</glyph>
<glyph name="asciitilde" format="1">
  <advance width="432"/>
  <unicode hex="007E"/>
  <note>
    GF Latin Plus glyph
  </note>
  <outline>
    <contour>
      <point x="138" y="587" type="line"/>
      <point x="171" y="621"/>
      <point x="215" y="655"/>
      <point x="264" y="655" type="curve" smooth="yes"/>
      <point x="303" y="655"/>
      <point x="342" y="604"/>
      <point x="374" y="604" type="curve" smooth="yes"/>
      <point x="412" y="604"/>
      <point x="449" y="629"/>
      <point x="474" y="649" type="curve"/>
      <point x="484" y="603" type="line"/>
      <point x="452" y="570"/>
      <point x="411" y="535"/>
      <point x="364" y="535" type="curve" smooth="yes"/>
      <point x="321" y="535"/>
      <point x="288" y="586"/>
      <point x="252" y="586" type="curve" smooth="yes"/>
      <point x="213" y="586"/>
      <point x="185" y="569"/>
      <point x="148" y="545" type="curve"/>
    </contour>
  </outline>
</glyph>
<glyph name="sterling" format="1">
  <advance width="609"/>
  <unicode hex="00A3"/>
  <note>
    GF Latin Plus glyph
  </note>
  <outline>
    <contour>
      <point x="60" y="0" type="line"/>
      <point x="554" y="0" type="line"/>
      <point x="571" y="111" type="line"/>
      <point x="300" y="111" type="line"/>
      <point x="333" y="322" type="line"/>
      <point x="528" y="331" type="line"/>
      <point x="539" y="399" type="line"/>
      <point x="348" y="411" type="line"/>
      <point x="364" y="517" type="line" smooth="yes"/>
      <point x="379" y="610"/>
      <point x="418" y="631"/>
      <point x="494" y="631" type="curve" smooth="yes"/>
      <point x="647" y="631" type="line"/>
      <point x="662" y="730" type="line"/>
      <point x="627" y="735"/>
      <point x="570" y="742"/>
      <point x="507" y="742" type="curve" smooth="yes"/>
      <point x="353" y="742"/>
      <point x="266" y="682"/>
      <point x="238" y="504" type="curve" smooth="yes"/>
      <point x="224" y="411" type="line"/>
      <point x="122" y="393" type="line"/>
      <point x="112" y="331" type="line"/>
      <point x="209" y="322" type="line"/>
      <point x="176" y="111" type="line"/>
      <point x="75" y="94" type="line"/>
    </contour>
  </outline>
</glyph>
<glyph name="currency" format="1">
  <advance width="609"/>
  <unicode hex="00A4"/>
  <note>
    GF Latin Plus glyph
  </note>
  <outline>
    <contour>
      <point x="384" y="529" type="curve" smooth="yes"/>
      <point x="272" y="529"/>
      <point x="187" y="439"/>
      <point x="187" y="334" type="curve" smooth="yes"/>
      <point x="187" y="252"/>
      <point x="253" y="183"/>
      <point x="338" y="183" type="curve" smooth="yes"/>
      <point x="450" y="183"/>
      <point x="536" y="273"/>
      <point x="536" y="378" type="curve" smooth="yes"/>
      <point x="536" y="460"/>
      <point x="469" y="529"/>
    </contour>
    <contour>
      <point x="304" y="487" type="line"/>
      <point x="216" y="591" type="line"/>
      <point x="155" y="538" type="line"/>
      <point x="242" y="434" type="line"/>
    </contour>
    <contour>
      <point x="502" y="432" type="line"/>
      <point x="625" y="538" type="line"/>
      <point x="580" y="591" type="line"/>
      <point x="458" y="485" type="line"/>
    </contour>
    <contour>
      <point x="567" y="174" type="line"/>
      <point x="478" y="280" type="line"/>
      <point x="417" y="227" type="line"/>
      <point x="506" y="121" type="line"/>
    </contour>
    <contour>
      <point x="142" y="121" type="line"/>
      <point x="270" y="229" type="line"/>
      <point x="222" y="282" type="line"/>
      <point x="97" y="174" type="line"/>
    </contour>
    <contour>
      <point x="378" y="464" type="curve" smooth="yes"/>
      <point x="431" y="464"/>
      <point x="470" y="424"/>
      <point x="470" y="372" type="curve" smooth="yes"/>
      <point x="470" y="293"/>
      <point x="414" y="248"/>
      <point x="344" y="248" type="curve" smooth="yes"/>
      <point x="292" y="248"/>
      <point x="254" y="289"/>
      <point x="254" y="340" type="curve" smooth="yes"/>
      <point x="254" y="416"/>
      <point x="310" y="464"/>
    </contour>
  </outline>
</glyph>
<glyph name="section" format="1">
  <advance width="543"/>
  <unicode hex="00A7"/>
  <note>
    GF Latin Plus glyph
  </note>
  <outline>
    <contour>
      <point x="221" y="365" type="curve" smooth="yes"/>
      <point x="228" y="406" type="line" smooth="yes"/>
      <point x="233" y="445"/>
      <point x="253" y="457"/>
      <point x="304" y="457" type="curve" smooth="yes"/>
      <point x="391" y="457" type="line" smooth="yes"/>
      <point x="433" y="457"/>
      <point x="448" y="449"/>
      <point x="448" y="423" type="curve" smooth="yes"/>
      <point x="448" y="419"/>
      <point x="447" y="414"/>
      <point x="447" y="408" type="curve" smooth="yes"/>
      <point x="439" y="366" type="line" smooth="yes"/>
      <point x="433" y="321"/>
      <point x="419" y="316"/>
      <point x="361" y="316" type="curve" smooth="yes"/>
      <point x="281" y="316" type="line" smooth="yes"/>
      <point x="237" y="316"/>
      <point x="220" y="330"/>
      <point x="220" y="354" type="curve" smooth="yes"/>
      <point x="220" y="357"/>
      <point x="221" y="361"/>
    </contour>
    <contour>
      <point x="99" y="341" type="line" smooth="yes"/>
      <point x="97" y="328"/>
      <point x="96" y="318"/>
      <point x="96" y="310" type="curve" smooth="yes"/>
      <point x="96" y="246"/>
      <point x="147" y="223"/>
      <point x="238" y="223" type="curve" smooth="yes"/>
      <point x="346" y="223" type="line" smooth="yes"/>
      <point x="390" y="223"/>
      <point x="402" y="217"/>
      <point x="402" y="198" type="curve" smooth="yes"/>
      <point x="402" y="192"/>
      <point x="399" y="176"/>
      <point x="394" y="143" type="curve" smooth="yes"/>
      <point x="389" y="113"/>
      <point x="373" y="94"/>
      <point x="305" y="94" type="curve" smooth="yes"/>
      <point x="100" y="94" type="line"/>
      <point x="87" y="6" type="line"/>
      <point x="142" y="-3"/>
      <point x="250" y="-6"/>
      <point x="314" y="-6" type="curve" smooth="yes"/>
      <point x="423" y="-6"/>
      <point x="497" y="28"/>
      <point x="514" y="139" type="curve" smooth="yes"/>
      <point x="522" y="186" type="line" smooth="yes"/>
      <point x="525" y="205"/>
      <point x="526" y="215"/>
      <point x="526" y="226" type="curve" smooth="yes"/>
      <point x="526" y="260"/>
      <point x="513" y="284"/>
      <point x="479" y="295" type="curve"/>
      <point x="529" y="310"/>
      <point x="554" y="343"/>
      <point x="562" y="392" type="curve" smooth="yes"/>
      <point x="569" y="436" type="line" smooth="yes"/>
      <point x="571" y="447"/>
      <point x="572" y="457"/>
      <point x="572" y="466" type="curve" smooth="yes"/>
      <point x="572" y="528"/>
      <point x="529" y="551"/>
      <point x="435" y="551" type="curve" smooth="yes"/>
      <point x="320" y="551" type="line" smooth="yes"/>
      <point x="282" y="551"/>
      <point x="266" y="558"/>
      <point x="266" y="583" type="curve" smooth="yes"/>
      <point x="266" y="588"/>
      <point x="267" y="600"/>
      <point x="272" y="628" type="curve" smooth="yes"/>
      <point x="280" y="673"/>
      <point x="306" y="684"/>
      <point x="354" y="684" type="curve" smooth="yes"/>
      <point x="567" y="684" type="line"/>
      <point x="580" y="770" type="line"/>
      <point x="532" y="780"/>
      <point x="411" y="784"/>
      <point x="352" y="784" type="curve" smooth="yes"/>
      <point x="230" y="784"/>
      <point x="172" y="734"/>
      <point x="157" y="647" type="curve" smooth="yes"/>
      <point x="148" y="594" type="line" smooth="yes"/>
      <point x="146" y="579"/>
      <point x="146" y="568"/>
      <point x="146" y="557" type="curve" smooth="yes"/>
      <point x="146" y="522"/>
      <point x="157" y="495"/>
      <point x="191" y="478" type="curve"/>
      <point x="141" y="463"/>
      <point x="115" y="440"/>
      <point x="105" y="380" type="curve" smooth="yes"/>
    </contour>
  </outline>
</glyph>
<glyph name="copyright" format="1">
  <advance width="822"/>
  <unicode hex="00A9"/>
  <note>
    GF Latin Plus glyph
  </note>
  <outline>
    <contour>
      <point x="276" y="291" type="curve" smooth="yes"/>
      <point x="276" y="176"/>
      <point x="334" y="147"/>
      <point x="403" y="147" type="curve" smooth="yes"/>
      <point x="468" y="147"/>
      <point x="526" y="149"/>
      <point x="586" y="172" type="curve"/>
      <point x="595" y="230" type="line"/>
      <point x="552" y="221"/>
      <point x="497" y="214"/>
      <point x="436" y="214" type="curve" smooth="yes"/>
      <point x="377" y="214"/>
      <point x="351" y="243"/>
      <point x="351" y="307" type="curve" smooth="yes"/>
      <point x="351" y="412"/>
      <point x="400" y="516"/>
      <point x="486" y="516" type="curve" smooth="yes"/>
      <point x="516" y="516"/>
      <point x="576" y="513"/>
      <point x="632" y="504" type="curve"/>
      <point x="642" y="562" type="line"/>
      <point x="590" y="578"/>
      <point x="511" y="583"/>
      <point x="472" y="583" type="curve" smooth="yes"/>
      <point x="362" y="583"/>
      <point x="276" y="443"/>
    </contour>
    <contour>
      <point x="416" y="665" type="curve" smooth="yes"/>
      <point x="639" y="665" type="line" smooth="yes"/>
      <point x="739" y="665"/>
      <point x="776" y="589"/>
      <point x="776" y="490" type="curve" smooth="yes"/>
      <point x="776" y="251"/>
      <point x="661" y="67"/>
      <point x="538" y="67" type="curve" smooth="yes"/>
      <point x="321" y="67" type="line" smooth="yes"/>
      <point x="212" y="67"/>
      <point x="166" y="160"/>
      <point x="166" y="277" type="curve" smooth="yes"/>
      <point x="166" y="486"/>
      <point x="277" y="665"/>
    </contour>
    <contour>
      <point x="98" y="267" type="curve" smooth="yes"/>
      <point x="98" y="121"/>
      <point x="174" y="0"/>
      <point x="329" y="0" type="curve" smooth="yes"/>
      <point x="534" y="0" type="line" smooth="yes"/>
      <point x="707" y="0"/>
      <point x="845" y="242"/>
      <point x="845" y="500" type="curve" smooth="yes"/>
      <point x="845" y="633"/>
      <point x="778" y="732"/>
      <point x="632" y="732" type="curve" smooth="yes"/>
      <point x="427" y="732" type="line" smooth="yes"/>
      <point x="204" y="732"/>
      <point x="98" y="483"/>
    </contour>
  </outline>
</glyph>
<glyph name="degree" format="1">
  <advance width="322"/>
  <unicode hex="00B0"/>
  <note>
    GF Latin Plus glyph
  </note>
  <outline>
    <contour>
      <point x="274" y="710" type="curve" smooth="yes"/>
      <point x="317" y="710"/>
      <point x="344" y="683"/>
      <point x="344" y="643" type="curve" smooth="yes"/>
      <point x="344" y="584"/>
      <point x="304" y="543"/>
      <point x="248" y="543" type="curve" smooth="yes"/>
      <point x="204" y="543"/>
      <point x="176" y="570"/>
      <point x="176" y="611" type="curve" smooth="yes"/>
      <point x="176" y="668"/>
      <point x="217" y="710"/>
    </contour>
    <contour>
      <point x="119" y="606" type="curve" smooth="yes"/>
      <point x="119" y="535"/>
      <point x="167" y="486"/>
      <point x="239" y="486" type="curve" smooth="yes"/>
      <point x="347" y="486"/>
      <point x="401" y="559"/>
      <point x="401" y="647" type="curve" smooth="yes"/>
      <point x="401" y="719"/>
      <point x="356" y="767"/>
      <point x="284" y="767" type="curve" smooth="yes"/>
      <point x="177" y="767"/>
      <point x="119" y="692"/>
    </contour>
  </outline>
</glyph>
<glyph name="twosuperior" format="1">
  <advance width="417"/>
  <unicode hex="00B2"/>
  <outline>
    <contour>
      <point x="175" y="754" type="line"/>
      <point x="309" y="754" type="line" smooth="yes"/>
      <point x="357" y="754"/>
      <point x="373" y="739"/>
      <point x="373" y="712" type="curve" smooth="yes"/>
      <point x="373" y="682"/>
      <point x="350" y="641"/>
      <point x="297" y="595" type="curve" smooth="yes"/>
      <point x="112" y="433" type="line"/>
      <point x="100" y="355" type="line"/>
      <point x="434" y="355" type="line"/>
      <point x="448" y="443" type="line"/>
      <point x="248" y="443" type="line"/>
      <point x="366" y="545" type="line" smooth="yes"/>
      <point x="451" y="620"/>
      <point x="479" y="681"/>
      <point x="479" y="748" type="curve" smooth="yes"/>
      <point x="479" y="810"/>
      <point x="443" y="846"/>
      <point x="344" y="846" type="curve" smooth="yes"/>
      <point x="282" y="846"/>
      <point x="230" y="837"/>
      <point x="187" y="830" type="curve"/>
    </contour>
  </outline>
</glyph>
<glyph name="threesuperior" format="1">
  <advance width="417"/>
  <unicode hex="00B3"/>
  <outline>
    <contour>
      <point x="169" y="754" type="line"/>
      <point x="308" y="754" type="line" smooth="yes"/>
      <point x="357" y="754"/>
      <point x="378" y="740"/>
      <point x="378" y="716" type="curve" smooth="yes"/>
      <point x="378" y="713"/>
      <point x="378" y="709"/>
      <point x="378" y="706" type="curve" smooth="yes"/>
      <point x="374" y="685" type="line" smooth="yes"/>
      <point x="369" y="657"/>
      <point x="344" y="646"/>
      <point x="304" y="644" type="curve" smooth="yes"/>
      <point x="185" y="637" type="line"/>
      <point x="173" y="562" type="line"/>
      <point x="295" y="557" type="line" smooth="yes"/>
      <point x="327" y="556"/>
      <point x="353" y="546"/>
      <point x="353" y="518" type="curve" smooth="yes"/>
      <point x="353" y="515"/>
      <point x="353" y="512"/>
      <point x="352" y="508" type="curve" smooth="yes"/>
      <point x="349" y="488" type="line" smooth="yes"/>
      <point x="344" y="453"/>
      <point x="317" y="443"/>
      <point x="263" y="443" type="curve" smooth="yes"/>
      <point x="110" y="443" type="line"/>
      <point x="97" y="365" type="line"/>
      <point x="148" y="357"/>
      <point x="214" y="351"/>
      <point x="286" y="351" type="curve" smooth="yes"/>
      <point x="374" y="351"/>
      <point x="433" y="391"/>
      <point x="445" y="468" type="curve" smooth="yes"/>
      <point x="450" y="495" type="line" smooth="yes"/>
      <point x="451" y="505"/>
      <point x="452" y="513"/>
      <point x="452" y="521" type="curve" smooth="yes"/>
      <point x="452" y="565"/>
      <point x="427" y="591"/>
      <point x="397" y="600" type="curve"/>
      <point x="434" y="611"/>
      <point x="466" y="638"/>
      <point x="474" y="689" type="curve" smooth="yes"/>
      <point x="480" y="726" type="line" smooth="yes"/>
      <point x="481" y="735"/>
      <point x="482" y="744"/>
      <point x="482" y="751" type="curve" smooth="yes"/>
      <point x="481" y="813"/>
      <point x="439" y="846"/>
      <point x="363" y="846" type="curve" smooth="yes"/>
      <point x="297" y="846"/>
      <point x="238" y="840"/>
      <point x="182" y="831" type="curve"/>
    </contour>
  </outline>
</glyph>
<glyph name="periodcentered" format="1">
  <advance width="266"/>
  <unicode hex="00B7"/>
  <note>
    GF Latin Plus glyph
  </note>
  <outline>
    <contour>
      <point x="116" y="348" type="line" smooth="yes"/>
      <point x="114" y="337"/>
      <point x="121" y="329"/>
      <point x="132" y="329" type="curve" smooth="yes"/>
      <point x="203" y="329" type="line" smooth="yes"/>
      <point x="214" y="329"/>
      <point x="223" y="334"/>
      <point x="225" y="348" type="curve" smooth="yes"/>
      <point x="237" y="421" type="line" smooth="yes"/>
      <point x="239" y="434"/>
      <point x="235" y="441"/>
      <point x="221" y="441" type="curve" smooth="yes"/>
      <point x="150" y="441" type="line" smooth="yes"/>
      <point x="137" y="441"/>
      <point x="129" y="434"/>
      <point x="127" y="421" type="curve" smooth="yes"/>
    </contour>
  </outline>
</glyph>
<glyph name="cedilla" format="1">
  <advance width="250"/>
  <unicode hex="00B8"/>
  <note>
    GF Latin Plus glyph
  </note>
  <outline>
    <contour>
      <point x="22" y="-144" type="line"/>
      <point x="14" y="-195" type="line"/>
      <point x="57" y="-195" type="line" smooth="yes"/>
      <point x="137" y="-195"/>
      <point x="173" y="-150"/>
      <point x="173" y="-110" type="curve" smooth="yes"/>
      <point x="173" y="-69"/>
      <point x="144" y="-52"/>
      <point x="99" y="-52" type="curve"/>
      <point x="47" y="-64" type="line"/>
      <point x="84" y="-68"/>
      <point x="94" y="-81"/>
      <point x="94" y="-97" type="curve" smooth="yes"/>
      <point x="94" y="-113"/>
      <point x="79" y="-137"/>
      <point x="42" y="-142" type="curve" smooth="yes"/>
    </contour>
    <contour>
      <point x="168" y="16" type="line"/>
      <point x="111" y="16" type="line"/>
      <point x="47" y="-64" type="line"/>
      <point x="103" y="-64" type="line"/>
    </contour>
  </outline>
</glyph>
<glyph name="onesuperior" format="1">
  <advance width="417"/>
  <unicode hex="00B9"/>
  <outline>
    <contour>
      <point x="128" y="443" type="line"/>
      <point x="114" y="355" type="line"/>
      <point x="431" y="355" type="line"/>
      <point x="445" y="443" type="line"/>
    </contour>
    <contour>
      <point x="182" y="742" type="line"/>
      <point x="287" y="758" type="line"/>
      <point x="223" y="355" type="line"/>
      <point x="322" y="355" type="line"/>
      <point x="400" y="846" type="line"/>
      <point x="311" y="846" type="line"/>
      <point x="192" y="805" type="line"/>
    </contour>
  </outline>
</glyph>
<glyph name="AE" format="1">
  <advance width="964"/>
  <unicode hex="00C6"/>
  <note>
    GF Latin Plus glyph
  </note>
  <outline>
    <contour>
      <point x="345" y="279" type="line"/>
      <point x="562" y="582" type="line"/>
      <point x="514" y="279" type="line"/>
    </contour>
    <contour>
      <point x="16" y="0" type="line"/>
      <point x="139" y="0" type="line"/>
      <point x="272" y="173" type="line"/>
      <point x="497" y="173" type="line"/>
      <point x="489" y="110" type="line" smooth="yes"/>
      <point x="481" y="16"/>
      <point x="545" y="-6"/>
      <point x="641" y="-5" type="curve" smooth="yes"/>
      <point x="641" y="-5"/>
      <point x="861" y="1"/>
      <point x="923" y="9" type="curve"/>
      <point x="939" y="111" type="line"/>
      <point x="688" y="111" type="line" smooth="yes"/>
      <point x="648" y="111"/>
      <point x="599" y="116"/>
      <point x="611" y="185" type="curve" smooth="yes"/>
      <point x="631" y="312" type="line"/>
      <point x="926" y="319" type="line"/>
      <point x="942" y="416" type="line"/>
      <point x="649" y="423" type="line"/>
      <point x="666" y="536" type="line" smooth="yes"/>
      <point x="676" y="597"/>
      <point x="679" y="624"/>
      <point x="758" y="624" type="curve" smooth="yes"/>
      <point x="1020" y="624" type="line"/>
      <point x="1037" y="727" type="line"/>
      <point x="970" y="733"/>
      <point x="793" y="738"/>
      <point x="752" y="738" type="curve" smooth="yes"/>
      <point x="626" y="739"/>
      <point x="523" y="704"/>
      <point x="427" y="568" type="curve" smooth="yes"/>
    </contour>
    <contour>
      <point x="651" y="810" type="move" name="top"/>
    </contour>
  </outline>
</glyph>
<glyph name="Thorn" format="1">
  <advance width="563"/>
  <unicode hex="00DE"/>
  <note>
    GF Latin Plus glyph
  </note>
  <outline>
    <contour>
      <point x="306" y="738" type="line"/>
      <point x="182" y="738" type="line"/>
      <point x="65" y="0" type="line"/>
      <point x="189" y="0" type="line"/>
    </contour>
    <contour>
      <point x="233" y="497" type="line"/>
      <point x="376" y="497" type="line" smooth="yes"/>
      <point x="435" y="497"/>
      <point x="468" y="476"/>
      <point x="468" y="418" type="curve" smooth="yes"/>
      <point x="468" y="408"/>
      <point x="466" y="386"/>
      <point x="463" y="368" type="curve" smooth="yes"/>
      <point x="451" y="291"/>
      <point x="400" y="260"/>
      <point x="338" y="260" type="curve" smooth="yes"/>
      <point x="202" y="260" type="line"/>
      <point x="187" y="166" type="line"/>
      <point x="237" y="158"/>
      <point x="295" y="148"/>
      <point x="354" y="148" type="curve" smooth="yes"/>
      <point x="452" y="148"/>
      <point x="561" y="194"/>
      <point x="586" y="355" type="curve" smooth="yes"/>
      <point x="590" y="378"/>
      <point x="594" y="411"/>
      <point x="594" y="430" type="curve" smooth="yes"/>
      <point x="594" y="568"/>
      <point x="509" y="608"/>
      <point x="400" y="608" type="curve" smooth="yes"/>
      <point x="250" y="608" type="line"/>
    </contour>
  </outline>
</glyph>
<glyph name="germandbls" format="1">
  <advance width="598"/>
  <unicode hex="00DF"/>
  <note>
    GF Latin Plus glyph
  </note>
  <outline>
    <contour>
      <point x="53" y="0" type="line"/>
      <point x="177" y="0" type="line"/>
      <point x="257" y="504" type="line" smooth="yes"/>
      <point x="275" y="618"/>
      <point x="316" y="659"/>
      <point x="393" y="659" type="curve" smooth="yes"/>
      <point x="452" y="659"/>
      <point x="489" y="632"/>
      <point x="489" y="583" type="curve" smooth="yes"/>
      <point x="489" y="499"/>
      <point x="348" y="433"/>
      <point x="348" y="332" type="curve" smooth="yes"/>
      <point x="348" y="231"/>
      <point x="475" y="230"/>
      <point x="475" y="170" type="curve" smooth="yes"/>
      <point x="475" y="164"/>
      <point x="474" y="155"/>
      <point x="472" y="142" type="curve" smooth="yes"/>
      <point x="468" y="118"/>
      <point x="450" y="88"/>
      <point x="383" y="88" type="curve" smooth="yes"/>
      <point x="340" y="88"/>
      <point x="299" y="89"/>
      <point x="259" y="92" type="curve"/>
      <point x="247" y="9" type="line"/>
      <point x="277" y="0"/>
      <point x="337" y="-6"/>
      <point x="398" y="-6" type="curve" smooth="yes"/>
      <point x="476" y="-6"/>
      <point x="570" y="23"/>
      <point x="588" y="134" type="curve" smooth="yes"/>
      <point x="596" y="178"/>
      <point x="596" y="189"/>
      <point x="596" y="197" type="curve" smooth="yes"/>
      <point x="596" y="299"/>
      <point x="472" y="307"/>
      <point x="472" y="367" type="curve" smooth="yes"/>
      <point x="472" y="432"/>
      <point x="603" y="487"/>
      <point x="603" y="603" type="curve" smooth="yes"/>
      <point x="603" y="689"/>
      <point x="547" y="769"/>
      <point x="404" y="769" type="curve" smooth="yes"/>
      <point x="247" y="769"/>
      <point x="161" y="683"/>
      <point x="142" y="557" type="curve" smooth="yes"/>
    </contour>
  </outline>
</glyph>
<glyph name="eth" format="1">
  <advance width="571"/>
  <unicode hex="00F0"/>
  <note>
    GF Latin Plus glyph
  </note>
  <outline>
    <contour>
      <point x="85" y="267" type="curve" smooth="yes"/>
      <point x="81" y="238"/>
      <point x="79" y="210"/>
      <point x="79" y="179" type="curve" smooth="yes"/>
      <point x="79" y="52"/>
      <point x="152" y="-6"/>
      <point x="285" y="-6" type="curve" smooth="yes"/>
      <point x="455" y="-6"/>
      <point x="537" y="45"/>
      <point x="567" y="242" type="curve" smooth="yes"/>
      <point x="570" y="258"/>
      <point x="525" y="354"/>
      <point x="525" y="367" type="curve" smooth="yes"/>
      <point x="525" y="466"/>
      <point x="451" y="530"/>
      <point x="341" y="530" type="curve" smooth="yes"/>
      <point x="193" y="530"/>
      <point x="119" y="482"/>
    </contour>
    <contour>
      <point x="206" y="249" type="curve" smooth="yes"/>
      <point x="229" y="399"/>
      <point x="262" y="432"/>
      <point x="352" y="432" type="curve" smooth="yes"/>
      <point x="422" y="432"/>
      <point x="452" y="409"/>
      <point x="452" y="347" type="curve" smooth="yes"/>
      <point x="452" y="323"/>
      <point x="449" y="295"/>
      <point x="444" y="260" type="curve" smooth="yes"/>
      <point x="422" y="122"/>
      <point x="386" y="94"/>
      <point x="299" y="94" type="curve" smooth="yes"/>
      <point x="238" y="94"/>
      <point x="201" y="111"/>
      <point x="201" y="184" type="curve" smooth="yes"/>
      <point x="201" y="203"/>
      <point x="203" y="223"/>
    </contour>
    <contour>
      <point x="218" y="681" type="line"/>
      <point x="395" y="680"/>
      <point x="485" y="626"/>
      <point x="485" y="451" type="curve" smooth="yes"/>
      <point x="485" y="411"/>
      <point x="481" y="364"/>
      <point x="473" y="312" type="curve"/>
      <point x="568" y="248" type="line"/>
      <point x="580" y="323"/>
      <point x="586" y="389"/>
      <point x="586" y="447" type="curve" smooth="yes"/>
      <point x="586" y="674"/>
      <point x="465" y="762"/>
      <point x="232" y="763" type="curve"/>
    </contour>
    <contour>
      <point x="241" y="615" type="line"/>
      <point x="253" y="574" type="line"/>
      <point x="619" y="719" type="line"/>
      <point x="609" y="759" type="line"/>
    </contour>
  </outline>
</glyph>
<glyph name="divide" format="1">
  <advance width="609"/>
  <unicode hex="00F7"/>
  <note>
    GF Latin Plus glyph
  </note>
  <outline>
    <contour>
      <point x="330" y="524" type="line" smooth="yes"/>
      <point x="327" y="510"/>
      <point x="336" y="501"/>
      <point x="350" y="501" type="curve" smooth="yes"/>
      <point x="421" y="501" type="line" smooth="yes"/>
      <point x="435" y="501"/>
      <point x="446" y="506"/>
      <point x="449" y="524" type="curve" smooth="yes"/>
      <point x="460" y="592" type="line" smooth="yes"/>
      <point x="462" y="608"/>
      <point x="457" y="617"/>
      <point x="439" y="617" type="curve" smooth="yes"/>
      <point x="369" y="617" type="line" smooth="yes"/>
      <point x="353" y="617"/>
      <point x="343" y="607"/>
      <point x="341" y="592" type="curve" smooth="yes"/>
    </contour>
    <contour>
      <point x="265" y="118" type="line" smooth="yes"/>
      <point x="263" y="104"/>
      <point x="271" y="95"/>
      <point x="285" y="95" type="curve" smooth="yes"/>
      <point x="356" y="95" type="line" smooth="yes"/>
      <point x="370" y="95"/>
      <point x="382" y="100"/>
      <point x="385" y="118" type="curve" smooth="yes"/>
      <point x="395" y="186" type="line" smooth="yes"/>
      <point x="398" y="202"/>
      <point x="392" y="211"/>
      <point x="374" y="211" type="curve" smooth="yes"/>
      <point x="304" y="211" type="line" smooth="yes"/>
      <point x="288" y="211"/>
      <point x="279" y="201"/>
      <point x="276" y="186" type="curve" smooth="yes"/>
    </contour>
    <component base="minus"/>
  </outline>
</glyph>
<glyph name="lslash" format="1">
  <advance width="312"/>
  <unicode hex="0142"/>
  <note>
    GF Latin Plus glyph
  </note>
  <outline>
    <contour>
      <point x="50" y="345" type="line"/>
      <point x="120" y="370" type="line"/>
      <point x="247" y="410" type="line"/>
      <point x="347" y="445" type="line"/>
      <point x="358" y="513" type="line"/>
      <point x="258" y="478" type="line"/>
      <point x="131" y="438" type="line"/>
      <point x="61" y="413" type="line"/>
    </contour>
    <component base="l"/>
  </outline>
</glyph>
<glyph name="Eng" format="1">
  <advance width="684"/>
  <unicode hex="014A"/>
  <note>
    GF Latin Plus glyph
  </note>
  <outline>
    <contour>
      <point x="280" y="-222" type="line"/>
      <point x="308" y="-233"/>
      <point x="353" y="-243"/>
      <point x="396" y="-243" type="curve" smooth="yes"/>
      <point x="528" y="-243"/>
      <point x="596" y="-185"/>
      <point x="615" y="-61" type="curve" smooth="yes"/>
      <point x="632" y="49" type="line"/>
      <point x="509" y="49" type="line"/>
      <point x="494" y="-43" type="line" smooth="yes"/>
      <point x="483" y="-109"/>
      <point x="447" y="-132"/>
      <point x="390" y="-132" type="curve" smooth="yes"/>
      <point x="378" y="-132"/>
      <point x="307" y="-128"/>
      <point x="296" y="-124" type="curve"/>
    </contour>
    <component base="N"/>
  </outline>
</glyph>
<glyph name="oe" format="1">
  <advance width="909"/>
  <unicode hex="0153"/>
  <note>
    GF Latin Plus glyph
  </note>
  <outline>
    <contour>
      <point x="859" y="13" type="curve"/>
      <point x="870" y="86" type="line"/>
      <point x="702" y="86" type="line" smooth="yes"/>
      <point x="605" y="86"/>
      <point x="562" y="113"/>
      <point x="562" y="176" type="curve" smooth="yes"/>
      <point x="562" y="190"/>
      <point x="563" y="207"/>
      <point x="565" y="221" type="curve"/>
      <point x="589" y="215"/>
      <point x="635" y="209"/>
      <point x="689" y="209" type="curve" smooth="yes"/>
      <point x="815" y="209"/>
      <point x="928" y="240"/>
      <point x="928" y="388" type="curve" smooth="yes"/>
      <point x="928" y="511"/>
      <point x="838" y="543"/>
      <point x="734" y="543" type="curve" smooth="yes"/>
      <point x="640" y="543"/>
      <point x="579" y="508"/>
      <point x="535" y="437" type="curve"/>
      <point x="506" y="505"/>
      <point x="454" y="542"/>
      <point x="365" y="542" type="curve" smooth="yes"/>
      <point x="200" y="542"/>
      <point x="121" y="494"/>
      <point x="87" y="279" type="curve" smooth="yes"/>
      <point x="82" y="246"/>
      <point x="79" y="215"/>
      <point x="79" y="179" type="curve" smooth="yes"/>
      <point x="79" y="52"/>
      <point x="150" y="-6"/>
      <point x="279" y="-6" type="curve" smooth="yes"/>
      <point x="382" y="-6"/>
      <point x="440" y="29"/>
      <point x="488" y="91" type="curve"/>
      <point x="512" y="27"/>
      <point x="567" y="-6"/>
      <point x="674" y="-6" type="curve" smooth="yes"/>
      <point x="737" y="-6"/>
      <point x="811" y="4"/>
    </contour>
    <contour>
      <point x="573" y="287" type="curve"/>
      <point x="589" y="390"/>
      <point x="627" y="448"/>
      <point x="719" y="448" type="curve" smooth="yes"/>
      <point x="781" y="448"/>
      <point x="812" y="426"/>
      <point x="812" y="375" type="curve" smooth="yes"/>
      <point x="812" y="304"/>
      <point x="759" y="280"/>
      <point x="655" y="280" type="curve" smooth="yes"/>
      <point x="626" y="280"/>
      <point x="595" y="283"/>
    </contour>
    <contour>
      <point x="208" y="260" type="curve" smooth="yes"/>
      <point x="231" y="411"/>
      <point x="263" y="444"/>
      <point x="354" y="444" type="curve" smooth="yes"/>
      <point x="425" y="444"/>
      <point x="453" y="420"/>
      <point x="453" y="354" type="curve" smooth="yes"/>
      <point x="453" y="328"/>
      <point x="449" y="298"/>
      <point x="444" y="260" type="curve" smooth="yes"/>
      <point x="422" y="122"/>
      <point x="382" y="94"/>
      <point x="299" y="94" type="curve" smooth="yes"/>
      <point x="238" y="94"/>
      <point x="201" y="113"/>
      <point x="201" y="184" type="curve" smooth="yes"/>
      <point x="201" y="206"/>
      <point x="204" y="230"/>
    </contour>
  </outline>
</glyph>
<glyph name="Ohorn" format="1">
  <advance width="696"/>
  <unicode hex="01A0"/>
  <note>
    GF Latin Plus glyph
  </note>
  <outline>
    <contour>
      <point x="479" y="671" type="line"/>
      <point x="624" y="671" type="line" smooth="yes"/>
      <point x="704" y="671"/>
      <point x="772" y="726"/>
      <point x="792" y="850" type="curve"/>
      <point x="705" y="850" type="line"/>
      <point x="692" y="766"/>
      <point x="659" y="738"/>
      <point x="613" y="738" type="curve" smooth="yes"/>
      <point x="489" y="738" type="line"/>
    </contour>
    <component base="O"/>
    <contour>
      <point x="459" y="810" type="move" name="top"/>
    </contour>
    <contour>
      <point x="317" y="-150" type="move" name="bottom"/>
    </contour>
  </outline>
</glyph>
<glyph name="ohorn" format="1">
  <advance width="579"/>
  <unicode hex="01A1"/>
  <note>
    GF Latin Plus glyph
  </note>
  <outline>
    <component base="o"/>
    <component base="horncomb" xOffset="623"/>
    <contour>
      <point x="360" y="650" type="move" name="top"/>
    </contour>
    <contour>
      <point x="263" y="-150" type="move" name="bottom"/>
    </contour>
  </outline>
</glyph>
<glyph name="Uhorn" format="1">
  <advance width="682"/>
  <unicode hex="01AF"/>
  <note>
    GF Latin Plus glyph
  </note>
  <outline>
    <contour>
      <point x="612" y="671" type="line"/>
      <point x="675" y="671" type="line" smooth="yes"/>
      <point x="755" y="671"/>
      <point x="823" y="726"/>
      <point x="843" y="850" type="curve"/>
      <point x="756" y="850" type="line"/>
      <point x="743" y="766"/>
      <point x="710" y="738"/>
      <point x="664" y="738" type="curve" smooth="yes"/>
      <point x="622" y="738" type="line"/>
    </contour>
    <component base="U"/>
    <contour>
      <point x="455" y="810" type="move" name="top"/>
    </contour>
    <contour>
      <point x="329" y="-150" type="move" name="bottom"/>
    </contour>
  </outline>
</glyph>
<glyph name="breve" format="1">
  <advance width="353"/>
  <unicode hex="02D8"/>
  <note>
    GF Latin Plus glyph
  </note>
  <outline>
    <contour>
      <point x="163" y="773" type="line"/>
      <point x="161" y="759"/>
      <point x="159" y="746"/>
      <point x="159" y="735" type="curve" smooth="yes"/>
      <point x="159" y="658"/>
      <point x="206" y="625"/>
      <point x="275" y="625" type="curve" smooth="yes"/>
      <point x="357" y="625"/>
      <point x="420" y="667"/>
      <point x="436" y="773" type="curve"/>
      <point x="377" y="773" type="line"/>
      <point x="366" y="705"/>
      <point x="327" y="682"/>
      <point x="283" y="682" type="curve" smooth="yes"/>
      <point x="249" y="682"/>
      <point x="219" y="700"/>
      <point x="219" y="749" type="curve" smooth="yes"/>
      <point x="219" y="756"/>
      <point x="220" y="764"/>
      <point x="221" y="773" type="curve"/>
    </contour>
  </outline>
</glyph>
<glyph name="ring" format="1">
  <advance width="327"/>
  <unicode hex="02DA"/>
  <note>
    GF Latin Plus glyph
  </note>
  <outline>
    <contour>
      <point x="285" y="764" type="curve" smooth="yes"/>
      <point x="313" y="764"/>
      <point x="337" y="752"/>
      <point x="337" y="714" type="curve" smooth="yes"/>
      <point x="337" y="672"/>
      <point x="315" y="635"/>
      <point x="266" y="635" type="curve" smooth="yes"/>
      <point x="236" y="635"/>
      <point x="212" y="647"/>
      <point x="212" y="685" type="curve" smooth="yes"/>
      <point x="212" y="726"/>
      <point x="234" y="764"/>
    </contour>
    <contour>
      <point x="153" y="683" type="curve" smooth="yes"/>
      <point x="153" y="612"/>
      <point x="195" y="588"/>
      <point x="261" y="588" type="curve" smooth="yes"/>
      <point x="349" y="588"/>
      <point x="396" y="645"/>
      <point x="396" y="717" type="curve" smooth="yes"/>
      <point x="396" y="785"/>
      <point x="355" y="811"/>
      <point x="290" y="811" type="curve" smooth="yes"/>
      <point x="201" y="811"/>
      <point x="153" y="752"/>
    </contour>
  </outline>
</glyph>
<glyph name="pi" format="1">
  <advance width="631"/>
  <unicode hex="03C0"/>
  <outline>
    <contour>
      <point x="85" y="424" type="line"/>
      <point x="171" y="424" type="line"/>
      <point x="104" y="0" type="line"/>
      <point x="228" y="0" type="line"/>
      <point x="295" y="424" type="line"/>
      <point x="420" y="424" type="line"/>
      <point x="376" y="145" type="line" smooth="yes"/>
      <point x="374" y="130"/>
      <point x="372" y="115"/>
      <point x="372" y="101" type="curve" smooth="yes"/>
      <point x="372" y="29"/>
      <point x="410" y="-6"/>
      <point x="482" y="-6" type="curve" smooth="yes"/>
      <point x="528" y="-6"/>
      <point x="560" y="5"/>
      <point x="581" y="18" type="curve"/>
      <point x="593" y="90" type="line"/>
      <point x="544" y="90" type="line" smooth="yes"/>
      <point x="514" y="90"/>
      <point x="499" y="100"/>
      <point x="499" y="130" type="curve" smooth="yes"/>
      <point x="499" y="136"/>
      <point x="499" y="143"/>
      <point x="501" y="151" type="curve" smooth="yes"/>
      <point x="544" y="424" type="line"/>
      <point x="638" y="424" type="line"/>
      <point x="655" y="536" type="line"/>
      <point x="102" y="536" type="line"/>
    </contour>
  </outline>
</glyph>
<glyph name="quoteright" format="1">
  <advance width="211"/>
  <unicode hex="2019"/>
  <note>
    GF Latin Plus glyph
  </note>
  <outline>
    <contour>
      <point x="146" y="636" type="line" smooth="yes"/>
      <point x="146" y="635"/>
      <point x="146" y="633"/>
      <point x="146" y="632" type="curve" smooth="yes"/>
      <point x="146" y="621"/>
      <point x="153" y="615"/>
      <point x="163" y="615" type="curve" smooth="yes"/>
      <point x="172" y="615" type="line"/>
      <point x="167" y="579" type="line" smooth="yes"/>
      <point x="165" y="567"/>
      <point x="160" y="553"/>
      <point x="137" y="553" type="curve"/>
      <point x="129" y="507" type="line"/>
      <point x="137" y="505"/>
      <point x="143" y="505"/>
      <point x="158" y="505" type="curve" smooth="yes"/>
      <point x="191" y="505"/>
      <point x="241" y="515"/>
      <point x="251" y="580" type="curve" smooth="yes"/>
      <point x="275" y="729" type="line" smooth="yes"/>
      <point x="275" y="732"/>
      <point x="276" y="734"/>
      <point x="276" y="736" type="curve" smooth="yes"/>
      <point x="276" y="745"/>
      <point x="271" y="752"/>
      <point x="261" y="752" type="curve" smooth="yes"/>
      <point x="185" y="752" type="line" smooth="yes"/>
      <point x="171" y="752"/>
      <point x="163" y="744"/>
      <point x="161" y="729" type="curve" smooth="yes"/>
    </contour>
  </outline>
</glyph>
<glyph name="dagger" format="1">
  <advance width="450"/>
  <unicode hex="2020"/>
  <note>
    GF Latin Plus glyph
  </note>
  <outline>
    <contour>
      <point x="90" y="460" type="line"/>
      <point x="233" y="449" type="line"/>
      <point x="159" y="-72" type="line"/>
      <point x="267" y="-72" type="line"/>
      <point x="360" y="449" type="line"/>
      <point x="505" y="460" type="line"/>
      <point x="520" y="554" type="line"/>
      <point x="378" y="564" type="line"/>
      <point x="401" y="770" type="line"/>
      <point x="293" y="770" type="line"/>
      <point x="251" y="564" type="line"/>
      <point x="105" y="554" type="line"/>
    </contour>
  </outline>
</glyph>
<glyph name="bullet" format="1">
  <advance width="319"/>
  <unicode hex="2022"/>
  <note>
    GF Latin Plus glyph
  </note>
  <outline>
    <contour>
      <point x="114" y="331" type="line" smooth="yes"/>
      <point x="111" y="311"/>
      <point x="121" y="299"/>
      <point x="141" y="299" type="curve" smooth="yes"/>
      <point x="235" y="299" type="line" smooth="yes"/>
      <point x="255" y="299"/>
      <point x="272" y="307"/>
      <point x="276" y="331" type="curve" smooth="yes"/>
      <point x="292" y="431" type="line" smooth="yes"/>
      <point x="296" y="453"/>
      <point x="288" y="466"/>
      <point x="263" y="466" type="curve" smooth="yes"/>
      <point x="169" y="466" type="line" smooth="yes"/>
      <point x="147" y="466"/>
      <point x="133" y="452"/>
      <point x="130" y="431" type="curve" smooth="yes"/>
    </contour>
  </outline>
</glyph>
<glyph name="minute" format="1">
  <advance width="180"/>
  <unicode hex="2032"/>
  <outline>
    <contour>
      <point x="101" y="452" type="line"/>
      <point x="187" y="452" type="line"/>
      <point x="277" y="763" type="line"/>
      <point x="165" y="763" type="line"/>
    </contour>
  </outline>
</glyph>
<glyph name="guilsinglleft" format="1">
  <advance width="367"/>
  <unicode hex="2039"/>
  <note>
    GF Latin Plus glyph
  </note>
  <outline>
    <contour>
      <point x="79" y="282" type="line"/>
      <point x="267" y="62" type="line"/>
      <point x="338" y="126" type="line"/>
      <point x="205" y="281" type="line"/>
      <point x="385" y="434" type="line"/>
      <point x="331" y="496" type="line"/>
    </contour>
  </outline>
</glyph>
<glyph name="zerosuperior" format="1">
  <advance width="417"/>
  <unicode hex="2070"/>
  <outline>
    <contour>
      <point x="211" y="493" type="curve" smooth="yes"/>
      <point x="245" y="705" type="line" smooth="yes"/>
      <point x="250" y="741"/>
      <point x="271" y="758"/>
      <point x="304" y="758" type="curve" smooth="yes"/>
      <point x="354" y="758" type="line" smooth="yes"/>
      <point x="383" y="758"/>
      <point x="396" y="748"/>
      <point x="396" y="720" type="curve" smooth="yes"/>
      <point x="396" y="716"/>
      <point x="396" y="711"/>
      <point x="395" y="705" type="curve" smooth="yes"/>
      <point x="362" y="493" type="line" smooth="yes"/>
      <point x="356" y="457"/>
      <point x="336" y="440"/>
      <point x="300" y="440" type="curve" smooth="yes"/>
      <point x="258" y="440" type="line" smooth="yes"/>
      <point x="224" y="440"/>
      <point x="210" y="452"/>
      <point x="210" y="479" type="curve" smooth="yes"/>
      <point x="210" y="483"/>
      <point x="210" y="488"/>
    </contour>
    <contour>
      <point x="110" y="478" type="line" smooth="yes"/>
      <point x="108" y="467"/>
      <point x="107" y="458"/>
      <point x="107" y="449" type="curve" smooth="yes"/>
      <point x="107" y="386"/>
      <point x="147" y="352"/>
      <point x="220" y="352" type="curve" smooth="yes"/>
      <point x="312" y="352" type="line" smooth="yes"/>
      <point x="392" y="352"/>
      <point x="445" y="397"/>
      <point x="459" y="478" type="curve" smooth="yes"/>
      <point x="496" y="715" type="line" smooth="yes"/>
      <point x="498" y="727"/>
      <point x="499" y="738"/>
      <point x="499" y="747" type="curve" smooth="yes"/>
      <point x="499" y="809"/>
      <point x="463" y="846"/>
      <point x="391" y="846" type="curve" smooth="yes"/>
      <point x="299" y="846" type="line" smooth="yes"/>
      <point x="217" y="846"/>
      <point x="161" y="800"/>
      <point x="147" y="715" type="curve" smooth="yes"/>
    </contour>
  </outline>
</glyph>
<glyph name="foursuperior" format="1">
  <advance width="417"/>
  <unicode hex="2074"/>
  <outline>
    <contour>
      <point x="97" y="505" type="line"/>
      <point x="108" y="458" type="line"/>
      <point x="326" y="458" type="line"/>
      <point x="309" y="355" type="line"/>
      <point x="408" y="355" type="line"/>
      <point x="425" y="458" type="line"/>
      <point x="478" y="474" type="line"/>
      <point x="490" y="541" type="line"/>
      <point x="438" y="541" type="line"/>
      <point x="462" y="692" type="line"/>
      <point x="382" y="692" type="line"/>
      <point x="353" y="636" type="line"/>
      <point x="338" y="541" type="line"/>
      <point x="222" y="541" type="line"/>
      <point x="414" y="842" type="line"/>
      <point x="312" y="842" type="line"/>
    </contour>
  </outline>
</glyph>
<glyph name="fivesuperior" format="1">
  <advance width="417"/>
  <unicode hex="2075"/>
  <outline>
    <contour>
      <point x="109" y="362" type="line"/>
      <point x="162" y="357"/>
      <point x="224" y="351"/>
      <point x="279" y="351" type="curve" smooth="yes"/>
      <point x="387" y="351"/>
      <point x="452" y="388"/>
      <point x="465" y="474" type="curve" smooth="yes"/>
      <point x="477" y="546" type="line" smooth="yes"/>
      <point x="478" y="554"/>
      <point x="479" y="562"/>
      <point x="479" y="570" type="curve" smooth="yes"/>
      <point x="478" y="623"/>
      <point x="447" y="660"/>
      <point x="379" y="660" type="curve" smooth="yes"/>
      <point x="325" y="660" type="line" smooth="yes"/>
      <point x="296" y="660"/>
      <point x="270" y="653"/>
      <point x="254" y="639" type="curve"/>
      <point x="278" y="754" type="line"/>
      <point x="491" y="754" type="line"/>
      <point x="504" y="842" type="line"/>
      <point x="206" y="842" type="line"/>
      <point x="145" y="542" type="line"/>
      <point x="239" y="542" type="line"/>
      <point x="247" y="566"/>
      <point x="263" y="578"/>
      <point x="292" y="578" type="curve" smooth="yes"/>
      <point x="331" y="578" type="line" smooth="yes"/>
      <point x="362" y="578"/>
      <point x="376" y="564"/>
      <point x="376" y="543" type="curve" smooth="yes"/>
      <point x="376" y="539"/>
      <point x="375" y="532"/>
      <point x="374" y="525" type="curve" smooth="yes"/>
      <point x="368" y="486" type="line" smooth="yes"/>
      <point x="363" y="456"/>
      <point x="334" y="439"/>
      <point x="297" y="439" type="curve" smooth="yes"/>
      <point x="122" y="439" type="line"/>
    </contour>
  </outline>
</glyph>
<glyph name="sixsuperior" format="1">
  <advance width="417"/>
  <unicode hex="2076"/>
  <outline>
    <contour>
      <point x="230" y="566" type="curve"/>
      <point x="315" y="566" type="line" smooth="yes"/>
      <point x="348" y="566"/>
      <point x="369" y="559"/>
      <point x="369" y="533" type="curve" smooth="yes"/>
      <point x="369" y="529"/>
      <point x="368" y="524"/>
      <point x="367" y="518" type="curve" smooth="yes"/>
      <point x="362" y="484" type="line" smooth="yes"/>
      <point x="357" y="450"/>
      <point x="335" y="440"/>
      <point x="308" y="440" type="curve" smooth="yes"/>
      <point x="274" y="440" type="line" smooth="yes"/>
      <point x="241" y="440"/>
      <point x="224" y="455"/>
      <point x="224" y="505" type="curve" smooth="yes"/>
      <point x="224" y="521"/>
      <point x="227" y="542"/>
    </contour>
    <contour>
      <point x="126" y="489" type="curve" smooth="yes"/>
      <point x="126" y="382"/>
      <point x="169" y="352"/>
      <point x="246" y="352" type="curve" smooth="yes"/>
      <point x="318" y="352" type="line" smooth="yes"/>
      <point x="390" y="352"/>
      <point x="446" y="384"/>
      <point x="458" y="467" type="curve" smooth="yes"/>
      <point x="470" y="537" type="line" smooth="yes"/>
      <point x="471" y="547"/>
      <point x="472" y="557"/>
      <point x="472" y="566" type="curve" smooth="yes"/>
      <point x="472" y="618"/>
      <point x="439" y="649"/>
      <point x="355" y="649" type="curve" smooth="yes"/>
      <point x="311" y="649"/>
      <point x="274" y="646"/>
      <point x="242" y="637" type="curve"/>
      <point x="255" y="717"/>
      <point x="295" y="758"/>
      <point x="362" y="758" type="curve" smooth="yes"/>
      <point x="475" y="758" type="line"/>
      <point x="487" y="836" type="line"/>
      <point x="453" y="842"/>
      <point x="407" y="846"/>
      <point x="363" y="846" type="curve" smooth="yes"/>
      <point x="210" y="846"/>
      <point x="125" y="714"/>
    </contour>
  </outline>
</glyph>
<glyph name="sevensuperior" format="1">
  <advance width="417"/>
  <unicode hex="2077"/>
  <outline>
    <contour>
      <point x="155" y="744" type="line"/>
      <point x="368" y="744" type="line"/>
      <point x="159" y="355" type="line"/>
      <point x="268" y="355" type="line"/>
      <point x="503" y="800" type="line"/>
      <point x="484" y="842" type="line"/>
      <point x="170" y="842" type="line"/>
    </contour>
  </outline>
</glyph>
<glyph name="naira" format="1">
  <advance width="609"/>
  <unicode hex="20A6"/>
  <note>
    GF Latin Plus glyph
  </note>
  <outline>
    <contour>
      <point x="87" y="0" type="line"/>
      <point x="188" y="0" type="line"/>
      <point x="268" y="506" type="line"/>
      <point x="439" y="0" type="line"/>
      <point x="522" y="0" type="line"/>
      <point x="640" y="743" type="line"/>
      <point x="539" y="743" type="line"/>
      <point x="459" y="237" type="line"/>
      <point x="288" y="743" type="line"/>
      <point x="205" y="743" type="line"/>
    </contour>
    <contour>
      <point x="104" y="467" type="line"/>
      <point x="207" y="467" type="line"/>
      <point x="218" y="532" type="line"/>
      <point x="114" y="532" type="line"/>
    </contour>
    <contour>
      <point x="331" y="467" type="line"/>
      <point x="653" y="467" type="line"/>
      <point x="663" y="532" type="line"/>
      <point x="308" y="532" type="line"/>
    </contour>
    <contour>
      <point x="64" y="211" type="line"/>
      <point x="436" y="211" type="line"/>
      <point x="407" y="276" type="line"/>
      <point x="73" y="276" type="line"/>
    </contour>
    <contour>
      <point x="525" y="211" type="line"/>
      <point x="613" y="211" type="line"/>
      <point x="622" y="276" type="line"/>
      <point x="535" y="276" type="line"/>
    </contour>
  </outline>
</glyph>
<glyph name="won" format="1">
  <advance width="609"/>
  <unicode hex="20A9"/>
  <note>
    GF Latin Plus glyph
  </note>
  <outline>
    <contour>
      <point x="160" y="738" type="line"/>
      <point x="104" y="0" type="line"/>
      <point x="213" y="0" type="line"/>
      <point x="362" y="404" type="line"/>
      <point x="393" y="0" type="line"/>
      <point x="501" y="0" type="line"/>
      <point x="678" y="738" type="line"/>
      <point x="568" y="738" type="line"/>
      <point x="449" y="251" type="line"/>
      <point x="426" y="603" type="line"/>
      <point x="371" y="603" type="line"/>
      <point x="234" y="251" type="line"/>
      <point x="271" y="738" type="line"/>
    </contour>
    <contour>
      <point x="79" y="467" type="line"/>
      <point x="187" y="467" type="line"/>
      <point x="198" y="532" type="line"/>
      <point x="89" y="532" type="line"/>
    </contour>
    <contour>
      <point x="584" y="467" type="line"/>
      <point x="673" y="467" type="line"/>
      <point x="684" y="532" type="line"/>
      <point x="588" y="532" type="line"/>
    </contour>
    <contour>
      <point x="39" y="211" type="line"/>
      <point x="196" y="211" type="line"/>
      <point x="187" y="276" type="line"/>
      <point x="48" y="276" type="line"/>
    </contour>
    <contour>
      <point x="493" y="211" type="line"/>
      <point x="633" y="211" type="line"/>
      <point x="643" y="276" type="line"/>
      <point x="503" y="276" type="line"/>
    </contour>
  </outline>
</glyph>
<glyph name="guarani" format="1">
  <advance width="609"/>
  <unicode hex="20B2"/>
  <note>
    GF Latin Plus glyph
  </note>
  <outline>
    <contour>
      <point x="345" y="-92" type="line"/>
      <point x="485" y="793" type="line"/>
      <point x="426" y="793" type="line"/>
      <point x="286" y="-92" type="line"/>
    </contour>
    <contour>
      <point x="82" y="207" type="curve" smooth="yes"/>
      <point x="82" y="70"/>
      <point x="129" y="-5"/>
      <point x="266" y="-5" type="curve" smooth="yes"/>
      <point x="353" y="-5"/>
      <point x="434" y="25"/>
      <point x="485" y="51" type="curve"/>
      <point x="495" y="0" type="line"/>
      <point x="575" y="0" type="line"/>
      <point x="640" y="409" type="line"/>
      <point x="528" y="409" type="line"/>
      <point x="485" y="136" type="line"/>
      <point x="446" y="123"/>
      <point x="384" y="109"/>
      <point x="325" y="109" type="curve" smooth="yes"/>
      <point x="234" y="109"/>
      <point x="196" y="138"/>
      <point x="196" y="239" type="curve" smooth="yes"/>
      <point x="196" y="400"/>
      <point x="242" y="626"/>
      <point x="432" y="626" type="curve" smooth="yes"/>
      <point x="522" y="626"/>
      <point x="612" y="617"/>
      <point x="653" y="612" type="curve"/>
      <point x="669" y="707" type="line"/>
      <point x="597" y="724"/>
      <point x="521" y="737"/>
      <point x="428" y="737" type="curve" smooth="yes"/>
      <point x="153" y="737"/>
      <point x="82" y="442"/>
    </contour>
  </outline>
</glyph>
<glyph name="cedi" format="1">
  <advance width="609"/>
  <unicode hex="20B5"/>
  <note>
    GF Latin Plus glyph
  </note>
  <outline>
    <contour>
      <point x="380" y="-92" type="line"/>
      <point x="521" y="793" type="line"/>
      <point x="461" y="793" type="line"/>
      <point x="321" y="-92" type="line"/>
    </contour>
    <contour>
      <point x="101" y="235" type="curve" smooth="yes"/>
      <point x="101" y="39"/>
      <point x="196" y="-6"/>
      <point x="331" y="-6" type="curve" smooth="yes"/>
      <point x="437" y="-6"/>
      <point x="512" y="7"/>
      <point x="562" y="26" type="curve"/>
      <point x="576" y="115" type="line"/>
      <point x="522" y="104"/>
      <point x="468" y="99"/>
      <point x="376" y="99" type="curve" smooth="yes"/>
      <point x="270" y="99"/>
      <point x="215" y="129"/>
      <point x="215" y="243" type="curve" smooth="yes"/>
      <point x="215" y="451"/>
      <point x="309" y="630"/>
      <point x="478" y="630" type="curve" smooth="yes"/>
      <point x="535" y="630"/>
      <point x="605" y="622"/>
      <point x="656" y="614" type="curve"/>
      <point x="669" y="704" type="line"/>
      <point x="636" y="716"/>
      <point x="560" y="736"/>
      <point x="462" y="736" type="curve" smooth="yes"/>
      <point x="260" y="736"/>
      <point x="101" y="540"/>
    </contour>
  </outline>
</glyph>
<glyph name="ruble" format="1">
  <advance width="609"/>
  <unicode hex="20BD"/>
  <note>
    GF Latin Plus glyph
  </note>
  <outline>
    <contour>
      <point x="190" y="107" type="line"/>
      <point x="502" y="107" type="line"/>
      <point x="512" y="172" type="line"/>
      <point x="206" y="172" type="line"/>
    </contour>
    <contour>
      <point x="31" y="107" type="line"/>
      <point x="182" y="107" type="line"/>
      <point x="192" y="172" type="line"/>
      <point x="41" y="172" type="line"/>
    </contour>
    <contour>
      <point x="281" y="376" type="line"/>
      <point x="320" y="627" type="line"/>
      <point x="424" y="627" type="line" smooth="yes"/>
      <point x="486" y="627"/>
      <point x="514" y="604"/>
      <point x="514" y="546" type="curve" smooth="yes"/>
      <point x="514" y="461"/>
      <point x="472" y="376"/>
      <point x="385" y="376" type="curve" smooth="yes"/>
    </contour>
    <contour>
      <point x="103" y="0" type="line"/>
      <point x="221" y="0" type="line"/>
      <point x="265" y="276" type="line"/>
      <point x="276" y="274"/>
      <point x="368" y="268"/>
      <point x="387" y="268" type="curve" smooth="yes"/>
      <point x="560" y="268"/>
      <point x="635" y="419"/>
      <point x="635" y="560" type="curve" smooth="yes"/>
      <point x="635" y="711"/>
      <point x="550" y="738"/>
      <point x="462" y="738" type="curve" smooth="yes"/>
      <point x="220" y="738" type="line"/>
    </contour>
    <contour>
      <point x="63" y="312" type="line"/>
      <point x="212" y="312" type="line"/>
      <point x="222" y="376" type="line"/>
      <point x="74" y="376" type="line"/>
    </contour>
  </outline>
</glyph>
<glyph name="literSign" format="1">
  <advance width="480"/>
  <unicode hex="2113"/>
  <outline>
    <contour>
      <point x="255" y="389" type="curve"/>
      <point x="279" y="584" type="line" smooth="yes"/>
      <point x="284" y="625"/>
      <point x="312" y="645"/>
      <point x="341" y="645" type="curve" smooth="yes"/>
      <point x="376" y="645"/>
      <point x="394" y="622"/>
      <point x="394" y="590" type="curve" smooth="yes"/>
      <point x="394" y="553"/>
      <point x="344" y="469"/>
    </contour>
    <contour>
      <point x="58" y="254" type="curve"/>
      <point x="67" y="194" type="line"/>
      <point x="79" y="200"/>
      <point x="99" y="212"/>
      <point x="111" y="221" type="curve"/>
      <point x="106" y="182" type="line" smooth="yes"/>
      <point x="104" y="163"/>
      <point x="103" y="146"/>
      <point x="103" y="131" type="curve" smooth="yes"/>
      <point x="103" y="33"/>
      <point x="152" y="0"/>
      <point x="238" y="0" type="curve" smooth="yes"/>
      <point x="380" y="0" type="line"/>
      <point x="389" y="73" type="line"/>
      <point x="324" y="83" type="line" smooth="yes"/>
      <point x="255" y="94"/>
      <point x="232" y="122"/>
      <point x="232" y="180" type="curve" smooth="yes"/>
      <point x="232" y="194"/>
      <point x="233" y="208"/>
      <point x="235" y="224" type="curve" smooth="yes"/>
      <point x="240" y="270" type="line"/>
      <point x="357" y="348"/>
      <point x="498" y="525"/>
      <point x="498" y="603" type="curve" smooth="yes"/>
      <point x="498" y="696"/>
      <point x="439" y="739"/>
      <point x="355" y="739" type="curve" smooth="yes"/>
      <point x="241" y="739"/>
      <point x="168" y="684"/>
      <point x="153" y="564" type="curve" smooth="yes"/>
      <point x="122" y="309" type="line"/>
      <point x="100" y="289"/>
      <point x="79" y="271"/>
    </contour>
  </outline>
</glyph>
<glyph name="numero" format="1">
  <advance width="1158"/>
  <unicode hex="2116"/>
  <note>
    GF Latin Plus glyph
  </note>
  <outline>
    <contour>
      <point x="77" y="0" type="line"/>
      <point x="201" y="0" type="line"/>
      <point x="293" y="584" type="line" smooth="yes"/>
      <point x="297" y="611"/>
      <point x="310" y="621"/>
      <point x="326" y="621" type="curve" smooth="yes"/>
      <point x="340" y="621"/>
      <point x="349" y="613"/>
      <point x="354" y="594" type="curve" smooth="yes"/>
      <point x="440" y="110" type="line" smooth="yes"/>
      <point x="453" y="31"/>
      <point x="497" y="-6"/>
      <point x="577" y="-6" type="curve" smooth="yes"/>
      <point x="649" y="-6"/>
      <point x="716" y="39"/>
      <point x="730" y="124" type="curve" smooth="yes"/>
      <point x="794" y="530" type="line" smooth="yes"/>
      <point x="810" y="631"/>
      <point x="855" y="652"/>
      <point x="916" y="652" type="curve" smooth="yes"/>
      <point x="1061" y="652" type="line" smooth="yes"/>
      <point x="1097" y="652"/>
      <point x="1123" y="636"/>
      <point x="1123" y="585" type="curve" smooth="yes"/>
      <point x="1123" y="527"/>
      <point x="1095" y="457"/>
      <point x="1039" y="457" type="curve" smooth="yes"/>
      <point x="1018" y="457" type="line" smooth="yes"/>
      <point x="985" y="457"/>
      <point x="967" y="475"/>
      <point x="967" y="527" type="curve" smooth="yes"/>
      <point x="967" y="543"/>
      <point x="969" y="562"/>
      <point x="973" y="585" type="curve"/>
      <point x="883" y="585" type="line"/>
      <point x="878" y="552"/>
      <point x="875" y="524"/>
      <point x="875" y="500" type="curve" smooth="yes"/>
      <point x="875" y="404"/>
      <point x="920" y="370"/>
      <point x="1003" y="370" type="curve" smooth="yes"/>
      <point x="1033" y="370" type="line" smooth="yes"/>
      <point x="1157" y="370"/>
      <point x="1220" y="495"/>
      <point x="1220" y="611" type="curve" smooth="yes"/>
      <point x="1220" y="705"/>
      <point x="1170" y="753"/>
      <point x="1081" y="753" type="curve" smooth="yes"/>
      <point x="915" y="753" type="line" smooth="yes"/>
      <point x="797" y="753"/>
      <point x="698" y="706"/>
      <point x="671" y="538" type="curve" smooth="yes"/>
      <point x="611" y="153" type="line" smooth="yes"/>
      <point x="607" y="130"/>
      <point x="595" y="117"/>
      <point x="575" y="117" type="curve" smooth="yes"/>
      <point x="563" y="117"/>
      <point x="553" y="127"/>
      <point x="551" y="141" type="curve" smooth="yes"/>
      <point x="464" y="629" type="line" smooth="yes"/>
      <point x="452" y="707"/>
      <point x="413" y="744"/>
      <point x="330" y="744" type="curve" smooth="yes"/>
      <point x="251" y="744"/>
      <point x="187" y="696"/>
      <point x="172" y="602" type="curve" smooth="yes"/>
    </contour>
  </outline>
</glyph>
<glyph name="emptyset" format="1">
  <advance width="609"/>
  <unicode hex="2205"/>
  <outline>
    <contour>
      <point x="606" y="613" type="line"/>
      <point x="53" y="-30" type="line"/>
      <point x="92" y="-69" type="line"/>
      <point x="644" y="575" type="line"/>
    </contour>
    <contour>
      <point x="228" y="224" type="curve" smooth="yes"/>
      <point x="228" y="310" type="line" smooth="yes"/>
      <point x="228" y="401"/>
      <point x="269" y="434"/>
      <point x="322" y="434" type="curve" smooth="yes"/>
      <point x="375" y="434" type="line" smooth="yes"/>
      <point x="428" y="434"/>
      <point x="469" y="401"/>
      <point x="469" y="310" type="curve" smooth="yes"/>
      <point x="469" y="224" type="line" smooth="yes"/>
      <point x="469" y="134"/>
      <point x="428" y="100"/>
      <point x="375" y="100" type="curve" smooth="yes"/>
      <point x="322" y="100" type="line" smooth="yes"/>
      <point x="269" y="100"/>
      <point x="228" y="134"/>
    </contour>
    <contour>
      <point x="105" y="226" type="line" smooth="yes"/>
      <point x="105" y="100"/>
      <point x="170" y="-6"/>
      <point x="314" y="-6" type="curve" smooth="yes"/>
      <point x="383" y="-6" type="line" smooth="yes"/>
      <point x="528" y="-6"/>
      <point x="593" y="100"/>
      <point x="593" y="226" type="curve" smooth="yes"/>
      <point x="593" y="309" type="line" smooth="yes"/>
      <point x="593" y="435"/>
      <point x="528" y="541"/>
      <point x="383" y="541" type="curve" smooth="yes"/>
      <point x="314" y="541" type="line" smooth="yes"/>
      <point x="170" y="541"/>
      <point x="105" y="435"/>
      <point x="105" y="309" type="curve" smooth="yes"/>
    </contour>
  </outline>
</glyph>
<glyph name="summation" format="1">
  <advance width="534"/>
  <unicode hex="2211"/>
  <outline>
    <contour>
      <point x="-2" y="-200" type="line"/>
      <point x="508" y="-200" type="line"/>
      <point x="526" y="-85" type="line"/>
      <point x="179" y="-85" type="line"/>
      <point x="438" y="268" type="line"/>
      <point x="276" y="620" type="line"/>
      <point x="637" y="620" type="line"/>
      <point x="656" y="732" type="line"/>
      <point x="146" y="732" type="line"/>
      <point x="128" y="620" type="line"/>
      <point x="286" y="270" type="line"/>
      <point x="16" y="-85" type="line"/>
    </contour>
  </outline>
</glyph>
<glyph name="bulletoperator" format="1">
  <advance width="609"/>
  <unicode hex="2219"/>
  <note>
    GF Latin Plus glyph
  </note>
  <outline>
    <contour>
      <point x="295" y="318" type="line" smooth="yes"/>
      <point x="295" y="317"/>
      <point x="295" y="315"/>
      <point x="295" y="314" type="curve" smooth="yes"/>
      <point x="295" y="302"/>
      <point x="303" y="295"/>
      <point x="316" y="295" type="curve" smooth="yes"/>
      <point x="386" y="295" type="line" smooth="yes"/>
      <point x="400" y="295"/>
      <point x="412" y="300"/>
      <point x="415" y="318" type="curve" smooth="yes"/>
      <point x="426" y="392" type="line" smooth="yes"/>
      <point x="427" y="394"/>
      <point x="427" y="397"/>
      <point x="427" y="399" type="curve" smooth="yes"/>
      <point x="427" y="411"/>
      <point x="420" y="417"/>
      <point x="405" y="417" type="curve" smooth="yes"/>
      <point x="335" y="417" type="line" smooth="yes"/>
      <point x="319" y="417"/>
      <point x="309" y="407"/>
      <point x="307" y="392" type="curve" smooth="yes"/>
    </contour>
  </outline>
</glyph>
<glyph name="radical" format="1">
  <advance width="627"/>
  <unicode hex="221A"/>
  <outline>
    <contour>
      <point x="52" y="258" type="line"/>
      <point x="119" y="258" type="line"/>
      <point x="199" y="0" type="line"/>
      <point x="320" y="0" type="line"/>
      <point x="749" y="800" type="line"/>
      <point x="614" y="800" type="line"/>
      <point x="277" y="171" type="line"/>
      <point x="224" y="370" type="line"/>
      <point x="70" y="370" type="line"/>
    </contour>
  </outline>
</glyph>
<glyph name="infinity" format="1">
  <advance width="670"/>
  <unicode hex="221E"/>
  <outline>
    <contour>
      <point x="446" y="341" type="curve"/>
      <point x="479" y="382"/>
      <point x="535" y="432"/>
      <point x="582" y="432" type="curve" smooth="yes"/>
      <point x="650" y="432"/>
      <point x="654" y="394"/>
      <point x="646" y="341" type="curve" smooth="yes"/>
      <point x="638" y="289"/>
      <point x="617" y="251"/>
      <point x="553" y="251" type="curve" smooth="yes"/>
      <point x="503" y="251"/>
      <point x="466" y="296"/>
    </contour>
    <contour>
      <point x="136" y="342" type="curve" smooth="yes"/>
      <point x="145" y="403"/>
      <point x="162" y="432"/>
      <point x="227" y="432" type="curve" smooth="yes"/>
      <point x="272" y="432"/>
      <point x="310" y="386"/>
      <point x="332" y="342" type="curve"/>
      <point x="306" y="308"/>
      <point x="255" y="251"/>
      <point x="199" y="251" type="curve" smooth="yes"/>
      <point x="139" y="251"/>
      <point x="127" y="283"/>
    </contour>
    <contour>
      <point x="47" y="354" type="curve" smooth="yes"/>
      <point x="32" y="262"/>
      <point x="52" y="169"/>
      <point x="179" y="169" type="curve" smooth="yes"/>
      <point x="260" y="169"/>
      <point x="323" y="209"/>
      <point x="377" y="283" type="curve"/>
      <point x="414" y="213"/>
      <point x="476" y="169"/>
      <point x="550" y="169" type="curve" smooth="yes"/>
      <point x="677" y="169"/>
      <point x="719" y="235"/>
      <point x="734" y="327" type="curve" smooth="yes"/>
      <point x="747" y="410"/>
      <point x="742" y="514"/>
      <point x="604" y="514" type="curve" smooth="yes"/>
      <point x="527" y="514"/>
      <point x="444" y="462"/>
      <point x="398" y="401" type="curve"/>
      <point x="364" y="461"/>
      <point x="309" y="514"/>
      <point x="231" y="514" type="curve" smooth="yes"/>
      <point x="93" y="514"/>
      <point x="61" y="441"/>
    </contour>
  </outline>
</glyph>
<glyph name="integral" format="1">
  <advance width="419"/>
  <unicode hex="222B"/>
  <outline>
    <contour>
      <point x="-13" y="-186" type="line"/>
      <point x="11" y="-196"/>
      <point x="49" y="-204"/>
      <point x="96" y="-204" type="curve" smooth="yes"/>
      <point x="217" y="-204"/>
      <point x="263" y="-131"/>
      <point x="282" y="-14" type="curve" smooth="yes"/>
      <point x="371" y="547" type="line" smooth="yes"/>
      <point x="381" y="616"/>
      <point x="405" y="706"/>
      <point x="481" y="706" type="curve" smooth="yes"/>
      <point x="541" y="706" type="line"/>
      <point x="553" y="782" type="line"/>
      <point x="536" y="788"/>
      <point x="505" y="800"/>
      <point x="445" y="800" type="curve" smooth="yes"/>
      <point x="323" y="800"/>
      <point x="271" y="701"/>
      <point x="254" y="592" type="curve" smooth="yes"/>
      <point x="166" y="36" type="line" smooth="yes"/>
      <point x="153" y="-45"/>
      <point x="130" y="-110"/>
      <point x="62" y="-110" type="curve" smooth="yes"/>
      <point x="-2" y="-110" type="line"/>
    </contour>
  </outline>
</glyph>
<glyph name="lozenge" format="1">
  <advance width="520"/>
  <unicode hex="25CA"/>
  <outline>
    <contour>
      <point x="185" y="368" type="line"/>
      <point x="278" y="152" type="line"/>
      <point x="447" y="378" type="line"/>
      <point x="355" y="583" type="line"/>
    </contour>
    <contour>
      <point x="74" y="373" type="line"/>
      <point x="348" y="732" type="line"/>
      <point x="401" y="732" type="line"/>
      <point x="556" y="373" type="line"/>
      <point x="285" y="0" type="line"/>
      <point x="232" y="0" type="line"/>
    </contour>
  </outline>
</glyph>
<glyph name="fi" format="1">
  <advance width="624"/>
  <unicode hex="FB01"/>
  <note>
    GF Latin Plus glyph
  </note>
  <outline>
    <contour>
      <point x="88" y="435" type="line"/>
      <point x="165" y="435" type="line"/>
      <point x="96" y="0" type="line"/>
      <point x="220" y="0" type="line"/>
      <point x="289" y="435" type="line"/>
      <point x="575" y="435" type="line"/>
      <point x="590" y="536" type="line"/>
      <point x="305" y="536" type="line"/>
      <point x="312" y="583" type="line" smooth="yes"/>
      <point x="320" y="642"/>
      <point x="339" y="670"/>
      <point x="399" y="670" type="curve" smooth="yes"/>
      <point x="484" y="670" type="line"/>
      <point x="498" y="760" type="line"/>
      <point x="467" y="765"/>
      <point x="422" y="769"/>
      <point x="378" y="769" type="curve" smooth="yes"/>
      <point x="255" y="769"/>
      <point x="210" y="709"/>
      <point x="194" y="616" type="curve" smooth="yes"/>
      <point x="181" y="536" type="line"/>
      <point x="101" y="515" type="line"/>
    </contour>
    <component base="i" xOffset="384"/>
  </outline>
</glyph>
<glyph name="fl" format="1">
  <advance width="719"/>
  <unicode hex="FB02"/>
  <note>
    GF Latin Plus glyph
  </note>
  <outline>
    <contour>
      <point x="88" y="435" type="line"/>
      <point x="165" y="435" type="line"/>
      <point x="96" y="0" type="line"/>
      <point x="220" y="0" type="line"/>
      <point x="289" y="435" type="line"/>
      <point x="431" y="435" type="line"/>
      <point x="447" y="536" type="line"/>
      <point x="305" y="536" type="line"/>
      <point x="312" y="583" type="line" smooth="yes"/>
      <point x="320" y="642"/>
      <point x="342" y="670"/>
      <point x="416" y="670" type="curve" smooth="yes"/>
      <point x="669" y="670" type="line"/>
      <point x="685" y="745" type="line"/>
      <point x="578" y="763"/>
      <point x="500" y="769"/>
      <point x="406" y="769" type="curve" smooth="yes"/>
      <point x="267" y="769"/>
      <point x="212" y="721"/>
      <point x="194" y="616" type="curve" smooth="yes"/>
      <point x="181" y="536" type="line"/>
      <point x="101" y="515" type="line"/>
    </contour>
    <contour>
      <point x="472" y="185" type="line" smooth="yes"/>
      <point x="469" y="164"/>
      <point x="467" y="141"/>
      <point x="467" y="115" type="curve" smooth="yes"/>
      <point x="467" y="45"/>
      <point x="517" y="0"/>
      <point x="615" y="0" type="curve" smooth="yes"/>
      <point x="678" y="0" type="line"/>
      <point x="692" y="89" type="line"/>
      <point x="649" y="95" type="line" smooth="yes"/>
      <point x="614" y="99"/>
      <point x="594" y="111"/>
      <point x="594" y="151" type="curve" smooth="yes"/>
      <point x="594" y="173"/>
      <point x="600" y="209"/>
      <point x="602" y="225" type="curve" smooth="yes"/>
      <point x="685" y="745" type="line"/>
      <point x="561" y="745" type="line"/>
    </contour>
  </outline>
</glyph>
<glyph name="C.smcp" format="1">
  <advance width="498"/>
  <note>
    GF Latin Plus glyph
  </note>
  <outline>
    <contour>
      <point x="95" y="297" type="curve" smooth="yes"/>
      <point x="89" y="259"/>
      <point x="85" y="219"/>
      <point x="86" y="186" type="curve" smooth="yes"/>
      <point x="87" y="66"/>
      <point x="148" y="-5"/>
      <point x="281" y="-5" type="curve" smooth="yes"/>
      <point x="336" y="-5"/>
      <point x="399" y="0"/>
      <point x="452" y="17" type="curve"/>
      <point x="467" y="105" type="line"/>
      <point x="422" y="99"/>
      <point x="383" y="95"/>
      <point x="311" y="95" type="curve" smooth="yes"/>
      <point x="231" y="95"/>
      <point x="203" y="122"/>
      <point x="203" y="187" type="curve" smooth="yes"/>
      <point x="203" y="210"/>
      <point x="207" y="242"/>
      <point x="212" y="277" type="curve" smooth="yes"/>
      <point x="235" y="417"/>
      <point x="281" y="465"/>
      <point x="364" y="465" type="curve" smooth="yes"/>
      <point x="417" y="465"/>
      <point x="474" y="456"/>
      <point x="520" y="445" type="curve"/>
      <point x="535" y="533" type="line"/>
      <point x="498" y="547"/>
      <point x="436" y="565"/>
      <point x="343" y="565" type="curve" smooth="yes"/>
      <point x="191" y="565"/>
      <point x="122" y="473"/>
    </contour>
    <contour>
      <point x="373" y="650" type="move" name="top"/>
    </contour>
    <contour>
      <point x="253" y="-150" type="move" name="bottom"/>
    </contour>
  </outline>
</glyph>
<glyph name="D.smcp" format="1">
  <advance width="575"/>
  <note>
    GF Latin Plus glyph
  </note>
  <outline>
    <contour>
      <point x="196" y="100" type="line"/>
      <point x="253" y="460" type="line"/>
      <point x="347" y="460" type="line" smooth="yes"/>
      <point x="428" y="460"/>
      <point x="457" y="427"/>
      <point x="457" y="360" type="curve" smooth="yes"/>
      <point x="457" y="342"/>
      <point x="456" y="316"/>
      <point x="448" y="270" type="curve" smooth="yes"/>
      <point x="432" y="165"/>
      <point x="389" y="100"/>
      <point x="295" y="100" type="curve" smooth="yes"/>
    </contour>
    <contour>
      <point x="61" y="0" type="line"/>
      <point x="285" y="0" type="line" smooth="yes"/>
      <point x="451" y="0"/>
      <point x="540" y="81"/>
      <point x="568" y="263" type="curve" smooth="yes"/>
      <point x="574" y="297"/>
      <point x="577" y="332"/>
      <point x="577" y="365" type="curve" smooth="yes"/>
      <point x="576" y="482"/>
      <point x="531" y="560"/>
      <point x="375" y="560" type="curve" smooth="yes"/>
      <point x="150" y="560" type="line"/>
    </contour>
    <contour>
      <point x="371" y="650" type="move" name="top"/>
    </contour>
    <contour>
      <point x="235" y="-150" type="move" name="bottom"/>
    </contour>
  </outline>
</glyph>
<glyph name="E.smcp" format="1">
  <advance width="500"/>
  <note>
    GF Latin Plus glyph
  </note>
  <outline>
    <contour>
      <point x="81" y="121" type="line" smooth="yes"/>
      <point x="64" y="14"/>
      <point x="148" y="-4"/>
      <point x="206" y="-5" type="curve" smooth="yes"/>
      <point x="296" y="-5"/>
      <point x="374" y="1"/>
      <point x="444" y="6" type="curve"/>
      <point x="458" y="99" type="line"/>
      <point x="252" y="99" type="line" smooth="yes"/>
      <point x="215" y="99"/>
      <point x="198" y="113"/>
      <point x="204" y="150" type="curve" smooth="yes"/>
      <point x="216" y="230" type="line"/>
      <point x="440" y="236" type="line"/>
      <point x="455" y="323" type="line"/>
      <point x="232" y="331" type="line"/>
      <point x="243" y="403" type="line" smooth="yes"/>
      <point x="249" y="441"/>
      <point x="267" y="457"/>
      <point x="305" y="457" type="curve" smooth="yes"/>
      <point x="515" y="457" type="line"/>
      <point x="529" y="550" type="line"/>
      <point x="468" y="555"/>
      <point x="345" y="560"/>
      <point x="287" y="560" type="curve" smooth="yes"/>
      <point x="210" y="560"/>
      <point x="146" y="529"/>
      <point x="130" y="431" type="curve" smooth="yes"/>
    </contour>
    <contour>
      <point x="361" y="650" type="move" name="top"/>
    </contour>
    <contour>
      <point x="434" y="6" type="move" name="ogonek"/>
    </contour>
    <contour>
      <point x="226" y="-150" type="move" name="bottom"/>
    </contour>
  </outline>
</glyph>
<glyph name="F.smcp" format="1">
  <advance width="477"/>
  <note>
    GF Latin Plus glyph
  </note>
  <outline>
    <contour>
      <point x="61" y="0" type="line"/>
      <point x="179" y="0" type="line"/>
      <point x="214" y="214" type="line"/>
      <point x="439" y="220" type="line"/>
      <point x="453" y="307" type="line"/>
      <point x="229" y="313" type="line"/>
      <point x="243" y="404" type="line" smooth="yes"/>
      <point x="248" y="439"/>
      <point x="265" y="457"/>
      <point x="304" y="457" type="curve" smooth="yes"/>
      <point x="513" y="457" type="line"/>
      <point x="528" y="550" type="line"/>
      <point x="473" y="555"/>
      <point x="355" y="560"/>
      <point x="286" y="560" type="curve" smooth="yes"/>
      <point x="218" y="560"/>
      <point x="147" y="536"/>
      <point x="130" y="433" type="curve" smooth="yes"/>
    </contour>
    <contour>
      <point x="360" y="650" type="move" name="top"/>
    </contour>
  </outline>
</glyph>
<glyph name="G.smcp" format="1">
  <advance width="542"/>
  <note>
    GF Latin Plus glyph
  </note>
  <outline>
    <contour>
      <point x="96" y="303" type="curve" smooth="yes"/>
      <point x="89" y="259"/>
      <point x="83" y="215"/>
      <point x="84" y="172" type="curve" smooth="yes"/>
      <point x="85" y="50"/>
      <point x="127" y="-5"/>
      <point x="239" y="-5" type="curve" smooth="yes"/>
      <point x="288" y="-5"/>
      <point x="367" y="21"/>
      <point x="397" y="38" type="curve"/>
      <point x="407" y="0" type="line"/>
      <point x="496" y="0" type="line"/>
      <point x="546" y="318" type="line"/>
      <point x="528" y="319"/>
      <point x="484" y="320"/>
      <point x="459" y="320" type="curve" smooth="yes"/>
      <point x="398" y="320"/>
      <point x="353" y="315"/>
      <point x="325" y="313" type="curve"/>
      <point x="311" y="225" type="line"/>
      <point x="418" y="225" type="line"/>
      <point x="400" y="115" type="line"/>
      <point x="378" y="108"/>
      <point x="320" y="98"/>
      <point x="280" y="98" type="curve" smooth="yes"/>
      <point x="225" y="98"/>
      <point x="203" y="127"/>
      <point x="203" y="181" type="curve" smooth="yes"/>
      <point x="202" y="206"/>
      <point x="205" y="238"/>
      <point x="212" y="278" type="curve" smooth="yes"/>
      <point x="233" y="413"/>
      <point x="263" y="465"/>
      <point x="367" y="465" type="curve" smooth="yes"/>
      <point x="450" y="465"/>
      <point x="508" y="459"/>
      <point x="542" y="452" type="curve"/>
      <point x="556" y="539" type="line"/>
      <point x="508" y="553"/>
      <point x="450" y="565"/>
      <point x="352" y="565" type="curve" smooth="yes"/>
      <point x="204" y="565"/>
      <point x="123" y="476"/>
    </contour>
    <contour>
      <point x="377" y="650" type="move" name="top"/>
    </contour>
    <contour>
      <point x="242" y="-150" type="move" name="bottom"/>
    </contour>
  </outline>
</glyph>
<glyph name="Germandbls.smcp" format="1">
  <advance width="603"/>
  <note>
    GF Latin Plus glyph
  </note>
  <outline>
    <contour>
      <point x="412" y="286" type="line"/>
      <point x="583" y="466" type="line"/>
      <point x="596" y="552" type="line"/>
      <point x="457" y="463" type="line"/>
      <point x="316" y="307" type="line"/>
    </contour>
    <contour>
      <point x="304" y="229" type="line"/>
      <point x="407" y="229" type="line" smooth="yes"/>
      <point x="446" y="229"/>
      <point x="465" y="215"/>
      <point x="465" y="188" type="curve" smooth="yes"/>
      <point x="465" y="183"/>
      <point x="464" y="177"/>
      <point x="460" y="149" type="curve" smooth="yes"/>
      <point x="452" y="105"/>
      <point x="417" y="95"/>
      <point x="363" y="95" type="curve" smooth="yes"/>
      <point x="327" y="95"/>
      <point x="284" y="102"/>
      <point x="255" y="108" type="curve"/>
      <point x="239" y="9" type="line"/>
      <point x="272" y="2"/>
      <point x="328" y="-5"/>
      <point x="365" y="-5" type="curve" smooth="yes"/>
      <point x="476" y="-5"/>
      <point x="555" y="19"/>
      <point x="577" y="132" type="curve" smooth="yes"/>
      <point x="584" y="172"/>
      <point x="586" y="188"/>
      <point x="586" y="197" type="curve" smooth="yes"/>
      <point x="586" y="272"/>
      <point x="526" y="307"/>
      <point x="440" y="307" type="curve" smooth="yes"/>
      <point x="316" y="307" type="line"/>
    </contour>
    <contour>
      <point x="63" y="0" type="line"/>
      <point x="181" y="0" type="line"/>
      <point x="247" y="412" type="line" smooth="yes"/>
      <point x="252" y="445"/>
      <point x="273" y="460"/>
      <point x="310" y="460" type="curve" smooth="yes"/>
      <point x="526" y="460" type="line"/>
      <point x="596" y="552" type="line"/>
      <point x="542" y="555"/>
      <point x="410" y="560"/>
      <point x="322" y="560" type="curve" smooth="yes"/>
      <point x="228" y="560"/>
      <point x="146" y="520"/>
      <point x="129" y="410" type="curve" smooth="yes"/>
    </contour>
  </outline>
</glyph>
<glyph name="H.smcp" format="1">
  <advance width="578"/>
  <note>
    GF Latin Plus glyph
  </note>
  <outline>
    <contour>
      <point x="61" y="0" type="line"/>
      <point x="179" y="0" type="line"/>
      <point x="216" y="227" type="line"/>
      <point x="440" y="227" type="line"/>
      <point x="404" y="0" type="line"/>
      <point x="522" y="0" type="line"/>
      <point x="611" y="560" type="line"/>
      <point x="493" y="560" type="line"/>
      <point x="456" y="326" type="line"/>
      <point x="231" y="326" type="line"/>
      <point x="268" y="560" type="line"/>
      <point x="150" y="560" type="line"/>
    </contour>
    <contour>
      <point x="394" y="650" type="move" name="top"/>
    </contour>
    <contour>
      <point x="265" y="-150" type="move" name="bottom"/>
    </contour>
  </outline>
</glyph>
<glyph name="L.smcp" format="1">
  <advance width="450"/>
  <note>
    GF Latin Plus glyph
  </note>
  <outline>
    <contour>
      <point x="83" y="136" type="line" smooth="yes"/>
      <point x="81" y="124"/>
      <point x="80" y="113"/>
      <point x="81" y="101" type="curve" smooth="yes"/>
      <point x="81" y="30"/>
      <point x="128" y="0"/>
      <point x="200" y="0" type="curve" smooth="yes"/>
      <point x="421" y="0" type="line"/>
      <point x="437" y="100" type="line"/>
      <point x="249" y="100" type="line" smooth="yes"/>
      <point x="220" y="100"/>
      <point x="203" y="110"/>
      <point x="203" y="136" type="curve" smooth="yes"/>
      <point x="203" y="142"/>
      <point x="203" y="149"/>
      <point x="205" y="158" type="curve" smooth="yes"/>
      <point x="268" y="560" type="line"/>
      <point x="150" y="560" type="line"/>
    </contour>
    <contour>
      <point x="227" y="650" type="move" name="top"/>
    </contour>
    <contour>
      <point x="307" y="466" type="move" name="altcaron"/>
    </contour>
    <contour>
      <point x="206" y="-150" type="move" name="bottom"/>
    </contour>
  </outline>
</glyph>
<glyph name="Lslash.smcp" format="1">
  <advance width="450"/>
  <note>
    GF Latin Plus glyph
  </note>
  <outline>
    <contour>
      <point x="48" y="230" type="line"/>
      <point x="120" y="258" type="line"/>
      <point x="215" y="282" type="line"/>
      <point x="338" y="329" type="line"/>
      <point x="348" y="389" type="line"/>
      <point x="224" y="341" type="line"/>
      <point x="129" y="317" type="line"/>
      <point x="57" y="290" type="line"/>
    </contour>
    <component base="L.smcp"/>
  </outline>
</glyph>
<glyph name="M.salt" format="1">
  <advance width="866"/>
  <outline>
    <contour>
      <point x="49" y="0" type="line"/>
      <point x="168" y="0" type="line"/>
      <point x="298" y="591" type="line" smooth="yes"/>
      <point x="304" y="620"/>
      <point x="317" y="628"/>
      <point x="332" y="628" type="curve" smooth="yes"/>
      <point x="344" y="628"/>
      <point x="351" y="619"/>
      <point x="353" y="599" type="curve" smooth="yes"/>
      <point x="374" y="257" type="line" smooth="yes"/>
      <point x="375" y="199"/>
      <point x="410" y="163"/>
      <point x="464" y="163" type="curve" smooth="yes"/>
      <point x="513" y="163"/>
      <point x="563" y="188"/>
      <point x="585" y="257" type="curve" smooth="yes"/>
      <point x="710" y="598" type="line" smooth="yes"/>
      <point x="718" y="620"/>
      <point x="728" y="629"/>
      <point x="738" y="629" type="curve" smooth="yes"/>
      <point x="747" y="629"/>
      <point x="755" y="624"/>
      <point x="755" y="602" type="curve" smooth="yes"/>
      <point x="755" y="599"/>
      <point x="755" y="597"/>
      <point x="754" y="594" type="curve" smooth="yes"/>
      <point x="698" y="0" type="line"/>
      <point x="818" y="0" type="line"/>
      <point x="874" y="618" type="line" smooth="yes"/>
      <point x="875" y="626"/>
      <point x="876" y="634"/>
      <point x="876" y="642" type="curve" smooth="yes"/>
      <point x="876" y="727"/>
      <point x="828" y="751"/>
      <point x="770" y="751" type="curve" smooth="yes"/>
      <point x="708" y="751"/>
      <point x="655" y="725"/>
      <point x="626" y="630" type="curve" smooth="yes"/>
      <point x="514" y="320" type="line" smooth="yes"/>
      <point x="508" y="301"/>
      <point x="498" y="293"/>
      <point x="486" y="293" type="curve" smooth="yes"/>
      <point x="475" y="293"/>
      <point x="467" y="300"/>
      <point x="466" y="320" type="curve" smooth="yes"/>
      <point x="446" y="629" type="line" smooth="yes"/>
      <point x="445" y="706"/>
      <point x="410" y="751"/>
      <point x="338" y="751" type="curve" smooth="yes"/>
      <point x="273" y="751"/>
      <point x="207" y="721"/>
      <point x="185" y="616" type="curve" smooth="yes"/>
    </contour>
    <contour>
      <point x="555" y="810" type="move" name="top"/>
    </contour>
    <contour>
      <point x="403" y="-150" type="move" name="bottom"/>
    </contour>
  </outline>
</glyph>
<glyph name="N.smcp" format="1">
  <advance width="580"/>
  <note>
    GF Latin Plus glyph
  </note>
  <outline>
    <contour>
      <point x="61" y="0" type="line"/>
      <point x="179" y="0" type="line"/>
      <point x="239" y="372" type="line"/>
      <point x="429" y="0" type="line"/>
      <point x="524" y="0" type="line"/>
      <point x="613" y="560" type="line"/>
      <point x="495" y="560" type="line"/>
      <point x="435" y="189" type="line"/>
      <point x="245" y="560" type="line"/>
      <point x="150" y="560" type="line"/>
    </contour>
    <contour>
      <point x="382" y="650" type="move" name="top"/>
    </contour>
    <contour>
      <point x="256" y="-150" type="move" name="bottom"/>
    </contour>
  </outline>
</glyph>
<glyph name="O.smcp" format="1">
  <advance width="583"/>
  <note>
    GF Latin Plus glyph
  </note>
  <outline>
    <contour>
      <point x="202" y="177" type="curve" smooth="yes"/>
      <point x="202" y="201"/>
      <point x="205" y="240"/>
      <point x="212" y="280" type="curve" smooth="yes"/>
      <point x="235" y="429"/>
      <point x="273" y="465"/>
      <point x="365" y="465" type="curve" smooth="yes"/>
      <point x="434" y="465"/>
      <point x="468" y="448"/>
      <point x="468" y="378" type="curve" smooth="yes"/>
      <point x="468" y="353"/>
      <point x="465" y="314"/>
      <point x="458" y="273" type="curve" smooth="yes"/>
      <point x="437" y="142"/>
      <point x="403" y="96"/>
      <point x="306" y="96" type="curve" smooth="yes"/>
      <point x="233" y="96"/>
      <point x="202" y="112"/>
    </contour>
    <contour>
      <point x="83" y="172" type="curve" smooth="yes"/>
      <point x="84" y="28"/>
      <point x="168" y="-5"/>
      <point x="290" y="-5" type="curve" smooth="yes"/>
      <point x="461" y="-5"/>
      <point x="542" y="41"/>
      <point x="576" y="258" type="curve" smooth="yes"/>
      <point x="583" y="303"/>
      <point x="587" y="347"/>
      <point x="587" y="379" type="curve" smooth="yes"/>
      <point x="586" y="528"/>
      <point x="499" y="565"/>
      <point x="381" y="565" type="curve" smooth="yes"/>
      <point x="208" y="565"/>
      <point x="128" y="506"/>
      <point x="94" y="295" type="curve" smooth="yes"/>
      <point x="87" y="252"/>
      <point x="83" y="207"/>
    </contour>
    <contour>
      <point x="396" y="650" type="move" name="top"/>
    </contour>
    <contour>
      <point x="350" y="0" type="move" name="ogonek"/>
    </contour>
    <contour>
      <point x="269" y="-146" type="move" name="bottom"/>
    </contour>
  </outline>
</glyph>
<glyph name="Omega" format="1">
  <advance width="768"/>
  <outline>
    <contour>
      <point x="115" y="344" type="curve" smooth="yes"/>
      <point x="115" y="248"/>
      <point x="156" y="164"/>
      <point x="217" y="109" type="curve"/>
      <point x="64" y="99" type="line"/>
      <point x="48" y="0" type="line"/>
      <point x="318" y="0" type="line"/>
      <point x="335" y="108" type="line"/>
      <point x="275" y="174"/>
      <point x="237" y="244"/>
      <point x="237" y="328" type="curve" smooth="yes"/>
      <point x="237" y="463"/>
      <point x="291" y="628"/>
      <point x="476" y="628" type="curve" smooth="yes"/>
      <point x="609" y="628"/>
      <point x="653" y="545"/>
      <point x="653" y="457" type="curve" smooth="yes"/>
      <point x="653" y="337"/>
      <point x="601" y="202"/>
      <point x="471" y="108" type="curve"/>
      <point x="454" y="0" type="line"/>
      <point x="724" y="0" type="line"/>
      <point x="740" y="99" type="line"/>
      <point x="590" y="108" type="line"/>
      <point x="711" y="201"/>
      <point x="779" y="346"/>
      <point x="779" y="481" type="curve" smooth="yes"/>
      <point x="779" y="623"/>
      <point x="699" y="739"/>
      <point x="491" y="739" type="curve" smooth="yes"/>
      <point x="210" y="739"/>
      <point x="115" y="516"/>
    </contour>
  </outline>
</glyph>
<glyph name="Oslash.smcp" format="1">
  <advance width="585"/>
  <note>
    GF Latin Plus glyph
  </note>
  <outline>
    <contour>
      <point x="561" y="560" type="line"/>
      <point x="47" y="0" type="line"/>
      <point x="113" y="0" type="line"/>
      <point x="627" y="560" type="line"/>
    </contour>
    <component base="O.smcp"/>
    <contour>
      <point x="385" y="650" type="move" name="top"/>
    </contour>
  </outline>
</glyph>
<glyph name="S.smcp" format="1">
  <advance width="484"/>
  <note>
    GF Latin Plus glyph
  </note>
  <outline>
    <contour>
      <point x="61" y="14" type="line"/>
      <point x="104" y="5"/>
      <point x="174" y="-5"/>
      <point x="257" y="-5" type="curve" smooth="yes"/>
      <point x="397" y="-5"/>
      <point x="456" y="37"/>
      <point x="471" y="131" type="curve" smooth="yes"/>
      <point x="480" y="194"/>
      <point x="481" y="204"/>
      <point x="481" y="213" type="curve" smooth="yes"/>
      <point x="481" y="286"/>
      <point x="445" y="331"/>
      <point x="328" y="331" type="curve" smooth="yes"/>
      <point x="278" y="331" type="line" smooth="yes"/>
      <point x="240" y="331"/>
      <point x="223" y="343"/>
      <point x="222" y="370" type="curve" smooth="yes"/>
      <point x="222" y="376"/>
      <point x="223" y="382"/>
      <point x="228" y="410" type="curve" smooth="yes"/>
      <point x="236" y="454"/>
      <point x="260" y="464"/>
      <point x="314" y="464" type="curve" smooth="yes"/>
      <point x="362" y="464"/>
      <point x="438" y="461"/>
      <point x="495" y="457" type="curve"/>
      <point x="508" y="546" type="line"/>
      <point x="450" y="559"/>
      <point x="379" y="565"/>
      <point x="327" y="565" type="curve" smooth="yes"/>
      <point x="210" y="565"/>
      <point x="134" y="528"/>
      <point x="117" y="420" type="curve" smooth="yes"/>
      <point x="109" y="364"/>
      <point x="108" y="355"/>
      <point x="108" y="344" type="curve" smooth="yes"/>
      <point x="108" y="272"/>
      <point x="160" y="226"/>
      <point x="250" y="226" type="curve" smooth="yes"/>
      <point x="298" y="226" type="line" smooth="yes"/>
      <point x="345" y="226"/>
      <point x="366" y="215"/>
      <point x="367" y="188" type="curve" smooth="yes"/>
      <point x="367" y="183"/>
      <point x="365" y="176"/>
      <point x="361" y="147" type="curve" smooth="yes"/>
      <point x="354" y="106"/>
      <point x="324" y="95"/>
      <point x="255" y="95" type="curve" smooth="yes"/>
      <point x="193" y="95"/>
      <point x="123" y="98"/>
      <point x="75" y="101" type="curve"/>
    </contour>
    <contour>
      <point x="341" y="650" type="move" name="top"/>
    </contour>
    <contour>
      <point x="216" y="-150" type="move" name="bottom"/>
    </contour>
  </outline>
</glyph>
<glyph name="Schwa.smcp" format="1">
  <advance width="529"/>
  <note>
    GF Latin Plus glyph
  </note>
  <outline>
    <contour>
      <point x="259" y="-5" type="curve" smooth="yes"/>
      <point x="388" y="-5"/>
      <point x="489" y="47"/>
      <point x="526" y="280" type="curve" smooth="yes"/>
      <point x="532" y="320"/>
      <point x="535" y="355"/>
      <point x="535" y="385" type="curve" smooth="yes"/>
      <point x="533" y="529"/>
      <point x="451" y="565"/>
      <point x="326" y="565" type="curve" smooth="yes"/>
      <point x="254" y="565"/>
      <point x="198" y="554"/>
      <point x="161" y="543" type="curve"/>
      <point x="147" y="457" type="line"/>
      <point x="172" y="460"/>
      <point x="213" y="465"/>
      <point x="291" y="465" type="curve" smooth="yes"/>
      <point x="371" y="465"/>
      <point x="417" y="448"/>
      <point x="418" y="377" type="curve" smooth="yes"/>
      <point x="418" y="363"/>
      <point x="416" y="341"/>
      <point x="413" y="319" type="curve"/>
      <point x="98" y="319" type="line"/>
      <point x="90" y="272" type="line" smooth="yes"/>
      <point x="83" y="222"/>
      <point x="80" y="191"/>
      <point x="80" y="167" type="curve" smooth="yes"/>
      <point x="81" y="43"/>
      <point x="149" y="-5"/>
    </contour>
    <contour>
      <point x="273" y="95" type="curve" smooth="yes"/>
      <point x="218" y="95"/>
      <point x="198" y="123"/>
      <point x="198" y="175" type="curve" smooth="yes"/>
      <point x="198" y="192"/>
      <point x="199" y="209"/>
      <point x="202" y="230" type="curve"/>
      <point x="397" y="230" type="line"/>
      <point x="374" y="123"/>
      <point x="332" y="95"/>
    </contour>
  </outline>
</glyph>
<glyph name="T.smcp" format="1">
  <advance width="513"/>
  <note>
    GF Latin Plus glyph
  </note>
  <outline>
    <contour>
      <point x="103" y="460" type="line"/>
      <point x="266" y="460" type="line"/>
      <point x="193" y="0" type="line"/>
      <point x="311" y="0" type="line"/>
      <point x="384" y="460" type="line"/>
      <point x="547" y="460" type="line"/>
      <point x="563" y="560" type="line"/>
      <point x="119" y="560" type="line"/>
    </contour>
    <contour>
      <point x="353" y="650" type="move" name="top"/>
    </contour>
    <contour>
      <point x="227" y="-150" type="move" name="bottom"/>
    </contour>
  </outline>
</glyph>
<glyph name="V.smcp" format="1">
  <advance width="582"/>
  <note>
    GF Latin Plus glyph
  </note>
  <outline>
    <contour>
      <point x="119" y="560" type="line"/>
      <point x="216" y="0" type="line"/>
      <point x="364" y="0" type="line"/>
      <point x="641" y="560" type="line"/>
      <point x="520" y="560" type="line"/>
      <point x="310" y="121" type="line"/>
      <point x="241" y="560" type="line"/>
    </contour>
  </outline>
</glyph>
<glyph name="W.salt.smcp" format="1">
  <advance width="854"/>
  <outline>
    <contour>
      <point x="114" y="560" type="line"/>
      <point x="193" y="0" type="line"/>
      <point x="347" y="0" type="line"/>
      <point x="466" y="239" type="line"/>
      <point x="513" y="0" type="line"/>
      <point x="667" y="0" type="line"/>
      <point x="917" y="560" type="line"/>
      <point x="796" y="560" type="line"/>
      <point x="602" y="126" type="line"/>
      <point x="547" y="394" type="line"/>
      <point x="620" y="560" type="line"/>
      <point x="498" y="560" type="line"/>
      <point x="300" y="126" type="line"/>
      <point x="237" y="560" type="line"/>
    </contour>
    <contour>
      <point x="543" y="650" type="move" name="top"/>
    </contour>
  </outline>
</glyph>
<glyph name="W.smcp" format="1">
  <advance width="851"/>
  <note>
    GF Latin Plus glyph
  </note>
  <outline>
    <contour>
      <point x="120" y="560" type="line"/>
      <point x="181" y="0" type="line"/>
      <point x="301" y="0" type="line"/>
      <point x="477" y="395" type="line"/>
      <point x="533" y="0" type="line"/>
      <point x="653" y="0" type="line"/>
      <point x="886" y="560" type="line"/>
      <point x="764" y="560" type="line"/>
      <point x="604" y="165" type="line"/>
      <point x="557" y="560" type="line"/>
      <point x="449" y="560" type="line"/>
      <point x="282" y="165" type="line"/>
      <point x="241" y="560" type="line"/>
    </contour>
    <contour>
      <point x="522" y="650" type="move" name="top"/>
    </contour>
  </outline>
</glyph>
<glyph name="X.salt" format="1">
  <advance width="670"/>
  <outline>
    <contour>
      <point x="25" y="0" type="line"/>
      <point x="159" y="0" type="line"/>
      <point x="329" y="249" type="line" smooth="yes"/>
      <point x="362" y="297"/>
      <point x="381" y="357"/>
      <point x="381" y="410" type="curve" smooth="yes"/>
      <point x="381" y="442"/>
      <point x="374" y="471"/>
      <point x="363" y="497" type="curve" smooth="yes"/>
      <point x="269" y="738" type="line"/>
      <point x="141" y="738" type="line"/>
      <point x="238" y="466" type="line" smooth="yes"/>
      <point x="248" y="441"/>
      <point x="255" y="417"/>
      <point x="255" y="393" type="curve" smooth="yes"/>
      <point x="255" y="355"/>
      <point x="239" y="318"/>
      <point x="213" y="279" type="curve" smooth="yes"/>
    </contour>
    <contour>
      <point x="512" y="0" type="line"/>
      <point x="646" y="0" type="line"/>
      <point x="546" y="279" type="line" smooth="yes"/>
      <point x="538" y="301"/>
      <point x="534" y="321"/>
      <point x="534" y="342" type="curve" smooth="yes"/>
      <point x="534" y="383"/>
      <point x="552" y="424"/>
      <point x="581" y="466" type="curve" smooth="yes"/>
      <point x="763" y="738" type="line"/>
      <point x="635" y="738" type="line"/>
      <point x="466" y="497" type="line" smooth="yes"/>
      <point x="431" y="448"/>
      <point x="407" y="385"/>
      <point x="407" y="326" type="curve" smooth="yes"/>
      <point x="407" y="299"/>
      <point x="411" y="273"/>
      <point x="421" y="249" type="curve" smooth="yes"/>
    </contour>
    <contour>
      <point x="462" y="810" type="move" name="top"/>
    </contour>
    <contour>
      <point x="310" y="-150" type="move" name="bottom"/>
    </contour>
  </outline>
</glyph>
<glyph name="X.salt.smcp" format="1">
  <advance width="576"/>
  <outline>
    <contour>
      <point x="27" y="0" type="line"/>
      <point x="155" y="0" type="line"/>
      <point x="284" y="188" type="line" smooth="yes"/>
      <point x="309" y="225"/>
      <point x="324" y="271"/>
      <point x="324" y="314" type="curve" smooth="yes"/>
      <point x="324" y="336"/>
      <point x="318" y="358"/>
      <point x="305" y="391" type="curve" smooth="yes"/>
      <point x="236" y="560" type="line"/>
      <point x="115" y="560" type="line"/>
      <point x="190" y="353" type="line" smooth="yes"/>
      <point x="198" y="336"/>
      <point x="202" y="317"/>
      <point x="202" y="301" type="curve" smooth="yes"/>
      <point x="202" y="269"/>
      <point x="193" y="246"/>
      <point x="172" y="214" type="curve" smooth="yes"/>
    </contour>
    <contour>
      <point x="422" y="0" type="line"/>
      <point x="550" y="0" type="line"/>
      <point x="472" y="213" type="line" smooth="yes"/>
      <point x="466" y="229"/>
      <point x="463" y="245"/>
      <point x="463" y="260" type="curve" smooth="yes"/>
      <point x="463" y="291"/>
      <point x="476" y="319"/>
      <point x="497" y="350" type="curve" smooth="yes"/>
      <point x="639" y="560" type="line"/>
      <point x="517" y="560" type="line"/>
      <point x="391" y="385" type="line" smooth="yes"/>
      <point x="359" y="339"/>
      <point x="342" y="291"/>
      <point x="342" y="245" type="curve" smooth="yes"/>
      <point x="342" y="225"/>
      <point x="346" y="205"/>
      <point x="353" y="188" type="curve" smooth="yes"/>
    </contour>
    <contour>
      <point x="392" y="650" type="move" name="top"/>
    </contour>
    <contour>
      <point x="263" y="-150" type="move" name="bottom"/>
    </contour>
  </outline>
</glyph>
<glyph name="X.smcp" format="1">
  <advance width="549"/>
  <note>
    GF Latin Plus glyph
  </note>
  <outline>
    <contour>
      <point x="27" y="0" type="line"/>
      <point x="159" y="0" type="line"/>
      <point x="320" y="211" type="line"/>
      <point x="274" y="307" type="line"/>
    </contour>
    <contour>
      <point x="319" y="340" type="line"/>
      <point x="365" y="247" type="line"/>
      <point x="618" y="560" type="line"/>
      <point x="487" y="560" type="line"/>
    </contour>
    <contour>
      <point x="277" y="241" type="line"/>
      <point x="398" y="0" type="line"/>
      <point x="526" y="0" type="line"/>
      <point x="365" y="312" type="line"/>
      <point x="242" y="560" type="line"/>
      <point x="113" y="560" type="line"/>
    </contour>
    <contour>
      <point x="374" y="650" type="move" name="top"/>
    </contour>
    <contour>
      <point x="249" y="-150" type="move" name="bottom"/>
    </contour>
  </outline>
</glyph>
<glyph name="Y.smcp" format="1">
  <advance width="538"/>
  <note>
    GF Latin Plus glyph
  </note>
  <outline>
    <contour>
      <point x="113" y="560" type="line"/>
      <point x="230" y="164" type="line"/>
      <point x="204" y="0" type="line"/>
      <point x="322" y="0" type="line"/>
      <point x="348" y="164" type="line"/>
      <point x="602" y="560" type="line"/>
      <point x="469" y="560" type="line"/>
      <point x="307" y="285" type="line"/>
      <point x="241" y="560" type="line"/>
    </contour>
    <contour>
      <point x="368" y="650" type="move" name="top"/>
    </contour>
    <contour>
      <point x="239" y="-150" type="move" name="bottom"/>
    </contour>
  </outline>
</glyph>
<glyph name="Z.smcp" format="1">
  <advance width="479"/>
  <note>
    GF Latin Plus glyph
  </note>
  <outline>
    <contour>
      <point x="39" y="0" type="line"/>
      <point x="440" y="0" type="line"/>
      <point x="456" y="100" type="line"/>
      <point x="191" y="100" type="line"/>
      <point x="506" y="466" type="line"/>
      <point x="520" y="560" type="line"/>
      <point x="128" y="560" type="line"/>
      <point x="112" y="460" type="line"/>
      <point x="369" y="460" type="line"/>
      <point x="55" y="94" type="line"/>
    </contour>
    <contour>
      <point x="340" y="650" type="move" name="top"/>
    </contour>
    <contour>
      <point x="217" y="-150" type="move" name="bottom"/>
    </contour>
  </outline>
</glyph>
<glyph name="a.salt" format="1">
  <advance width="568"/>
  <outline>
    <contour>
      <point x="208" y="276" type="curve" smooth="yes"/>
      <point x="226" y="386"/>
      <point x="264" y="442"/>
      <point x="362" y="442" type="curve" smooth="yes"/>
      <point x="404" y="442"/>
      <point x="439" y="429"/>
      <point x="453" y="421" type="curve"/>
      <point x="405" y="115" type="line"/>
      <point x="373" y="103"/>
      <point x="332" y="94"/>
      <point x="284" y="94" type="curve" smooth="yes"/>
      <point x="229" y="94"/>
      <point x="200" y="134"/>
      <point x="200" y="199" type="curve" smooth="yes"/>
      <point x="200" y="217"/>
      <point x="203" y="244"/>
    </contour>
    <contour>
      <point x="87" y="286" type="curve" smooth="yes"/>
      <point x="83" y="258"/>
      <point x="76" y="214"/>
      <point x="76" y="177" type="curve" smooth="yes"/>
      <point x="76" y="48"/>
      <point x="144" y="-6"/>
      <point x="261" y="-6" type="curve" smooth="yes"/>
      <point x="346" y="-6"/>
      <point x="450" y="14"/>
      <point x="517" y="38" type="curve"/>
      <point x="587" y="480" type="line"/>
      <point x="539" y="519"/>
      <point x="452" y="542"/>
      <point x="368" y="542" type="curve" smooth="yes"/>
      <point x="196" y="542"/>
      <point x="115" y="459"/>
    </contour>
    <contour>
      <point x="379" y="650" type="move" name="top"/>
    </contour>
    <contour>
      <point x="342" y="0" type="move" name="ogonek"/>
    </contour>
    <contour>
      <point x="252" y="-150" type="move" name="bottom"/>
    </contour>
  </outline>
</glyph>
<glyph name="a.superior" format="1">
  <advance width="425"/>
  <note>
    GF Latin Plus glyph
  </note>
  <outline>
    <contour>
      <point x="209" y="484" type="curve" smooth="yes"/>
      <point x="222" y="553"/>
      <point x="245" y="591"/>
      <point x="311" y="591" type="curve" smooth="yes"/>
      <point x="339" y="591"/>
      <point x="361" y="584"/>
      <point x="372" y="579" type="curve"/>
      <point x="341" y="389" type="line"/>
      <point x="318" y="375"/>
      <point x="292" y="361"/>
      <point x="258" y="361" type="curve" smooth="yes"/>
      <point x="221" y="361"/>
      <point x="202" y="388"/>
      <point x="202" y="427" type="curve" smooth="yes"/>
      <point x="202" y="441"/>
      <point x="204" y="461"/>
    </contour>
    <contour>
      <point x="107" y="492" type="curve" smooth="yes"/>
      <point x="104" y="471"/>
      <point x="98" y="438"/>
      <point x="98" y="411" type="curve" smooth="yes"/>
      <point x="98" y="316"/>
      <point x="149" y="276"/>
      <point x="209" y="276" type="curve" smooth="yes"/>
      <point x="256" y="276"/>
      <point x="310" y="301"/>
      <point x="331" y="319" type="curve"/>
      <point x="337" y="280" type="line"/>
      <point x="428" y="280" type="line"/>
      <point x="484" y="630" type="line"/>
      <point x="448" y="658"/>
      <point x="382" y="676"/>
      <point x="316" y="676" type="curve" smooth="yes"/>
      <point x="189" y="676"/>
      <point x="126" y="616"/>
    </contour>
    <contour>
      <point x="326" y="754" type="move" name="top"/>
    </contour>
    <contour>
      <point x="420" y="280" type="move" name="ogonek"/>
    </contour>
    <contour>
      <point x="234" y="170" type="move" name="bottom"/>
    </contour>
  </outline>
</glyph>
<glyph name="ampersand.salt" format="1">
  <advance width="973"/>
  <outline>
    <contour>
      <point x="391" y="263" type="line"/>
      <point x="403" y="340"/>
      <point x="431" y="353"/>
      <point x="470" y="353" type="curve" smooth="yes"/>
      <point x="532" y="353" type="line" smooth="yes"/>
      <point x="568" y="353"/>
      <point x="583" y="347"/>
      <point x="578" y="310" type="curve" smooth="yes"/>
      <point x="571" y="270"/>
      <point x="557" y="263"/>
      <point x="517" y="263" type="curve" smooth="yes"/>
    </contour>
    <contour>
      <point x="207" y="327" type="curve" smooth="yes"/>
      <point x="219" y="406" type="line" smooth="yes"/>
      <point x="232" y="487"/>
      <point x="259" y="508"/>
      <point x="370" y="509" type="curve"/>
      <point x="801" y="509" type="line"/>
      <point x="756" y="222" type="line" smooth="yes"/>
      <point x="742" y="130"/>
      <point x="687" y="97"/>
      <point x="594" y="97" type="curve" smooth="yes"/>
      <point x="449" y="97" type="line" smooth="yes"/>
      <point x="389" y="97"/>
      <point x="369" y="114"/>
      <point x="377" y="177" type="curve"/>
      <point x="505" y="177" type="line" smooth="yes"/>
      <point x="602" y="177"/>
      <point x="681" y="177"/>
      <point x="700" y="295" type="curve" smooth="yes"/>
      <point x="719" y="416"/>
      <point x="641" y="439"/>
      <point x="548" y="439" type="curve" smooth="yes"/>
      <point x="478" y="439" type="line" smooth="yes"/>
      <point x="358" y="439"/>
      <point x="288" y="390"/>
      <point x="267" y="264" type="curve"/>
      <point x="226" y="264"/>
      <point x="199" y="276"/>
    </contour>
    <contour>
      <point x="84" y="334" type="line" smooth="yes"/>
      <point x="66" y="207"/>
      <point x="151" y="173"/>
      <point x="252" y="173" type="curve"/>
      <point x="233" y="38"/>
      <point x="325" y="-1"/>
      <point x="432" y="-1" type="curve" smooth="yes"/>
      <point x="583" y="-1" type="line" smooth="yes"/>
      <point x="716" y="-1"/>
      <point x="850" y="16"/>
      <point x="879" y="203" type="curve" smooth="yes"/>
      <point x="926" y="510" type="line"/>
      <point x="1036" y="525" type="line"/>
      <point x="1049" y="607" type="line"/>
      <point x="941" y="607" type="line"/>
      <point x="960" y="731" type="line"/>
      <point x="851" y="731" type="line"/>
      <point x="817" y="608" type="line"/>
      <point x="381" y="608" type="line" smooth="yes"/>
      <point x="214" y="607"/>
      <point x="119" y="589"/>
      <point x="96" y="421" type="curve" smooth="yes"/>
    </contour>
  </outline>
</glyph>
<glyph name="ampersand.smcp" format="1">
  <advance width="584"/>
  <note>
    GF Latin Plus glyph
  </note>
  <outline>
    <contour>
      <point x="234" y="96" type="curve" smooth="yes"/>
      <point x="195" y="96"/>
      <point x="176" y="118"/>
      <point x="175" y="151" type="curve" smooth="yes"/>
      <point x="175" y="188"/>
      <point x="187" y="212"/>
      <point x="232" y="238" type="curve" smooth="yes"/>
      <point x="259" y="254" type="line"/>
      <point x="331" y="142" type="line"/>
      <point x="313" y="127" type="line" smooth="yes"/>
      <point x="281" y="101"/>
      <point x="258" y="96"/>
    </contour>
    <contour>
      <point x="197" y="-5" type="curve" smooth="yes"/>
      <point x="253" y="-5"/>
      <point x="297" y="9"/>
      <point x="346" y="45" type="curve" smooth="yes"/>
      <point x="380" y="70" type="line"/>
      <point x="427" y="0" type="line"/>
      <point x="548" y="0" type="line"/>
      <point x="469" y="125" type="line"/>
      <point x="522" y="168" type="line"/>
      <point x="583" y="251" type="line"/>
      <point x="549" y="301" type="line"/>
      <point x="417" y="203" type="line"/>
      <point x="329" y="349" type="line" smooth="yes"/>
      <point x="310" y="378"/>
      <point x="302" y="398"/>
      <point x="302" y="415" type="curve" smooth="yes"/>
      <point x="301" y="449"/>
      <point x="326" y="459"/>
      <point x="363" y="459" type="curve" smooth="yes"/>
      <point x="480" y="459" type="line"/>
      <point x="493" y="541" type="line"/>
      <point x="465" y="548"/>
      <point x="412" y="558"/>
      <point x="356" y="558" type="curve" smooth="yes"/>
      <point x="238" y="558"/>
      <point x="184" y="500"/>
      <point x="185" y="427" type="curve" smooth="yes"/>
      <point x="185" y="404"/>
      <point x="189" y="376"/>
      <point x="208" y="342" type="curve" smooth="yes"/>
      <point x="217" y="326" type="line"/>
      <point x="166" y="298" type="line" smooth="yes"/>
      <point x="89" y="256"/>
      <point x="57" y="205"/>
      <point x="57" y="131" type="curve" smooth="yes"/>
      <point x="58" y="47"/>
      <point x="114" y="-5"/>
    </contour>
  </outline>
</glyph>
<glyph name="at.smcp" format="1">
  <advance width="770"/>
  <note>
    GF Latin Plus glyph
  </note>
  <outline>
    <contour>
      <point x="434" y="334" type="curve" smooth="yes"/>
      <point x="458" y="334"/>
      <point x="480" y="330"/>
      <point x="506" y="318" type="curve"/>
      <point x="477" y="121" type="line"/>
      <point x="448" y="97"/>
      <point x="410" y="86"/>
      <point x="374" y="86" type="curve" smooth="yes"/>
      <point x="341" y="86"/>
      <point x="314" y="105"/>
      <point x="313" y="159" type="curve" smooth="yes"/>
      <point x="313" y="263"/>
      <point x="365" y="334"/>
    </contour>
    <contour>
      <point x="54" y="34" type="line" smooth="yes"/>
      <point x="53" y="20"/>
      <point x="51" y="6"/>
      <point x="51" y="-7" type="curve" smooth="yes"/>
      <point x="52" y="-83"/>
      <point x="94" y="-146"/>
      <point x="217" y="-146" type="curve" smooth="yes"/>
      <point x="290" y="-146" type="line" smooth="yes"/>
      <point x="390" y="-146"/>
      <point x="484" y="-137"/>
      <point x="524" y="-130" type="curve"/>
      <point x="533" y="-68" type="line"/>
      <point x="224" y="-68" type="line" smooth="yes"/>
      <point x="167" y="-68"/>
      <point x="143" y="-39"/>
      <point x="142" y="-1" type="curve" smooth="yes"/>
      <point x="142" y="7"/>
      <point x="144" y="18"/>
      <point x="146" y="33" type="curve" smooth="yes"/>
      <point x="200" y="372" type="line" smooth="yes"/>
      <point x="207" y="421"/>
      <point x="228" y="472"/>
      <point x="310" y="472" type="curve" smooth="yes"/>
      <point x="596" y="472" type="line" smooth="yes"/>
      <point x="645" y="472"/>
      <point x="682" y="453"/>
      <point x="682" y="405" type="curve" smooth="yes"/>
      <point x="682" y="395"/>
      <point x="681" y="385"/>
      <point x="679" y="372" type="curve" smooth="yes"/>
      <point x="647" y="160" type="line" smooth="yes"/>
      <point x="636" y="91"/>
      <point x="599" y="80"/>
      <point x="561" y="80" type="curve"/>
      <point x="604" y="362" type="line"/>
      <point x="565" y="394"/>
      <point x="513" y="413"/>
      <point x="442" y="413" type="curve" smooth="yes"/>
      <point x="320" y="413"/>
      <point x="222" y="312"/>
      <point x="223" y="141" type="curve" smooth="yes"/>
      <point x="224" y="42"/>
      <point x="274" y="1"/>
      <point x="344" y="1" type="curve" smooth="yes"/>
      <point x="398" y="1"/>
      <point x="452" y="34"/>
      <point x="469" y="54" type="curve"/>
      <point x="487" y="6" type="line"/>
      <point x="560" y="6" type="line" smooth="yes"/>
      <point x="668" y="6"/>
      <point x="725" y="64"/>
      <point x="737" y="143" type="curve" smooth="yes"/>
      <point x="769" y="362" type="line" smooth="yes"/>
      <point x="772" y="380"/>
      <point x="773" y="397"/>
      <point x="773" y="414" type="curve" smooth="yes"/>
      <point x="772" y="494"/>
      <point x="723" y="551"/>
      <point x="621" y="551" type="curve" smooth="yes"/>
      <point x="327" y="551" type="line" smooth="yes"/>
      <point x="206" y="551"/>
      <point x="132" y="516"/>
      <point x="112" y="394" type="curve" smooth="yes"/>
    </contour>
  </outline>
</glyph>
<glyph name="b.salt" format="1">
  <advance width="573"/>
  <outline>
    <contour>
      <point x="199" y="95" type="line"/>
      <point x="250" y="418" type="line"/>
      <point x="291" y="430"/>
      <point x="330" y="441"/>
      <point x="376" y="441" type="curve" smooth="yes"/>
      <point x="427" y="441"/>
      <point x="459" y="415"/>
      <point x="459" y="336" type="curve" smooth="yes"/>
      <point x="459" y="220"/>
      <point x="407" y="95"/>
      <point x="312" y="95" type="curve" smooth="yes"/>
    </contour>
    <contour>
      <point x="63" y="25" type="line"/>
      <point x="124" y="6"/>
      <point x="210" y="-6"/>
      <point x="299" y="-6" type="curve" smooth="yes"/>
      <point x="493" y="-6"/>
      <point x="583" y="161"/>
      <point x="583" y="353" type="curve" smooth="yes"/>
      <point x="583" y="477"/>
      <point x="529" y="541"/>
      <point x="418" y="541" type="curve" smooth="yes"/>
      <point x="374" y="541"/>
      <point x="309" y="526"/>
      <point x="264" y="507" type="curve"/>
      <point x="304" y="763" type="line"/>
      <point x="180" y="763" type="line"/>
    </contour>
    <contour>
      <point x="256" y="850" type="move" name="top"/>
    </contour>
  </outline>
</glyph>
<glyph name="b.superior" format="1">
  <advance width="432"/>
  <note>
    GF Latin Plus glyph
  </note>
  <outline>
    <contour>
      <point x="206" y="385" type="curve"/>
      <point x="235" y="571" type="line"/>
      <point x="265" y="583"/>
      <point x="294" y="591"/>
      <point x="322" y="591" type="curve" smooth="yes"/>
      <point x="354" y="591"/>
      <point x="379" y="574"/>
      <point x="379" y="522" type="curve" smooth="yes"/>
      <point x="379" y="510"/>
      <point x="377" y="495"/>
      <point x="375" y="477" type="curve" smooth="yes"/>
      <point x="364" y="396"/>
      <point x="335" y="361"/>
      <point x="284" y="361" type="curve" smooth="yes"/>
      <point x="249" y="361"/>
      <point x="225" y="375"/>
    </contour>
    <contour>
      <point x="85" y="280" type="line"/>
      <point x="177" y="280" type="line"/>
      <point x="195" y="317" type="line"/>
      <point x="225" y="294"/>
      <point x="270" y="276"/>
      <point x="317" y="276" type="curve" smooth="yes"/>
      <point x="399" y="276"/>
      <point x="456" y="339"/>
      <point x="473" y="449" type="curve" smooth="yes"/>
      <point x="478" y="484"/>
      <point x="482" y="517"/>
      <point x="482" y="539" type="curve" smooth="yes"/>
      <point x="482" y="627"/>
      <point x="433" y="676"/>
      <point x="357" y="676" type="curve" smooth="yes"/>
      <point x="328" y="676"/>
      <point x="282" y="665"/>
      <point x="247" y="647" type="curve"/>
      <point x="277" y="837" type="line"/>
      <point x="174" y="837" type="line"/>
    </contour>
    <contour>
      <point x="245" y="170" type="move" name="bottom"/>
    </contour>
  </outline>
</glyph>
<glyph name="braceright.smcp" format="1">
  <advance width="279"/>
  <note>
    GF Latin Plus glyph
  </note>
  <outline>
    <contour>
      <point x="12" y="-76" type="curve"/>
      <point x="0" y="-159" type="line"/>
      <point x="135" y="-159"/>
      <point x="181" y="-124"/>
      <point x="196" y="-29" type="curve" smooth="yes"/>
      <point x="223" y="141" type="line" smooth="yes"/>
      <point x="228" y="174"/>
      <point x="252" y="186"/>
      <point x="284" y="186" type="curve"/>
      <point x="300" y="288" type="line"/>
      <point x="277" y="291"/>
      <point x="251" y="298"/>
      <point x="251" y="325" type="curve" smooth="yes"/>
      <point x="251" y="342"/>
      <point x="280" y="517"/>
      <point x="280" y="529" type="curve" smooth="yes"/>
      <point x="280" y="596"/>
      <point x="233" y="638"/>
      <point x="125" y="638" type="curve"/>
      <point x="112" y="548" type="line"/>
      <point x="143" y="548"/>
      <point x="158" y="538"/>
      <point x="159" y="504" type="curve" smooth="yes"/>
      <point x="159" y="486"/>
      <point x="130" y="324"/>
      <point x="130" y="296" type="curve" smooth="yes"/>
      <point x="130" y="258"/>
      <point x="157" y="241"/>
      <point x="198" y="238" type="curve"/>
      <point x="147" y="229"/>
      <point x="115" y="204"/>
      <point x="108" y="164" type="curve" smooth="yes"/>
      <point x="80" y="-10" type="line" smooth="yes"/>
      <point x="74" y="-50"/>
      <point x="60" y="-76"/>
    </contour>
  </outline>
</glyph>
<glyph name="brevebelowcomb" format="1">
  <note>
    GF Latin Plus glyph
  </note>
  <outline>
    <contour>
      <point x="-387" y="-77" type="line"/>
      <point x="-388" y="-91"/>
      <point x="-390" y="-104"/>
      <point x="-390" y="-115" type="curve" smooth="yes"/>
      <point x="-390" y="-192"/>
      <point x="-344" y="-225"/>
      <point x="-274" y="-225" type="curve" smooth="yes"/>
      <point x="-192" y="-225"/>
      <point x="-130" y="-183"/>
      <point x="-113" y="-77" type="curve"/>
      <point x="-172" y="-77" type="line"/>
      <point x="-183" y="-145"/>
      <point x="-221" y="-168"/>
      <point x="-266" y="-168" type="curve" smooth="yes"/>
      <point x="-301" y="-168"/>
      <point x="-331" y="-150"/>
      <point x="-331" y="-101" type="curve" smooth="yes"/>
      <point x="-331" y="-94"/>
      <point x="-330" y="-86"/>
      <point x="-329" y="-77" type="curve"/>
    </contour>
    <contour>
      <point x="-269" y="-150" type="move" name="_bottom"/>
    </contour>
  </outline>
</glyph>
<glyph name="breveinvertedcomb" format="1">
  <note>
    GF Latin Plus glyph
  </note>
  <outline>
    <contour>
      <point x="-135" y="627" type="line"/>
      <point x="-133" y="641"/>
      <point x="-131" y="654"/>
      <point x="-131" y="665" type="curve" smooth="yes"/>
      <point x="-131" y="742"/>
      <point x="-178" y="775"/>
      <point x="-247" y="775" type="curve" smooth="yes"/>
      <point x="-329" y="775"/>
      <point x="-392" y="733"/>
      <point x="-408" y="627" type="curve"/>
      <point x="-349" y="627" type="line"/>
      <point x="-338" y="695"/>
      <point x="-299" y="718"/>
      <point x="-256" y="718" type="curve" smooth="yes"/>
      <point x="-221" y="718"/>
      <point x="-191" y="700"/>
      <point x="-191" y="651" type="curve" smooth="yes"/>
      <point x="-191" y="644"/>
      <point x="-192" y="636"/>
      <point x="-193" y="627" type="curve"/>
    </contour>
    <contour>
      <point x="-269" y="650" type="move" name="_top"/>
    </contour>
  </outline>
</glyph>
<glyph name="c_k" format="1">
  <advance width="1003"/>
  <outline>
    <contour>
      <point x="341" y="88" type="curve" smooth="yes"/>
      <point x="243" y="88"/>
      <point x="202" y="117"/>
      <point x="202" y="205" type="curve" smooth="yes"/>
      <point x="202" y="218"/>
      <point x="204" y="238"/>
      <point x="209" y="267" type="curve" smooth="yes"/>
      <point x="230" y="395"/>
      <point x="276" y="446"/>
      <point x="364" y="446" type="curve" smooth="yes"/>
      <point x="506" y="446" type="line"/>
      <point x="518" y="518" type="line"/>
      <point x="461" y="531"/>
      <point x="393" y="542"/>
      <point x="337" y="542" type="curve" smooth="yes"/>
      <point x="210" y="542"/>
      <point x="117" y="473"/>
      <point x="88" y="289" type="curve" smooth="yes"/>
      <point x="82" y="252"/>
      <point x="79" y="218"/>
      <point x="79" y="194" type="curve" smooth="yes"/>
      <point x="79" y="39"/>
      <point x="158" y="-6"/>
      <point x="338" y="-6" type="curve" smooth="yes"/>
      <point x="506" y="-6"/>
      <point x="643" y="46"/>
      <point x="663" y="174" type="curve" smooth="yes"/>
      <point x="674" y="244" type="line"/>
      <point x="693" y="244"/>
      <point x="724" y="248"/>
      <point x="746" y="254" type="curve"/>
      <point x="869" y="0" type="line"/>
      <point x="997" y="0" type="line"/>
      <point x="850" y="292" type="line"/>
      <point x="915" y="324"/>
      <point x="985" y="389"/>
      <point x="1026" y="536" type="curve"/>
      <point x="902" y="536" type="line"/>
      <point x="867" y="407"/>
      <point x="792" y="350"/>
      <point x="689" y="338" type="curve"/>
      <point x="756" y="763" type="line"/>
      <point x="632" y="763" type="line"/>
      <point x="543" y="202" type="line" smooth="yes"/>
      <point x="530" y="121"/>
      <point x="458" y="88"/>
    </contour>
  </outline>
</glyph>
<glyph name="caroncomb.alt" format="1">
  <note>
    GF Latin Plus glyph
  </note>
  <outline>
    <contour>
      <point x="56" y="575" type="line"/>
      <point x="151" y="575" type="line"/>
      <point x="182" y="719" type="line"/>
      <point x="192" y="786" type="line"/>
      <point x="79" y="786" type="line"/>
      <point x="68" y="719" type="line"/>
    </contour>
    <contour>
      <point x="26" y="650" type="move" name="_altcaron"/>
    </contour>
  </outline>
</glyph>
<glyph name="circumflexcomb_acutecomb" format="1">
  <outline>
    <contour>
      <point x="-435" y="631" type="line"/>
      <point x="-362" y="631" type="line"/>
      <point x="-273" y="680" type="line"/>
      <point x="-206" y="631" type="line"/>
      <point x="-133" y="631" type="line"/>
      <point x="-220" y="736" type="line"/>
      <point x="-305" y="736" type="line"/>
    </contour>
    <contour>
      <point x="-177" y="713" type="line"/>
      <point x="-110" y="713" type="line"/>
      <point x="0" y="840" type="line"/>
      <point x="-96" y="840" type="line"/>
    </contour>
    <contour>
      <point x="-277" y="650" type="move" name="_top"/>
    </contour>
  </outline>
</glyph>
<glyph name="circumflexcomb_gravecomb" format="1">
  <outline>
    <contour>
      <point x="-438" y="631" type="line"/>
      <point x="-365" y="631" type="line"/>
      <point x="-276" y="680" type="line"/>
      <point x="-209" y="631" type="line"/>
      <point x="-137" y="631" type="line"/>
      <point x="-223" y="736" type="line"/>
      <point x="-309" y="736" type="line"/>
    </contour>
    <contour>
      <point x="-426" y="713" type="line"/>
      <point x="-359" y="713" type="line"/>
      <point x="-399" y="840" type="line"/>
      <point x="-495" y="840" type="line"/>
    </contour>
    <contour>
      <point x="-277" y="650" type="move" name="_top"/>
    </contour>
  </outline>
</glyph>
<glyph name="circumflexcomb_hookabovecomb" format="1">
  <outline>
    <contour>
      <point x="-310" y="736" type="line"/>
      <point x="-439" y="631" type="line"/>
      <point x="-366" y="631" type="line"/>
      <point x="-278" y="680" type="line"/>
      <point x="-211" y="631" type="line"/>
      <point x="-138" y="631" type="line"/>
      <point x="-225" y="736" type="line"/>
    </contour>
    <contour>
      <point x="-173" y="795" type="line"/>
      <point x="-162" y="799"/>
      <point x="-148" y="801"/>
      <point x="-138" y="801" type="curve" smooth="yes"/>
      <point x="-119" y="801"/>
      <point x="-111" y="794"/>
      <point x="-111" y="781" type="curve" smooth="yes"/>
      <point x="-111" y="764"/>
      <point x="-121" y="747"/>
      <point x="-156" y="734" type="curve"/>
      <point x="-164" y="685" type="line"/>
      <point x="-80" y="708"/>
      <point x="-49" y="749"/>
      <point x="-49" y="796" type="curve" smooth="yes"/>
      <point x="-49" y="833"/>
      <point x="-70" y="852"/>
      <point x="-115" y="852" type="curve" smooth="yes"/>
      <point x="-133" y="852"/>
      <point x="-149" y="850"/>
      <point x="-165" y="845" type="curve"/>
    </contour>
    <contour>
      <point x="-283" y="650" type="move" name="_top"/>
    </contour>
  </outline>
</glyph>
<glyph name="circumflexcomb_tildecomb" format="1">
  <outline>
    <contour>
      <point x="-435" y="779" type="curve"/>
      <point x="-373" y="779" type="line"/>
      <point x="-369" y="800"/>
      <point x="-349" y="813"/>
      <point x="-324" y="813" type="curve" smooth="yes"/>
      <point x="-288" y="813"/>
      <point x="-250" y="780"/>
      <point x="-201" y="780" type="curve" smooth="yes"/>
      <point x="-142" y="780"/>
      <point x="-106" y="805"/>
      <point x="-89" y="878" type="curve"/>
      <point x="-151" y="878" type="line"/>
      <point x="-155" y="854"/>
      <point x="-175" y="840"/>
      <point x="-201" y="840" type="curve" smooth="yes"/>
      <point x="-239" y="840"/>
      <point x="-272" y="873"/>
      <point x="-323" y="873" type="curve" smooth="yes"/>
      <point x="-372" y="873"/>
      <point x="-418" y="857"/>
    </contour>
    <contour>
      <point x="-311" y="736" type="line"/>
      <point x="-442" y="631" type="line"/>
      <point x="-369" y="631" type="line"/>
      <point x="-280" y="680" type="line"/>
      <point x="-213" y="631" type="line"/>
      <point x="-140" y="631" type="line"/>
      <point x="-226" y="736" type="line"/>
    </contour>
    <contour>
      <point x="-286" y="650" type="move" name="_top"/>
    </contour>
  </outline>
</glyph>
<glyph name="colonsign" format="1">
  <advance width="609"/>
  <note>
    GF Latin Plus glyph
  </note>
  <outline>
    <contour>
      <point x="275" y="-110" type="line"/>
      <point x="780" y="793" type="line"/>
      <point x="720" y="793" type="line"/>
      <point x="215" y="-110" type="line"/>
    </contour>
    <contour>
      <point x="135" y="-110" type="line"/>
      <point x="640" y="793" type="line"/>
      <point x="580" y="793" type="line"/>
      <point x="75" y="-110" type="line"/>
    </contour>
    <contour>
      <point x="113" y="238" type="curve" smooth="yes"/>
      <point x="113" y="57"/>
      <point x="194" y="-6"/>
      <point x="326" y="-6" type="curve" smooth="yes"/>
      <point x="432" y="-6"/>
      <point x="509" y="7"/>
      <point x="559" y="26" type="curve"/>
      <point x="578" y="110" type="line"/>
      <point x="524" y="98"/>
      <point x="469" y="94"/>
      <point x="377" y="94" type="curve" smooth="yes"/>
      <point x="272" y="94"/>
      <point x="227" y="131"/>
      <point x="227" y="255" type="curve" smooth="yes"/>
      <point x="227" y="440"/>
      <point x="339" y="650"/>
      <point x="520" y="650" type="curve" smooth="yes"/>
      <point x="576" y="650"/>
      <point x="624" y="642"/>
      <point x="663" y="634" type="curve"/>
      <point x="716" y="712" type="line"/>
      <point x="684" y="727"/>
      <point x="621" y="750"/>
      <point x="516" y="750" type="curve" smooth="yes"/>
      <point x="293" y="750"/>
      <point x="113" y="526"/>
    </contour>
  </outline>
</glyph>
<glyph name="colonsign.smcp" format="1">
  <advance width="513"/>
  <note>
    GF Latin Plus glyph
  </note>
  <outline>
    <contour>
      <point x="260" y="-83" type="line"/>
      <point x="632" y="600" type="line"/>
      <point x="578" y="600" type="line"/>
      <point x="206" y="-83" type="line"/>
    </contour>
    <contour>
      <point x="147" y="-83" type="line"/>
      <point x="520" y="600" type="line"/>
      <point x="465" y="600" type="line"/>
      <point x="93" y="-83" type="line"/>
    </contour>
    <contour>
      <point x="97" y="177" type="curve" smooth="yes"/>
      <point x="98" y="44"/>
      <point x="171" y="-5"/>
      <point x="280" y="-5" type="curve" smooth="yes"/>
      <point x="360" y="-5"/>
      <point x="420" y="5"/>
      <point x="460" y="20" type="curve"/>
      <point x="478" y="95" type="line"/>
      <point x="438" y="88"/>
      <point x="394" y="85"/>
      <point x="325" y="85" type="curve" smooth="yes"/>
      <point x="251" y="85"/>
      <point x="203" y="106"/>
      <point x="202" y="204" type="curve" smooth="yes"/>
      <point x="201" y="336"/>
      <point x="283" y="478"/>
      <point x="421" y="478" type="curve" smooth="yes"/>
      <point x="464" y="478"/>
      <point x="501" y="473"/>
      <point x="530" y="469" type="curve"/>
      <point x="581" y="539" type="line"/>
      <point x="555" y="550"/>
      <point x="503" y="567"/>
      <point x="412" y="567" type="curve" smooth="yes"/>
      <point x="240" y="567"/>
      <point x="94" y="408"/>
    </contour>
  </outline>
</glyph>
<glyph name="dblgravecomb" format="1">
  <note>
    GF Latin Plus glyph
  </note>
  <outline>
    <contour>
      <point x="-501" y="770" type="line"/>
      <point x="-405" y="631" type="line"/>
      <point x="-332" y="631" type="line"/>
      <point x="-400" y="770" type="line"/>
    </contour>
    <contour>
      <point x="-334" y="770" type="line"/>
      <point x="-238" y="631" type="line"/>
      <point x="-165" y="631" type="line"/>
      <point x="-233" y="770" type="line"/>
    </contour>
    <contour>
      <point x="-299" y="650" type="move" name="_top"/>
    </contour>
  </outline>
</glyph>
<glyph name="degree.smcp" format="1">
  <advance width="279"/>
  <note>
    GF Latin Plus glyph
  </note>
  <outline>
    <contour>
      <point x="224" y="532" type="curve" smooth="yes"/>
      <point x="256" y="532"/>
      <point x="277" y="513"/>
      <point x="277" y="484" type="curve" smooth="yes"/>
      <point x="277" y="442"/>
      <point x="248" y="415"/>
      <point x="206" y="415" type="curve" smooth="yes"/>
      <point x="173" y="415"/>
      <point x="152" y="433"/>
      <point x="152" y="462" type="curve" smooth="yes"/>
      <point x="152" y="502"/>
      <point x="181" y="532"/>
    </contour>
    <contour>
      <point x="98" y="458" type="curve" smooth="yes"/>
      <point x="99" y="402"/>
      <point x="139" y="364"/>
      <point x="197" y="364" type="curve" smooth="yes"/>
      <point x="289" y="364"/>
      <point x="332" y="421"/>
      <point x="331" y="488" type="curve" smooth="yes"/>
      <point x="330" y="545"/>
      <point x="293" y="583"/>
      <point x="233" y="583" type="curve" smooth="yes"/>
      <point x="143" y="583"/>
      <point x="98" y="523"/>
    </contour>
  </outline>
</glyph>
<glyph name="dieresiscomb" format="1">
  <note>
    GF Latin Plus glyph
  </note>
  <outline>
    <contour>
      <point x="-418" y="658" type="curve" smooth="yes"/>
      <point x="-418" y="649"/>
      <point x="-411" y="643"/>
      <point x="-402" y="643" type="curve" smooth="yes"/>
      <point x="-345" y="643" type="line" smooth="yes"/>
      <point x="-333" y="643"/>
      <point x="-324" y="649"/>
      <point x="-323" y="662" type="curve" smooth="yes"/>
      <point x="-308" y="754"/>
      <point x="-308" y="756"/>
      <point x="-308" y="757" type="curve" smooth="yes"/>
      <point x="-308" y="766"/>
      <point x="-313" y="772"/>
      <point x="-324" y="772" type="curve" smooth="yes"/>
      <point x="-381" y="772" type="line" smooth="yes"/>
      <point x="-394" y="772"/>
      <point x="-401" y="764"/>
      <point x="-403" y="752" type="curve" smooth="yes"/>
      <point x="-417" y="661"/>
      <point x="-418" y="659"/>
    </contour>
    <contour>
      <point x="-216" y="658" type="curve" smooth="yes"/>
      <point x="-216" y="649"/>
      <point x="-210" y="643"/>
      <point x="-200" y="643" type="curve" smooth="yes"/>
      <point x="-143" y="643" type="line" smooth="yes"/>
      <point x="-132" y="643"/>
      <point x="-123" y="649"/>
      <point x="-121" y="662" type="curve" smooth="yes"/>
      <point x="-107" y="754"/>
      <point x="-106" y="756"/>
      <point x="-106" y="757" type="curve" smooth="yes"/>
      <point x="-106" y="766"/>
      <point x="-111" y="772"/>
      <point x="-122" y="772" type="curve" smooth="yes"/>
      <point x="-180" y="772" type="line" smooth="yes"/>
      <point x="-192" y="772"/>
      <point x="-199" y="764"/>
      <point x="-201" y="752" type="curve" smooth="yes"/>
      <point x="-216" y="661"/>
      <point x="-216" y="659"/>
    </contour>
    <contour>
      <point x="-269" y="650" type="move" name="_top"/>
    </contour>
  </outline>
</glyph>
<glyph name="dollar.smcp" format="1">
  <advance width="492"/>
  <note>
    GF Latin Plus glyph
  </note>
  <outline>
    <contour>
      <point x="68" y="16" type="line"/>
      <point x="107" y="5"/>
      <point x="171" y="-5"/>
      <point x="212" y="-6" type="curve"/>
      <point x="202" y="-68" type="line"/>
      <point x="269" y="-68" type="line"/>
      <point x="279" y="-6" type="line"/>
      <point x="375" y="-4"/>
      <point x="448" y="16"/>
      <point x="466" y="137" type="curve" smooth="yes"/>
      <point x="472" y="183"/>
      <point x="473" y="192"/>
      <point x="473" y="205" type="curve" smooth="yes"/>
      <point x="473" y="270"/>
      <point x="442" y="333"/>
      <point x="339" y="333" type="curve" smooth="yes"/>
      <point x="286" y="333" type="line" smooth="yes"/>
      <point x="244" y="333"/>
      <point x="231" y="343"/>
      <point x="230" y="368" type="curve" smooth="yes"/>
      <point x="230" y="373"/>
      <point x="231" y="378"/>
      <point x="236" y="404" type="curve" smooth="yes"/>
      <point x="243" y="448"/>
      <point x="267" y="458"/>
      <point x="323" y="458" type="curve" smooth="yes"/>
      <point x="374" y="458"/>
      <point x="440" y="456"/>
      <point x="491" y="451" type="curve"/>
      <point x="504" y="537" type="line"/>
      <point x="467" y="549"/>
      <point x="416" y="557"/>
      <point x="368" y="559" type="curve"/>
      <point x="379" y="624" type="line"/>
      <point x="312" y="624" type="line"/>
      <point x="301" y="559" type="line"/>
      <point x="218" y="557"/>
      <point x="136" y="526"/>
      <point x="119" y="424" type="curve" smooth="yes"/>
      <point x="109" y="370"/>
      <point x="109" y="359"/>
      <point x="109" y="343" type="curve" smooth="yes"/>
      <point x="110" y="286"/>
      <point x="135" y="222"/>
      <point x="244" y="222" type="curve" smooth="yes"/>
      <point x="296" y="222" type="line" smooth="yes"/>
      <point x="337" y="222"/>
      <point x="351" y="210"/>
      <point x="352" y="183" type="curve" smooth="yes"/>
      <point x="352" y="179"/>
      <point x="350" y="171"/>
      <point x="346" y="145" type="curve" smooth="yes"/>
      <point x="340" y="104"/>
      <point x="311" y="94"/>
      <point x="259" y="94" type="curve" smooth="yes"/>
      <point x="192" y="94"/>
      <point x="117" y="98"/>
      <point x="81" y="101" type="curve"/>
    </contour>
  </outline>
</glyph>
<glyph name="e.superior" format="1">
  <advance width="408"/>
  <note>
    GF Latin Plus glyph
  </note>
  <outline>
    <contour>
      <point x="211" y="492" type="curve"/>
      <point x="221" y="559"/>
      <point x="246" y="595"/>
      <point x="308" y="595" type="curve" smooth="yes"/>
      <point x="350" y="595"/>
      <point x="371" y="580"/>
      <point x="371" y="549" type="curve" smooth="yes"/>
      <point x="371" y="505"/>
      <point x="334" y="487"/>
      <point x="265" y="487" type="curve" smooth="yes"/>
      <point x="246" y="487"/>
      <point x="226" y="490"/>
    </contour>
    <contour>
      <point x="100" y="419" type="curve" smooth="yes"/>
      <point x="101" y="328"/>
      <point x="144" y="276"/>
      <point x="260" y="276" type="curve" smooth="yes"/>
      <point x="322" y="276"/>
      <point x="379" y="283"/>
      <point x="418" y="292" type="curve"/>
      <point x="428" y="354" type="line"/>
      <point x="301" y="354" type="line" smooth="yes"/>
      <point x="231" y="354"/>
      <point x="203" y="373"/>
      <point x="202" y="415" type="curve" smooth="yes"/>
      <point x="202" y="423"/>
      <point x="202" y="433"/>
      <point x="204" y="442" type="curve"/>
      <point x="221" y="438"/>
      <point x="250" y="434"/>
      <point x="286" y="434" type="curve" smooth="yes"/>
      <point x="383" y="434"/>
      <point x="467" y="456"/>
      <point x="466" y="561" type="curve" smooth="yes"/>
      <point x="466" y="654"/>
      <point x="394" y="677"/>
      <point x="315" y="677" type="curve" smooth="yes"/>
      <point x="196" y="677"/>
      <point x="127" y="624"/>
      <point x="107" y="497" type="curve" smooth="yes"/>
      <point x="104" y="473"/>
      <point x="100" y="448"/>
    </contour>
    <contour>
      <point x="325" y="754" type="move" name="top"/>
    </contour>
    <contour>
      <point x="346" y="280" type="move" name="ogonek"/>
    </contour>
    <contour>
      <point x="233" y="170" type="move" name="bottom"/>
    </contour>
  </outline>
</glyph>
<glyph name="eight.tosf" format="1">
  <advance width="609"/>
  <outline>
    <contour>
      <point x="284" y="506" type="curve" smooth="yes"/>
      <point x="292" y="561" type="line" smooth="yes"/>
      <point x="301" y="620"/>
      <point x="329" y="639"/>
      <point x="381" y="639" type="curve" smooth="yes"/>
      <point x="453" y="639" type="line" smooth="yes"/>
      <point x="489" y="639"/>
      <point x="513" y="627"/>
      <point x="513" y="586" type="curve" smooth="yes"/>
      <point x="513" y="579"/>
      <point x="512" y="570"/>
      <point x="510" y="561" type="curve" smooth="yes"/>
      <point x="502" y="506" type="line" smooth="yes"/>
      <point x="496" y="466"/>
      <point x="473" y="430"/>
      <point x="417" y="430" type="curve" smooth="yes"/>
      <point x="347" y="430" type="line" smooth="yes"/>
      <point x="302" y="430"/>
      <point x="282" y="449"/>
      <point x="282" y="485" type="curve" smooth="yes"/>
      <point x="282" y="491"/>
      <point x="282" y="498"/>
    </contour>
    <contour>
      <point x="219" y="174" type="curve" smooth="yes"/>
      <point x="232" y="249" type="line" smooth="yes"/>
      <point x="240" y="302"/>
      <point x="292" y="324"/>
      <point x="330" y="324" type="curve" smooth="yes"/>
      <point x="401" y="324" type="line" smooth="yes"/>
      <point x="452" y="324"/>
      <point x="474" y="305"/>
      <point x="474" y="268" type="curve" smooth="yes"/>
      <point x="474" y="262"/>
      <point x="474" y="256"/>
      <point x="473" y="249" type="curve" smooth="yes"/>
      <point x="461" y="174" type="line" smooth="yes"/>
      <point x="454" y="127"/>
      <point x="428" y="102"/>
      <point x="367" y="102" type="curve" smooth="yes"/>
      <point x="295" y="102" type="line" smooth="yes"/>
      <point x="248" y="102"/>
      <point x="218" y="117"/>
      <point x="218" y="157" type="curve" smooth="yes"/>
      <point x="218" y="162"/>
      <point x="218" y="168"/>
    </contour>
    <contour>
      <point x="92" y="152" type="line" smooth="yes"/>
      <point x="90" y="140"/>
      <point x="89" y="128"/>
      <point x="89" y="118" type="curve" smooth="yes"/>
      <point x="89" y="23"/>
      <point x="164" y="-4"/>
      <point x="257" y="-4" type="curve" smooth="yes"/>
      <point x="380" y="-4" type="line" smooth="yes"/>
      <point x="481" y="-4"/>
      <point x="562" y="31"/>
      <point x="581" y="152" type="curve" smooth="yes"/>
      <point x="599" y="259" type="line" smooth="yes"/>
      <point x="600" y="269"/>
      <point x="601" y="280"/>
      <point x="601" y="292" type="curve" smooth="yes"/>
      <point x="601" y="335"/>
      <point x="584" y="376"/>
      <point x="535" y="387" type="curve"/>
      <point x="589" y="399"/>
      <point x="616" y="467"/>
      <point x="623" y="505" type="curve" smooth="yes"/>
      <point x="636" y="590" type="line" smooth="yes"/>
      <point x="638" y="603"/>
      <point x="639" y="615"/>
      <point x="639" y="627" type="curve" smooth="yes"/>
      <point x="639" y="711"/>
      <point x="579" y="744"/>
      <point x="498" y="744" type="curve" smooth="yes"/>
      <point x="370" y="744" type="line" smooth="yes"/>
      <point x="277" y="744"/>
      <point x="194" y="702"/>
      <point x="176" y="590" type="curve" smooth="yes"/>
      <point x="163" y="505" type="line" smooth="yes"/>
      <point x="161" y="491"/>
      <point x="158" y="477"/>
      <point x="158" y="464" type="curve" smooth="yes"/>
      <point x="158" y="428"/>
      <point x="172" y="396"/>
      <point x="214" y="375" type="curve"/>
      <point x="164" y="365"/>
      <point x="118" y="317"/>
      <point x="108" y="255" type="curve" smooth="yes"/>
    </contour>
  </outline>
</glyph>
<glyph name="emdash.smcp" format="1">
  <advance width="618"/>
  <note>
    GF Latin Plus glyph
  </note>
  <outline>
    <contour>
      <point x="58" y="174" type="line"/>
      <point x="616" y="174" type="line"/>
      <point x="630" y="264" type="line"/>
      <point x="72" y="264" type="line"/>
    </contour>
  </outline>
</glyph>
<glyph name="f.superior" format="1">
  <advance width="289"/>
  <note>
    GF Latin Plus glyph
  </note>
  <outline>
    <contour>
      <point x="105" y="586" type="line"/>
      <point x="162" y="586" type="line"/>
      <point x="113" y="280" type="line"/>
      <point x="216" y="280" type="line"/>
      <point x="265" y="586" type="line"/>
      <point x="365" y="586" type="line"/>
      <point x="379" y="672" type="line"/>
      <point x="278" y="672" type="line"/>
      <point x="282" y="700" type="line" smooth="yes"/>
      <point x="287" y="740"/>
      <point x="302" y="756"/>
      <point x="344" y="756" type="curve" smooth="yes"/>
      <point x="403" y="756" type="line"/>
      <point x="415" y="834" type="line"/>
      <point x="393" y="837"/>
      <point x="360" y="841"/>
      <point x="326" y="841" type="curve" smooth="yes"/>
      <point x="234" y="841"/>
      <point x="197" y="804"/>
      <point x="185" y="729" type="curve" smooth="yes"/>
      <point x="175" y="672" type="line"/>
      <point x="115" y="654" type="line"/>
    </contour>
    <contour>
      <point x="160" y="170" type="move" name="bottom"/>
    </contour>
  </outline>
</glyph>
<glyph name="f_t" format="1">
  <advance width="784"/>
  <outline>
    <contour>
      <point x="88" y="435" type="line"/>
      <point x="165" y="435" type="line"/>
      <point x="96" y="0" type="line"/>
      <point x="220" y="0" type="line"/>
      <point x="289" y="435" type="line"/>
      <point x="617" y="435" type="line"/>
      <point x="633" y="536" type="line"/>
      <point x="305" y="536" type="line"/>
      <point x="312" y="583" type="line" smooth="yes"/>
      <point x="320" y="642"/>
      <point x="339" y="670"/>
      <point x="399" y="670" type="curve" smooth="yes"/>
      <point x="484" y="670" type="line"/>
      <point x="498" y="760" type="line"/>
      <point x="467" y="765"/>
      <point x="422" y="769"/>
      <point x="378" y="769" type="curve" smooth="yes"/>
      <point x="255" y="769"/>
      <point x="210" y="709"/>
      <point x="194" y="616" type="curve" smooth="yes"/>
      <point x="181" y="536" type="line"/>
      <point x="101" y="515" type="line"/>
    </contour>
    <component base="t" xOffset="384"/>
  </outline>
</glyph>
<glyph name="five.tosf" format="1">
  <advance width="609"/>
  <outline>
    <contour>
      <point x="51" y="-194" type="line"/>
      <point x="120" y="-201"/>
      <point x="206" y="-208"/>
      <point x="284" y="-208" type="curve" smooth="yes"/>
      <point x="436" y="-208"/>
      <point x="534" y="-151"/>
      <point x="554" y="-25" type="curve" smooth="yes"/>
      <point x="572" y="84" type="line" smooth="yes"/>
      <point x="574" y="96"/>
      <point x="575" y="108"/>
      <point x="575" y="119" type="curve" smooth="yes"/>
      <point x="575" y="199"/>
      <point x="526" y="256"/>
      <point x="425" y="256" type="curve" smooth="yes"/>
      <point x="362" y="256" type="line" smooth="yes"/>
      <point x="311" y="256"/>
      <point x="270" y="238"/>
      <point x="247" y="215" type="curve"/>
      <point x="291" y="424" type="line"/>
      <point x="599" y="424" type="line"/>
      <point x="616" y="536" type="line"/>
      <point x="201" y="536" type="line"/>
      <point x="109" y="85" type="line"/>
      <point x="226" y="85" type="line"/>
      <point x="241" y="129"/>
      <point x="270" y="150"/>
      <point x="320" y="150" type="curve" smooth="yes"/>
      <point x="365" y="150" type="line" smooth="yes"/>
      <point x="420" y="150"/>
      <point x="446" y="125"/>
      <point x="446" y="83" type="curve" smooth="yes"/>
      <point x="446" y="77"/>
      <point x="446" y="70"/>
      <point x="444" y="62" type="curve" smooth="yes"/>
      <point x="435" y="0" type="line" smooth="yes"/>
      <point x="426" y="-53"/>
      <point x="384" y="-97"/>
      <point x="306" y="-97" type="curve" smooth="yes"/>
      <point x="66" y="-97" type="line"/>
    </contour>
  </outline>
</glyph>
<glyph name="florin.smcp" format="1">
  <advance width="513"/>
  <note>
    GF Latin Plus glyph
  </note>
  <outline>
    <contour>
      <point x="12" y="-140" type="line"/>
      <point x="26" y="-148"/>
      <point x="55" y="-155"/>
      <point x="92" y="-155" type="curve" smooth="yes"/>
      <point x="182" y="-155"/>
      <point x="257" y="-106"/>
      <point x="295" y="26" type="curve" smooth="yes"/>
      <point x="368" y="284" type="line"/>
      <point x="451" y="284" type="line"/>
      <point x="472" y="362" type="line"/>
      <point x="387" y="362" type="line"/>
      <point x="402" y="409" type="line" smooth="yes"/>
      <point x="425" y="489"/>
      <point x="449" y="521"/>
      <point x="507" y="521" type="curve" smooth="yes"/>
      <point x="546" y="521" type="line"/>
      <point x="568" y="590" type="line"/>
      <point x="556" y="596"/>
      <point x="532" y="606"/>
      <point x="482" y="606" type="curve" smooth="yes"/>
      <point x="373" y="606"/>
      <point x="323" y="542"/>
      <point x="288" y="425" type="curve" smooth="yes"/>
      <point x="269" y="362" type="line"/>
      <point x="202" y="362" type="line"/>
      <point x="180" y="284" type="line"/>
      <point x="250" y="284" type="line"/>
      <point x="184" y="54" type="line" smooth="yes"/>
      <point x="156" y="-41"/>
      <point x="127" y="-71"/>
      <point x="75" y="-71" type="curve" smooth="yes"/>
      <point x="35" y="-71" type="line"/>
    </contour>
  </outline>
</glyph>
<glyph name="four.oldstyle" format="1">
  <advance width="597"/>
  <outline>
    <contour>
      <point x="55" y="74" type="line"/>
      <point x="70" y="12" type="line"/>
      <point x="393" y="12" type="line"/>
      <point x="363" y="-176" type="line"/>
      <point x="487" y="-176" type="line"/>
      <point x="516" y="12" type="line"/>
      <point x="592" y="34" type="line"/>
      <point x="606" y="118" type="line"/>
      <point x="533" y="118" type="line"/>
      <point x="569" y="345" type="line"/>
      <point x="471" y="345" type="line"/>
      <point x="429" y="246" type="line"/>
      <point x="409" y="118" type="line"/>
      <point x="208" y="118" type="line"/>
      <point x="450" y="539" type="line"/>
      <point x="323" y="539" type="line"/>
    </contour>
  </outline>
</glyph>
<glyph name="four.smcp" format="1">
  <advance width="520"/>
  <note>
    GF Latin Plus glyph
  </note>
  <outline>
    <contour>
      <point x="58" y="171" type="line"/>
      <point x="72" y="119" type="line"/>
      <point x="332" y="119" type="line"/>
      <point x="313" y="0" type="line"/>
      <point x="431" y="0" type="line"/>
      <point x="450" y="119" type="line"/>
      <point x="514" y="137" type="line"/>
      <point x="526" y="214" type="line"/>
      <point x="465" y="214" type="line"/>
      <point x="492" y="388" type="line"/>
      <point x="397" y="388" type="line"/>
      <point x="364" y="324" type="line"/>
      <point x="347" y="214" type="line"/>
      <point x="205" y="214" type="line"/>
      <point x="433" y="560" type="line"/>
      <point x="312" y="560" type="line"/>
    </contour>
  </outline>
</glyph>
<glyph name="four.tnum" format="1">
  <advance width="609"/>
  <outline>
    <contour>
      <point x="63" y="229" type="line"/>
      <point x="78" y="168" type="line"/>
      <point x="410" y="168" type="line"/>
      <point x="383" y="1" type="line"/>
      <point x="507" y="1" type="line"/>
      <point x="534" y="168" type="line"/>
      <point x="622" y="188" type="line"/>
      <point x="636" y="273" type="line"/>
      <point x="551" y="273" type="line"/>
      <point x="589" y="515" type="line"/>
      <point x="490" y="515" type="line"/>
      <point x="453" y="436" type="line"/>
      <point x="427" y="273" type="line"/>
      <point x="217" y="273" type="line"/>
      <point x="524" y="738" type="line"/>
      <point x="397" y="738" type="line"/>
    </contour>
  </outline>
</glyph>
<glyph name="franc.smcp" format="1">
  <advance width="513"/>
  <note>
    GF Latin Plus glyph
  </note>
  <outline>
    <contour>
      <point x="120" y="0" type="line"/>
      <point x="238" y="0" type="line"/>
      <point x="277" y="245" type="line"/>
      <point x="453" y="252" type="line"/>
      <point x="467" y="339" type="line"/>
      <point x="292" y="346" type="line"/>
      <point x="303" y="412" type="line" smooth="yes"/>
      <point x="307" y="438"/>
      <point x="326" y="457"/>
      <point x="360" y="457" type="curve" smooth="yes"/>
      <point x="524" y="457" type="line"/>
      <point x="538" y="550" type="line"/>
      <point x="488" y="556"/>
      <point x="371" y="560"/>
      <point x="344" y="560" type="curve" smooth="yes"/>
      <point x="280" y="560"/>
      <point x="204" y="533"/>
      <point x="188" y="437" type="curve" smooth="yes"/>
    </contour>
    <contour>
      <point x="72" y="91" type="line"/>
      <point x="133" y="85" type="line"/>
      <point x="251" y="85" type="line"/>
      <point x="412" y="91" type="line"/>
      <point x="424" y="167" type="line"/>
      <point x="265" y="174" type="line"/>
      <point x="147" y="174" type="line"/>
      <point x="85" y="167" type="line"/>
    </contour>
  </outline>
</glyph>
